<?xml version="1.0" standalone="no"?>
<!DOCTYPE svg PUBLIC "-//W3C//DTD SVG 1.1//EN" "http://www.w3.org/Graphics/SVG/1.1/DTD/svg11.dtd" >
<svg xmlns="http://www.w3.org/2000/svg">
<metadata>
Created by FontPrep 20130207 at Wed Jun 11 15:31:10 2014
 By Vadik Rastyagaev
Created by gluk (gluksza@wp.pl | www.glukfonts.pl) with FontPrep.
This Font is licensed unter SIL Open Font License v.1.1.
</metadata>
<defs>
<font id="5cee54b0a36dbbcfac91e6b818a4627c" horiz-adv-x='1024' >
  <font-face 
    font-family="FoglihtenNo06"
    font-weight="500"
    font-stretch="normal"
    units-per-em="2048"
    panose-1="0 0 6 0 0 0 0 0 0 0"
    ascent="1583"
    descent="-465"
    x-height="1473"
    cap-height="1473"
    bbox="-582 -526 3105 1950"
    underline-thickness="34"
    underline-position="-254"
    unicode-range="U+0020-FFFD"
  />
<missing-glyph horiz-adv-x="659" 
d="M59 0v1210h484v-1210h-484zM121 59h360v1092h-360v-1092z" />
    <glyph glyph-name="L_E" unicode="LE" horiz-adv-x="1591" 
d="M37 0v18h72q72 0 90 24t18 99v1207q0 74 -17 90t-91 16h-72v19h471v-19h-21q-74 0 -92 -16t-18 -90v-1203q0 -61 -45 -106v-2h768q164 0 248 49t96 186l4 62q-18 -6 -53 -6h-867v18h72q74 0 91 18t18 91v891q1 74 -17 91t-92 17h-20v19h766q57 0 75 -19h2l-6 94l19 2
l37 -555h-37l-9 144q-8 161 -86 229t-229 68h-289v-2q45 -45 45 -107v-373h82q106 0 164 42q57 42 57 175v52h19v-617h-19v92q0 133 -58 176t-163 44h-82v-445q0 -61 -45 -106v-2h346q150 -1 223 65t83 211l12 164h33l-60 -909l-20 2l8 120h-2q-18 -18 -55 -18h-1354z" />
    <glyph glyph-name="R_U" unicode="RU" horiz-adv-x="2301" 
d="M37 0v18h72q74 0 91 17.5t17 91.5v1219q0 74 -17.5 91t-90.5 17h-72v19h534q246 0 395.5 -125t149.5 -319.5t-123 -315.5t-311 -138l-41 -2v-12q59 -6 108.5 -41t112.5 -98v-2q57 -73 142.5 -155.5t170.5 -140.5t215 -106.5t259 -48.5q301 0 565 226l45 38l10 -14
l-45 -39q-319 -276 -670 -276q-432 0 -819 446q-14 18 -46 55t-45 53q-88 106 -159 105h-24v35h94q172 0 277.5 115.5t105.5 304t-105.5 303.5t-277.5 115h-213v-2q35 -35 35 -107v-1200q0 -74 18.5 -91.5t91.5 -17.5h119v-18h-569zM1180 1473h522v-19h-90
q-74 0 -91.5 -17.5t-17.5 -90.5v-818q0 -119 63.5 -180t206 -61t229.5 81t87 234v707q0 80 -23.5 112.5t-93.5 32.5h-76v19h379v-19h-32q-70 0 -93.5 -32.5t-23.5 -112.5v-707q0 -172 -96.5 -262t-279.5 -90t-295 97t-112 255v744q0 74 -18 91t-92 17h-53v19z" />
    <glyph glyph-name="R_O" unicode="RO" horiz-adv-x="2564" 
d="M37 0v18h72q74 0 91 17.5t17 91.5v1219q0 74 -17.5 91t-90.5 17h-72v19h534q246 0 395.5 -125t149.5 -319.5t-123 -315.5t-311 -138l-41 -2v-12q104 -10 221 -139q223 -246 460 -352.5t460 -106.5q300 0 568 169q54 34 89 63l45 38l10 -14l-45 -39
q-143 -125 -345.5 -200.5t-438.5 -75.5t-482.5 108.5t-447.5 337.5q-14 18 -46 55t-45 53q-88 106 -159 105h-24v35h94q172 0 277.5 115.5t105.5 304t-105.5 303.5t-277.5 115h-213v-2q35 -35 35 -107v-1200q0 -74 18.5 -91.5t91.5 -17.5h119v-18h-569zM1899 1452
q-433 0 -433 -563q0 -285 114 -443.5t327 -158.5q432 1 432 563q0 284 -114 443t-326 159zM1904.5 250q-276.5 0 -446.5 171t-170 449.5t170 448.5t446.5 170t444.5 -170t168 -448.5t-168 -449.5t-444.5 -171z" />
    <glyph glyph-name="R_A" unicode="RA" horiz-adv-x="2514" 
d="M37 0v18h72q74 0 91 17.5t17 91.5v1219q0 74 -17.5 91t-90.5 17h-72v19h534q246 0 395.5 -125t149.5 -319.5t-123 -315.5t-311 -138l-41 -2v-12q66 -6 129.5 -53t112.5 -110.5t105 -137.5t108.5 -135.5t123 -102t142.5 -40.5t123 28q108 58 108 195q0 82 -51 135t-137 59
h-55l16 37h705l-349 854q-16 37 -16 82h-18q0 -25 -25 -82l-489 -1120l-29 27l555 1276h158v-25q0 -74 18 -119l483 -1184q39 -94 58.5 -110t62.5 -17h17v-18h-392v18h158v5q-29 10 -63 96l-115 280h-600q59 -25 93 -76t34 -118q0 -127 -93.5 -204t-246.5 -77q-94 0 -184 47
q-88 47 -152 118q-120 134 -236.5 304t-214.5 170h-24v35h94q172 0 277.5 115.5t105.5 304t-105.5 303.5t-277.5 115h-213v-2q35 -35 35 -107v-1200q0 -74 18.5 -91.5t91.5 -17.5h119v-18h-569z" />
    <glyph glyph-name="R_a" unicode="Ra" horiz-adv-x="2301" 
d="M37 0v18h72q74 0 91 18t17 91v1219q0 74 -17 91t-91 17h-72v19h534q246 0 396 -125q149 -126 149 -320t-123 -315t-311 -138l-41 -2v-12q90 -10 211 -129q41 -51 150 -146q110 -95 201 -160t177 -95q176 -61 324 -62q248 0 514 84l57 19l4 -19l-55 -18
q-414 -131 -647 -131t-428 102t-412 340q-14 16 -35 38q-20 22 -43 49t-43 45t-34 32q-54 52 -97 53h-24v35h94q172 0 278 116q105 116 105 304t-105 303t-278 115h-213v-2q35 -35 35 -107v-1200q0 -74 18 -91t92 -18h119v-18h-569zM1968 934h-149q-173 0 -277 -101
t-104 -268q0 -117 64 -189t176 -71q112 0 201 110t89 314v205zM2050 264q0 51 -19 169t-20 149h-20q-82 -332 -344 -332q-174 0 -281 87q-106 87 -106 228q0 182 150 294q151 112 398 112h160v213q0 130 -59 200t-165 70t-179 -37q-148 -74 -156 -243l-6 -127h-37l23 483h20
l-6 -109q-4 -49 -8 -65l14 -4q10 31 33 47q120 90 304 90t285 -85t101 -247v-745q0 -64 11 -84t57 -21l41 2l34 2l2 -18q-127 -12 -227 -45v16z" />
    <glyph glyph-name="m_u" unicode="mu" horiz-adv-x="2889" 
d="M1767 1473h523v-19h-90q-74 0 -91.5 -17.5t-17.5 -90.5v-818q0 -119 63.5 -180t206 -61t229.5 81t87 234v707q0 80 -23.5 112.5t-93.5 32.5h-76v19h379v-19h-33q-70 0 -93 -32.5t-23 -112.5v-707q0 -231 -170 -312q-84 -40 -205 -40q-184 0 -296 97t-112 255v744
q0 39 -3 58t-19.5 34.5t-87.5 15.5h-54v19zM37 0v18h72q74 0 91 17.5t17 91.5v1167q0 29 -18.5 47.5t-35.5 18.5h-22l-121 -10l-2 12l158 33q88 17 124 77q19 32 19 72v8h17v-268q0 -147 -4 -188h18q12 86 33 141q96 252 324 252q157 0 214.5 -76.5t57.5 -193.5v-123h8
q1 46 21 108q89 285 333 285q186 0 266 -124q40 -62 40 -148v-689q0 -299 154.5 -456.5t447.5 -157.5q160 0 304 73.5t212 213.5l16 -13q-72 -145 -215 -219.5t-319 -74.5q-342 0 -551 175t-209 459v670q0 121 -45 188.5t-119 67.5q-139 0 -225 -130t-86 -343v-854
q0 -74 18.5 -91.5t91.5 -17.5h54v-18h-443v18h137v5q-18 18 -18 53v1122q0 121 -45 188.5t-119 67.5q-139 0 -225 -130t-86 -343v-854q0 -74 18.5 -91.5t91.5 -17.5h72v-18h-522z" />
    <glyph glyph-name="R_Aogonek" unicode="R&#x104;" horiz-adv-x="2514" 
d="M2497 0h-43q-158 0 -235 -76t-77 -196q0 -68 43 -110t103.5 -42t130.5 23l10 -35q-92 -29 -148 -29q-104 0 -167.5 51.5t-63.5 142t68.5 164.5t175.5 111v25q-66 25 -94 90l-115 280h-600q59 -25 93 -76t34 -118q0 -127 -93.5 -204t-246.5 -77q-94 0 -184 47
q-88 47 -152 118q-120 134 -236.5 304t-214.5 170h-24v35h94q172 0 277.5 115.5t105.5 304t-105.5 303.5t-277.5 115h-213v-2q35 -35 35 -107v-1200q0 -74 18.5 -91.5t91.5 -17.5h119v-18h-569v18h72q74 0 91 17.5t17 91.5v1219q0 74 -17.5 91t-90.5 17h-72v19h534
q246 0 395.5 -125t149.5 -319.5t-123 -315.5t-311 -138l-41 -2v-12q66 -6 129.5 -53t112.5 -110.5t105 -137.5t108.5 -135.5t123 -102t142.5 -40.5t123 28q108 58 108 195q0 82 -51 135t-137 59h-55l16 37h705l-349 854q-16 37 -16 82h-18q0 -25 -25 -82l-489 -1120l-29 27
l555 1276h158v-25q0 -74 18 -119l483 -1184q46 -115 77 -123q15 -4 44 -4h17v-18z" />
    <glyph glyph-name="K_O" unicode="Ko" horiz-adv-x="2560" 
d="M37 0v18h72q74 0 91 20.5t17 106.5v1201q0 74 -17.5 91t-90.5 17h-72v19h469v-19h-19q-39 0 -58 -2t-32.5 -14.5t-16.5 -30.5t-3 -57v-465q111 0 133 28l324 408q37 45 36 78q0 55 -106 55h-19v19h463v-19h-34q-78 0 -160 -34t-142 -107l-325 -412l2 -8
q111 -25 199 -101.5t182 -205.5q20 -29 74.5 -103.5t80 -109.5t81.5 -101q54 -66 94 -99q133 -115 230 -151q420 -158 862 113q54 33 87 60l45 38l10 -14l-45 -39q-125 -109 -321.5 -193.5t-391 -84.5t-347 62t-284.5 179t-306 367q-4 6 -15 18q-150 218 -228.5 278
t-154.5 60h-24v-731q0 -78 19.5 -97.5t90.5 -19.5h72v-18h-522zM1879 1452q-433 0 -433 -563q0 -285 113.5 -443.5t326.5 -158.5q432 1 432 563q0 284 -113.5 443t-325.5 159zM1884.5 250q-276.5 0 -446.5 171t-170 449.5t170 448.5t446.5 170t444.5 -170t168 -448.5
t-168 -449.5t-444.5 -171z" />
    <glyph glyph-name="K_U" unicode="KU" horiz-adv-x="2347" 
d="M401 866h-24v-721q0 -84 18.5 -105.5t91.5 -21.5h72v-18h-522v18h72q74 0 91 20.5t17 106.5v1201q0 74 -17.5 91t-90.5 17h-72v19h469v-19h-19q-74 0 -92 -17.5t-18 -90.5v-461q111 0 133 28l324 408q37 45 36 78q0 55 -106 55h-19v19h443v-19h-14q-78 0 -160 -34
t-142 -107l-325 -412l2 -8q165 -37 281 -228q50 -83 99.5 -179.5t109 -187.5t133 -166t188.5 -121t260 -46q326 0 594 230l45 38l10 -14l-45 -39q-322 -279 -684 -278q-238 0 -397 99.5t-253.5 245.5t-142.5 248q-75 161 -153 266t-193 105zM1251 1473h492v-19h-90
q-74 0 -91.5 -17.5t-17.5 -90.5v-818q0 -119 63.5 -180t206 -61t229.5 81t87 234v707q0 80 -23.5 112.5t-93.5 32.5h-76v19h379v-19h-32q-70 0 -93.5 -32.5t-23.5 -112.5v-707q0 -172 -96.5 -262t-279.5 -90t-295 97t-112 255v744q0 74 -18 91t-92 17h-23v19z" />
    <glyph glyph-name="n_u" unicode="nu" horiz-adv-x="2349" 
d="M1227 1473h522v-19h-90q-74 0 -91.5 -17.5t-17.5 -90.5v-818q0 -119 63.5 -180t206 -61t229.5 81t87 234v707q0 80 -23.5 112.5t-93.5 32.5h-75v19h378v-19h-32q-70 0 -93.5 -32.5t-23.5 -112.5v-707q0 -231 -170 -312q-84 -40 -205 -40q-184 0 -295.5 97t-111.5 255v744
q0 70 -16.5 86t-36 19t-58.5 3h-53v19zM37 0v18h72q70 0 86 15.5t19 35t3 58.5v1167q0 29 -18.5 47.5t-35.5 18.5h-22l-121 -10l-2 12l158 33q66 12 109 51t43 98v8h16v-268q0 -178 -4 -215h14q6 55 33 133q45 131 146.5 209t247 78t235.5 -84t90 -225v-652
q0 -299 154.5 -456.5t447.5 -157.5q160 0 304.5 73.5t211.5 213.5l17 -13q-72 -145 -215.5 -219.5t-319.5 -74.5q-342 0 -551 175t-209 459v617q0 309 -201 309q-160 0 -264 -139t-104 -361v-827q0 -74 18.5 -91.5t91.5 -17.5h72v-18h-522z" />
    <glyph glyph-name="K_e" unicode="Ke" horiz-adv-x="2502" 
d="M401 866h-24v-721q0 -86 18.5 -106.5t91.5 -20.5h72v-18h-522v18h72q74 0 91 20.5t17 106.5v1201q0 74 -17.5 91t-90.5 17h-72v19h469v-19h-19q-71 0 -87.5 -15.5t-19.5 -35t-3 -57.5v-461q111 0 133 28l324 408q37 45 36 78q0 55 -106 55h-19v19h463v-19h-34
q-107 0 -184 -45t-118 -96l-325 -412l2 -8q171 -37 323 -231q64 -82 130.5 -177.5t142.5 -186.5t164 -166t214 -121q125 -46 245 -46q120 -1 212 19q159 34 282.5 99.5t176.5 111.5l10 -15q-125 -109 -321.5 -193.5t-419 -84.5t-402 99t-306 247t-194.5 248
q-116 173 -208.5 271.5t-196.5 98.5zM2263 1001q0 203 -104.5 327t-293 124t-299 -122.5t-122.5 -360.5l803 14q16 0 16 18zM1442 932v-25q0 -407 200 -549q100 -70 261 -70.5t296.5 79t204.5 221.5l31 -21q-74 -150 -217 -233.5t-334 -83.5q-276 0 -446 172t-170 450
t171 447.5t433 169.5t411.5 -134t149.5 -354v-10q0 -25 -18.5 -42t-44.5 -17h-928z" />
    <glyph glyph-name="R_S" unicode="RS" horiz-adv-x="2197" 
d="M37 0v18h72q74 0 91 18t17 91v1219q0 74 -17 91t-91 17h-72v19h534q246 0 396 -120q149 -121 149 -309t-122 -299t-312 -129l-41 -2v-12q97 -10 275 -170q64 -58 120 -107q55 -50 131 -115t124 -89q48 -25 125 -62t232 -38q154 -1 249 89t96 261q0 135 -133 234
q-58 44 -132 86q-195 111 -276 181q-133 115 -133 275t111 251q112 91 278 91t287 -90q23 -16 33 -47l14 4q-4 16 -8 65l-6 109h20l23 -483l-37 -3l-4 86q-6 134 -85 228t-223 94q-190 0 -242 -142q-18 -46 -18 -108q-1 -116 105 -201q105 -85 237 -154q131 -70 238 -176
q106 -105 104 -268q0 -188 -152 -304q-152 -115 -412 -115q-259 0 -472 118q-214 118 -405 315q-59 60 -93 97q-86 92 -137 90h-14v35h94q186 0 285 102q98 102 98 297t-98 296t-285 102h-213v-2q35 -35 35 -107v-1200q0 -74 18 -91t92 -18h119v-18h-569z" />
    <glyph glyph-name="R_C" unicode="RC" horiz-adv-x="2473" 
d="M1909 1454q-215 0 -329 -144t-114 -429t119 -440t346 -154q150 -1 277 75t178 205l35 -14q-57 -147 -191 -225t-303 -78q-287 0 -463 171t-176 449t175 448t462 171q221 0 375 -131q14 -14 22 -41l15 4q-4 20 -6 59l-4 150h18l18 -592l-36 -2l-7 190q-8 136 -132 232
t-279 96zM1668 -96q-238 0 -486 108q-246 108 -447 338q-115 147 -164 180t-86 33h-24v35h94q172 0 278 116q105 116 105 304t-105 303t-278 115h-213v-2q35 -35 35 -107v-1200q0 -74 18 -91t92 -18h119v-18h-569v18h72q74 0 91 18t17 91v1219q0 74 -17 91t-91 17h-72v19
h534q246 0 396 -125q149 -126 149 -320t-123 -315t-311 -138l-41 -2v-12q104 -10 221 -139q223 -246 460 -352t460 -107q302 0 547 178q51 37 79 70l15 -14q-123 -135 -320 -214t-435 -79z" />
    <glyph glyph-name="X_O" unicode="XO" horiz-adv-x="2396" 
d="M238 65q0 -29 22.5 -39t73.5 -10h69v-16h-366v16h18q63 0 98 32t87 130l280 547l-266 569q-45 94 -80 127t-80 33h-22v19h350v-19h-111v-4q23 -8 54.5 -42t50.5 -71l225 -483l242 446q45 82 45 113q0 41 -92 41h-72v19h342v-19h-25q-47 0 -77.5 -30.5t-81.5 -129.5
l-260 -487q194 -409 381 -597t389 -232q92 -20 206.5 -19.5t237.5 33.5q236 63 399 203l45 38l11 -14l-45 -39q-323 -278 -723 -278q-286 0 -559 185.5t-465 594.5l-258 -504q-43 -84 -43 -113zM1715 1452q-433 0 -433 -563q0 -285 113.5 -443.5t326.5 -158.5q432 1 432 563
q0 284 -113.5 443t-325.5 159zM1720.5 250q-276.5 0 -446.5 171t-170 449.5t170 448.5t446.5 170t444.5 -170t168 -448.5t-168 -449.5t-444.5 -171z" />
    <glyph glyph-name="R_e" unicode="Re" horiz-adv-x="2523" 
d="M1928 1452q-292 0 -401 -218q-55 -107 -63 -265l803 14q16 0 17 18q0 203 -102 327t-254 124zM1462 932v-25q0 -303 113 -462t342 -159t387 140q76 68 121 162l31 -21q-74 -149 -218 -233t-333 -84q-276 0 -447 172q-170 172 -170 450t174 448t459 169q158 -1 279 -61
q122 -60 188 -171t66 -256v-10q0 -31 -22 -45t-42 -14h-928zM37 0v18h72q74 0 91 18t17 91v1219q0 74 -17 91t-91 17h-72v19h534q246 0 396 -125q149 -126 149 -320t-123 -315t-311 -138l-41 -2v-12q104 -10 221 -139q223 -246 460 -352t460 -107q300 0 568 169q54 34 89 63
l10 -15q-143 -124 -346 -200t-439 -76t-482 108t-447 338q-115 147 -164 180t-86 33h-24v35h94q172 0 278 116q105 116 105 304t-105 303t-278 115h-213v-2q35 -35 35 -107v-1200q0 -74 18 -91t92 -18h119v-18h-569z" />
    <glyph glyph-name="m_o" unicode="mo" horiz-adv-x="3168" 
d="M2487 1452q-433 0 -433 -563q0 -285 114 -443.5t327 -158.5q432 1 432 563q0 284 -114 443t-326 159zM2492.5 250q-276.5 0 -446.5 171t-170 449.5t170 448.5t446.5 170t444.5 -170t168 -448.5t-168 -449.5t-444.5 -171zM37 0v18h72q74 0 91 17.5t17 91.5v1167
q0 29 -18.5 47.5t-35.5 18.5h-22l-121 -10l-2 12l158 33q143 29 143 149v8h17v-268q0 -147 -4 -188h18q12 86 33 141q96 252 324 252q150 0 211 -71.5t61 -198.5v-123h8q2 45 21.5 107.5t29.5 82.5q106 203 303 203q137 0 221.5 -71.5t84.5 -200.5v-607q0 -313 212 -504.5
t558 -191.5q195 0 361.5 73.5t232.5 209.5l16 -9q-70 -143 -247 -222t-396 -79q-403 0 -650 221.5t-247 583.5v506q0 121 -45 188.5t-119 67.5q-139 0 -225 -130t-86 -343v-854q0 -74 18.5 -91.5t91.5 -17.5h54v-18h-443v18h137v5q-18 18 -18 53v1122q0 121 -45 188.5
t-119 67.5q-139 0 -225 -130t-86 -343v-854q0 -74 18.5 -91.5t91.5 -17.5h72v-18h-522z" />
    <glyph glyph-name="m_e" unicode="me" horiz-adv-x="3110" 
d="M2871 1001q0 203 -104.5 327t-293 124t-299 -122.5t-122.5 -360.5l803 14q16 0 16 18zM2050 932v-25q0 -303 112.5 -461.5t343.5 -158.5t386 139q76 68 121 162l30 -21q-74 -150 -217 -233.5t-329.5 -83.5t-326.5 78t-217 219t-77 327q0 276 171 445.5t452 169.5
q162 0 284.5 -60.5t190 -171t67.5 -256.5v-10q0 -25 -18.5 -42t-44.5 -17h-928zM37 0v18h72q74 0 91 17.5t17 91.5v1167q0 29 -18.5 47.5t-35.5 18.5h-22l-121 -10l-2 12l158 33q143 29 143 149v8h17v-268q0 -147 -4 -188h18q12 86 33 141q96 252 324 252q150 0 211 -71.5
t61 -198.5v-123h8q2 45 21.5 107.5t29.5 82.5q106 203 303 203q137 0 221.5 -71.5t84.5 -200.5v-607q0 -313 212 -504.5t558 -191.5q195 0 361.5 73.5t232.5 209.5l16 -9q-70 -143 -247 -222t-396 -79q-403 0 -650 221.5t-247 583.5v506q0 121 -45 188.5t-119 67.5
q-139 0 -225 -130t-86 -343v-854q0 -74 18.5 -91.5t91.5 -17.5h54v-18h-443v18h137v5q-18 18 -18 53v1122q0 121 -45 188.5t-119 67.5q-139 0 -225 -130t-86 -343v-854q0 -74 18.5 -91.5t91.5 -17.5h72v-18h-522z" />
    <glyph glyph-name="m_c" unicode="mc" horiz-adv-x="3063" 
d="M2497 1454q-215 0 -329 -144.5t-114 -429t119 -439t346 -154.5q150 0 276.5 75.5t178.5 204.5l35 -14q-39 -98 -116 -168q-148 -135 -378 -135q-287 0 -463 171t-176 449t175 448.5t462 170.5q221 0 375 -131q14 -14 22 -41l15 4q-4 20 -7 59l-4 150h19l18 -592l-37 -2
l-6 190q-8 135 -132 231.5t-279 96.5zM37 0v18h72q74 0 91 17.5t17 91.5v1167q0 29 -18.5 47.5t-35.5 18.5h-22l-121 -10l-2 12l158 33q88 17 124 77q19 32 19 72v8h17v-268q0 -147 -4 -188h18q12 86 33 141q96 252 324 252q157 0 214.5 -76.5t57.5 -193.5v-123h8
q1 46 21 108q89 285 333 285q186 0 266 -124q40 -62 40 -148v-607q0 -313 212 -504.5t558 -191.5q193 0 351.5 76t225.5 213l17 -8q-72 -145 -242 -226.5t-385 -81.5q-403 0 -650 221.5t-247 583.5v506q0 121 -45 188.5t-119 67.5q-139 0 -225 -130t-86 -343v-854
q0 -74 18.5 -91.5t91.5 -17.5h54v-18h-443v18h137v5q-18 18 -18 53v1122q0 121 -45 188.5t-119 67.5q-139 0 -225 -130t-86 -343v-854q0 -74 18.5 -91.5t91.5 -17.5h72v-18h-522z" />
    <glyph glyph-name="n_o" unicode="no" horiz-adv-x="2627" 
d="M1954 287q432 1 432 563q0 284 -114 443t-326 159t-322 -139q-111 -139 -111 -424t114 -443t327 -159zM1952 250q-276 0 -447 171q-170 171 -170 449t170 449q171 170 447 170t444 -170t168 -449q0 -280 -168 -450t-444 -170zM37 0v18h72q69 0 86 16q16 16 19 34
q3 20 3 59v1167q0 29 -18 47q-17 19 -35 19h-23l-121 -10l-2 12l158 33q66 12 109 51t43 98v8h16v-268q0 -178 -4 -215h14q6 55 33 133q45 131 147 209t246 78q146 0 236 -84t90 -225v-570q0 -312 212 -504t558 -192q267 0 454 126q95 65 140 157l16 -9q-70 -143 -247 -222
t-396 -79q-403 -1 -650 221t-247 582v455q0 309 -201 309q-160 0 -264 -139t-104 -361v-827q0 -74 18 -91t92 -18h72v-18h-522z" />
    <glyph glyph-name="n_e" unicode="ne" horiz-adv-x="2570" 
d="M1934 1452q-188 0 -300 -122q-111 -122 -123 -361l803 14q16 0 17 18q-1 203 -105 327t-292 124zM1509 932v-25q0 -303 113 -462t330 -158q180 0 315 80t205 221l31 -21q-74 -149 -217 -233t-334 -84q-276 0 -447 172q-170 172 -170 450t171 448t452 169q162 -1 285 -61
t191 -171t67 -256v-10q-1 -31 -23 -45t-41 -14h-928zM37 0v18h72q69 0 86 16q16 16 19 34q3 20 3 59v1167q0 29 -18 47q-17 19 -35 19h-23l-121 -10l-2 12l158 33q66 12 109 51t43 98v8h16v-268q0 -178 -4 -215h14q6 55 33 133q45 131 147 209t246 78q146 0 236 -84t90 -225
v-570q0 -312 212 -504t558 -192q267 0 454 126q95 65 140 157l16 -9q-70 -143 -247 -222t-396 -79q-403 -1 -650 221t-247 582v455q0 309 -201 309q-160 0 -264 -139t-104 -361v-827q0 -74 18 -91t92 -18h72v-18h-522z" />
    <glyph glyph-name="n_c" unicode="nc" horiz-adv-x="2523" 
d="M1956 1454q-215 0 -329 -144t-114 -429t119 -440t346 -154q150 -1 277 75t178 205l35 -14q-39 -98 -116 -168q-148 -135 -378 -135q-287 0 -463 171t-176 449t175 448t462 171q221 0 375 -131q14 -14 23 -41l14 4q-4 20 -6 59l-4 150h18l18 -592l-36 -2l-7 190
q-8 136 -132 232t-279 96zM37 0v18h72q69 0 86 16q16 16 19 34q3 20 3 59v1167q0 29 -18 47q-17 19 -35 19h-23l-121 -10l-2 12l158 33q66 12 109 51t43 98v8h16v-268q0 -178 -4 -215h14q6 55 33 133q45 131 147 209t246 78q146 0 236 -84t90 -225v-570q0 -312 212 -504
t558 -192q267 0 454 126q95 65 140 157l16 -9q-70 -143 -247 -222t-396 -79q-403 -1 -650 221t-247 582v455q0 309 -201 309q-160 0 -264 -139t-104 -361v-827q0 -74 18 -91t92 -18h72v-18h-522z" />
    <glyph glyph-name="L_A" unicode="LA" horiz-adv-x="2023" 
d="M1196 1372q0 -25 -25 -82l-499 -1145h-39l575 1328h158v-25q0 -74 18 -119l484 -1184q25 -74 48 -100t73 -27h16v-18h-391v18h158v5q-29 10 -64 96l-164 403h-532q85 -35 120 -147q9 -33 9 -53v-29l-33 -397l-21 2l9 120h-2q-18 -18 -56 -18h-1001v18h72q72 0 87 20
t18 42q3 20 3 61v1207q0 74 -17 90t-91 16h-72v19h522v-19h-72q-74 0 -92 -16t-18 -90v-1203q0 -61 -45 -106v-2h416q162 0 246 49t98 186l6 56v24q0 72 -43 118t-123 52h-25l13 35h610l-299 733q-16 37 -17 82h-18z" />
    <glyph glyph-name="L_Aogonek" unicode="L&#x104;" horiz-adv-x="2023" 
d="M2005 0h-43q-158 0 -235 -76t-76 -196q0 -68 43 -110t103 -42t130 23l10 -35q-92 -29 -147 -29q-104 0 -168 51q-63 51 -63 133q0 152 150 241q42 26 93 44v25q-66 25 -94 90l-164 403h-532q85 -35 120 -147q9 -33 9 -53v-29l-33 -397l-21 2l9 120h-2q-18 -18 -56 -18
h-1001v18h72q72 0 87 20t18 42q3 20 3 61v1207q0 74 -17 90t-91 16h-72v19h522v-19h-72q-74 0 -92 -16t-18 -90v-1203q0 -61 -45 -106v-2h416q162 0 246 49t98 186l6 56v24q0 72 -43 118t-123 52h-25l13 35h610l-299 733q-16 37 -17 82h-18q0 -25 -25 -82l-499 -1145h-39
l575 1328h158v-25q0 -74 18 -119l484 -1184q30 -76 45 -98t31 -25t45 -4h16v-18z" />
    <glyph glyph-name="R_Oacute" unicode="R&#xd3;" horiz-adv-x="2564" 
d="M37 0v18h72q74 0 91 18t17 91v1219q0 74 -17 91t-91 17h-72v19h534q246 0 396 -125q149 -126 149 -320t-123 -315t-311 -138l-41 -2v-12q104 -10 221 -139q223 -246 460 -352t460 -107q300 0 568 169q54 34 89 63l45 38l10 -14l-45 -39q-143 -124 -346 -200t-439 -76
t-482 108t-447 338q-115 147 -164 180t-86 33h-24v35h94q172 0 278 116q105 116 105 304t-105 303t-278 115h-213v-2q35 -35 35 -107v-1200q0 -74 18 -91t92 -18h119v-18h-569zM1907 287q432 1 432 563q0 284 -114 443t-326 159q-433 0 -433 -563q0 -285 114 -443t327 -159z
M1905 250q-276 0 -447 171q-170 171 -170 449t170 449q170 170 446 170t445 -170q168 -170 168 -449q0 -280 -168 -450t-444 -170zM1792 1550l-18 17l241 284q16 20 41 2l25 -20l-49 -61z" />
    <glyph glyph-name="L_I" unicode="Li" horiz-adv-x="1280" 
d="M37 0v18h72q72 0 90 24t18 99v1207q0 74 -17.5 90t-90.5 16h-72v19h481v-19h-31q-74 0 -92 -16.5t-18 -89.5v-1203q0 -61 -45 -106v-2h502q164 0 247.5 49t96.5 186l16 205h41l-41 -581l-20 2l8 120h-2q-18 -18 -56 -18h-1087zM621 328v18h51q74 0 91 16.5t17 90.5v895
q0 74 -17.5 90t-90.5 16h-31v19h451v-23h-41q-74 0 -92.5 -16.5t-18.5 -90.5v-890q0 -74 18.5 -90.5t92.5 -16.5h20v-18h-450z" />
    <glyph glyph-name="L_I_A" unicode="LIA" horiz-adv-x="2408" 
d="M1581 1372q0 -25 -25 -82l-499 -1145h-445v19h52q74 0 91 16t17 90v1078q0 74 -17 90t-91 16h-33v19h452v-23h-41q-41 0 -59 -2q-42 -5 -48 -46q-3 -19 -3 -59v-1179h94l567 1309h158v-25q0 -74 18 -119l484 -1184q25 -74 48 -100t73 -27h16v-18h-391v18h158v5
q-29 10 -64 96l-164 403h-502q89 -37 120 -147q9 -33 9 -53v-29l-32 -397l-21 2l8 120h-2q-18 -18 -55 -18h-1417v18h72q72 0 87 20t18 42q3 20 3 61v1207q0 74 -17 90t-91 16h-72v19h522v-19h-72q-74 0 -92 -16t-18 -90v-1203q0 -61 -45 -106v-2h831q162 0 246 49t98 186
l6 56v24q0 72 -43 118t-122 52h-25l12 35h580l-299 733q-16 37 -17 82h-18z" />
    <glyph glyph-name="afii10024_afii10080" unicode="&#x416;&#x43e;" horiz-adv-x="3143" 
d="M2470 287q432 1 432 563q0 284 -114 443t-326 159t-322 -139t-110 -424t113 -444q114 -158 327 -158zM2468 250q-276 0 -447 171q-170 171 -170 449t170 449q170 170 447 170q182 0 321 -77t215 -217t76 -325q0 -280 -168 -450t-444 -170zM631 0v18h71q74 0 92 20t17 107
v721h-12q-211 0 -292 -181q-38 -81 -55 -172q-18 -90 -28 -149t-25 -121t-32 -106q-17 -45 -30 -62t-31 -39q-47 -56 -150 -59q-82 0 -166 76l-27 21l12 14l27 -20q53 -41 89 -41q89 0 123 81q31 79 39 170t22 170q14 78 30 128q37 116 120 202q83 85 226 115l2 8l-325 412
q-60 73 -142 107t-159 34h-25v19h453v-19h-19q-106 0 -106 -55q0 -33 37 -78l323 -408q23 -29 121 -28v461q0 74 -17 91t-92 17h-20v19h418v-19h-19q-74 0 -92 -17t-18 -91v-461q74 0 94 8t29 20l323 408q37 45 37 78q0 55 -106 55h-19v19h453v-19h-25q-78 0 -160 -34
t-141 -107l-326 -412l3 -8q183 -40 342 -257q59 -79 113 -154t121 -164t121 -134q153 -128 229 -156q164 -61 299 -62q298 -2 578 169q54 33 87 60l45 38l10 -14l-45 -39q-125 -110 -321 -194t-404 -84q-283 0 -522 163q-159 108 -336 351q-67 92 -78 110q-45 59 -92 126
t-109 126t-105 73q-44 15 -81 15h-14v-721q0 -86 18 -106t92 -21h72v-18h-522z" />
    <glyph glyph-name="afii10024_afii10070" unicode="&#x416;&#x435;" horiz-adv-x="3143" 
d="M631 0v18h71q74 0 92 20t17 107v721h-12q-211 0 -292 -181q-38 -81 -55 -172q-18 -90 -39 -206q-41 -228 -111 -278q-160 -113 -312 24l-27 21l12 14l27 -20q53 -41 94 -41q75 0 106 55t41 134q11 79 25 187q40 311 220 426q69 43 163 64l2 8l-325 412q-60 73 -142 107
t-159 34h-25v19h453v-19h-19q-106 0 -106 -55q0 -33 37 -78l323 -408q23 -29 121 -28v461q0 74 -17 91t-92 17h-20v19h418v-19h-19q-74 0 -92 -17t-18 -91v-461q74 0 94 8t29 20l323 408q37 45 37 78q0 55 -106 55h-19v19h453v-19h-25q-78 0 -160 -34t-141 -107l-326 -412
l3 -8q191 -44 361 -282q261 -365 350 -439q138 -116 214 -144q165 -61 300 -62q298 -2 578 169q54 33 87 60l45 38l10 -14l-45 -39q-125 -110 -321 -194t-390 -84q-193 0 -385 77q-191 77 -371 291q-148 177 -213 279q-65 101 -99 139q-33 37 -64 71t-50 46q-19 13 -56 37
q-37 25 -99 24h-14v-721q0 -86 18 -106t92 -21h72v-18h-522zM2466 1452q-206 0 -316 -122t-122 -361l802 14q16 0 17 18q0 133 -47 235q-46 102 -134 160q-88 56 -200 56zM2025 932v-25q-1 -300 111 -460t332 -160q180 0 315 80t205 221l31 -21q-74 -149 -217 -233t-334 -84
q-276 0 -447 172q-170 172 -170 450t171 448q172 170 434 169q262 0 412 -134t149 -354v-10q-1 -25 -19 -42t-45 -17h-928z" />
    <glyph glyph-name="F_E" unicode="FE" horiz-adv-x="1857" 
d="M37 1473h1593q37 0 56 -19h2l-9 121l21 2l59 -909h-33l-12 163q-10 145 -83 211t-222 66h-299v-2q45 -45 45 -107v-403h82q104 0 163 43q58 43 58 176v92h19v-616h-19v51q0 133 -57 175t-164 42h-82v-414q0 -61 -45 -106v-2h336q152 -1 230 67t85 230l8 143h37l-37 -555
l-18 2l6 94h-2q-18 -18 -76 -18h-813v18h21q74 0 91 18t17 91v891q0 74 -17 91t-91 17h-31v19h778q35 0 54 -6l-5 61q-12 137 -96 186t-248 50h-1007v-2q45 -45 45 -107v-610h61q182 0 232 101q23 46 22 116v123h19v-678h-19v84q0 217 -254 217h-61v-555q0 -74 18 -90
t92 -17h21v-18h-471v18h72q74 0 91 16t17 91v1206q0 76 -18 100t-90 23h-72v19z" />
    <glyph glyph-name="F_F" unicode="FF" horiz-adv-x="1794" 
d="M815 0v18h72q74 0 91 18t17 91v891q0 74 -17 91t-91 17h-31v19h756q37 0 55 -19v13q-8 157 -109 227t-262 70h-964v-2q45 -45 45 -107v-610h61q182 0 232 101q23 46 22 116v123h19v-678h-19v84q0 106 -65 162q-66 55 -189 55h-61v-553q0 -74 18 -91t92 -18h134v-18h-584
v18h72q74 0 91 18t17 91v1219q0 74 -17 91t-91 17h-72v19h1569q37 0 55 -19h2l-8 139l18 2l60 -927h-37l-8 143q-8 157 -110 227t-261 70h-207v-2q45 -45 45 -107v-426h62q181 0 231 102q23 46 22 116v81h19v-596h-19v43q0 106 -65 162q-66 55 -188 56h-62v-410
q1 -74 19 -91t92 -18h133v-18h-584z" />
    <glyph glyph-name=".notdef" horiz-adv-x="659" 
d="M59 0v1210h484v-1210h-484zM121 59h360v1092h-360v-1092z" />
    <glyph glyph-name=".null" horiz-adv-x="0" 
 />
    <glyph glyph-name="nonmarkingreturn" horiz-adv-x="604" 
 />
    <glyph glyph-name="space" unicode=" " horiz-adv-x="544" 
 />
    <glyph glyph-name="exclam" unicode="!" horiz-adv-x="471" 
d="M145 71q0 41 24 67t66 26q41 0 67 -25t26 -67t-25 -66t-67 -24t-66 24q-25 24 -25 65zM164 1499q0 19 73 19t72 -19q-1 -201 -27 -541t-26 -540h-37q1 200 -27 540t-28 541z" />
    <glyph glyph-name="quotedbl" unicode="&#x22;" horiz-adv-x="417" 
d="M164 1515q0 -35 -12 -120l-17 -133l-63 4l20 293q29 -2 42 -5q30 -4 30 -39zM236 1266l20 293q52 -4 62 -15q10 -12 10 -38t-13 -111l-16 -133z" />
    <glyph glyph-name="numbersign" unicode="#" horiz-adv-x="944" 
d="M344 801l-31 -305h271l32 305h-272zM55 457v39h219l33 305h-217v41h219l35 329l39 -4l-35 -325h270l35 329l39 -4l-35 -325h234v-41h-238l-30 -305h231v-39h-236l-34 -344l-39 4l35 340h-271l-35 -344l-38 4l34 340h-215z" />
    <glyph glyph-name="dollar" unicode="$" horiz-adv-x="995" 
d="M774 398q0 125 -82 190q-65 52 -186 104v-588q124 10 196 90t72 204zM244 1132q0 -102 58 -160t169 -104v500q-111 -8 -169 -72q-58 -62 -58 -164zM506 -72h-35v138q-166 2 -324 110q-10 8 -28 31t-23 37l-8 -2q4 -16 8 -88l6 -129h-18l-27 559l37 2l4 -84
q8 -178 116 -289t255 -111h2v605q-3 2 -33 14t-87 36q-93 39 -170 112q-78 73 -80 210q-1 137 101 227t269 101v137h35v-137q150 0 270 -90q23 -16 33 -47l14 4q-4 16 -8 65l-6 109h20l23 -483l-37 -2l-4 86q-6 133 -85 227t-220 94v-518q14 -6 101 -41t118 -55l63 -42
t68 -63q72 -85 72 -207q0 -176 -111 -273t-311 -103v-140z" />
    <glyph glyph-name="percent" unicode="%" horiz-adv-x="1325" 
d="M375 1382q127 0 205 -78t78 -206q0 -127 -78 -205t-205 -78t-206 78t-79 205q0 128 79 206t206 78zM541 1085q0 260 -168 261q-164 0 -164 -248t166 -248q166 -1 166 235zM952 549q127 0 206 -78t79 -205t-79 -206q-79 -78 -206 -78q-126 0 -204 78t-78 206q0 127 78 205
t204 78zM1118 252q0 260 -166 260t-166 -233q0 -260 168 -261q164 1 164 234zM1143 1221l26 -25l-972 -1067l-27 25z" />
    <glyph glyph-name="ampersand" unicode="&#x26;" horiz-adv-x="1239" 
d="M549 1348q177 0 227 -86l4 2q-2 8 -2 34v43h19v-274h-19v33q-8 109 -73 160q-66 51 -162 51q-97 0 -159 -65t-62 -169t59 -186t151 -82h33v-37h-43q-139 0 -218 -102t-79 -274q-1 -172 101 -267q102 -96 272 -96t278 88t107 231q0 102 -64 180q-65 78 -167 78
q-76 -6 -118 -40t-42 -107v-10h-37v18q0 168 134 220q76 29 184 38t153 18q120 24 140 92q14 45 8 87h28l4 -56v-34q0 -144 -85 -186q-68 -34 -199 -36h-41q63 -40 102 -112t39 -156q0 -164 -129 -263t-345 -99t-350 110t-134 280t94 286q96 116 248 137v2q-80 14 -134 94
q-53 80 -53 169q0 176 157 251q75 35 173 35z" />
    <glyph glyph-name="quotesingle" unicode="'" horiz-adv-x="253" 
d="M164 1515q0 -35 -12 -120l-17 -133l-63 4l20 293q29 -2 42 -5q30 -4 30 -39z" />
    <glyph glyph-name="parenleft" unicode="(" horiz-adv-x="528" 
d="M217 563q0 -333 75 -617t210 -419l-27 -27q-193 194 -298 478t-105 589t103 584t300 475l27 -27q-135 -135 -210 -419t-75 -617z" />
    <glyph glyph-name="parenright" unicode=")" horiz-adv-x="528" 
d="M311 563q1 331 -73 617t-209 419l26 27q197 -196 299 -474t102 -584t-104 -592q-106 -286 -297 -476l-26 27q204 204 264 720q18 155 18 316z" />
    <glyph glyph-name="asterisk" unicode="*" horiz-adv-x="544" 
d="M246 1300v7l-4 -2l-170 84q-4 2 -4 6l22 41h8q8 -4 79 -54t79 -53l2 -4l4 2l-4 4l-12 191q2 4 4 6h47l2 -6l-12 -191l-4 -4l4 -2l2 4q8 4 80 53t80 54h6l22 -41l-2 -6l-172 -84l-4 2v-7h4l172 -81q2 -2 2 -7l-22 -41h-6q-8 3 -80 53t-80 54l-2 4l-4 -2l4 -4l12 -191
q0 -4 -2 -6h-47l-4 6l12 191l4 4l-4 2l-2 -4q-8 -4 -79 -53t-79 -54h-8l-22 41l4 7l170 81h4z" />
    <glyph glyph-name="plus" unicode="+" horiz-adv-x="888" 
d="M477 674h359l-5 -56h-354v-358l-55 4v354h-367l2 56h365v370l55 -2v-368z" />
    <glyph glyph-name="comma" unicode="," horiz-adv-x="399" 
d="M123 -166q41 0 75 34t42 79l8 45l-6 4q-10 -14 -41 -14q-92 0 -92 91t92 91q41 0 65 -26t25 -66q0 -115 -46 -186t-122 -70v18z" />
    <glyph glyph-name="hyphen" unicode="-" horiz-adv-x="581" 
d="M537 563h-500l8 55h502z" />
    <glyph glyph-name="period" unicode="." horiz-adv-x="399" 
d="M200 164q42 0 66 -25t25 -67q0 -42 -24 -66q-23 -24 -65 -24t-68 24t-26 65t26 67q24 26 66 26z" />
    <glyph glyph-name="slash" unicode="/" horiz-adv-x="999" 
d="M37 -352l878 1855l48 -24l-877 -1856z" />
    <glyph glyph-name="zero" unicode="0" horiz-adv-x="1112" 
d="M557 1489q221 0 357 -207t136 -546t-136 -546q-136 -206 -357 -206t-357 206t-136 546q0 339 136 546t357 207zM553 1452q-336 0 -336 -679q0 -349 89 -551t257 -202q334 0 334 680q0 350 -89 550q-89 202 -255 202z" />
    <glyph glyph-name="one" unicode="1" horiz-adv-x="649" 
d="M629 0h-609v18h132q74 0 92 20t18 107v959q0 76 6 119l-8 4q-25 -37 -51 -64l-137 -155l-15 10l80 100q244 311 244 371h27v-1344q0 -86 17 -106t91 -21h113v-18z" />
    <glyph glyph-name="two" unicode="2" horiz-adv-x="948" 
d="M72 0v123q20 2 75 42t99 97q217 287 336 501q118 214 118 373q-1 316 -256 316q-120 0 -192 -80t-88 -194v-70h-35v360h18v-88q121 109 299 109q178 -1 289 -103t111 -252t-94 -317q-94 -168 -217 -306q-123 -137 -247 -255t-143 -129l7 -10q72 10 118 10h301
q162 0 230 37t76 168l4 59l22 -2l-22 -389h-809z" />
    <glyph glyph-name="three" unicode="3" horiz-adv-x="962" 
d="M672 1180q0 272 -256 272q-126 0 -194 -83q-67 -83 -75 -200v-67h-34v366h18v-82l6 -2q16 29 45 43q96 57 236 62q172 0 276 -83t104 -208t-74 -226q-75 -101 -173 -120v-2q147 -20 243 -152t97 -309q0 -176 -130 -291t-343 -114q-86 0 -180 38t-166 111v256h37v-63
q10 -119 92 -212q81 -94 227 -94t228 98t81 283q0 187 -84 307t-221 119h-186v37h155q121 0 196 91t75 225z" />
    <glyph glyph-name="four" unicode="4" horiz-adv-x="999" 
d="M655 362v492h146v-492h129v-71h-129v-146q0 -86 20 -106t107 -21h35v-18h-531v18h94q86 0 108 20t21 107v146h-618v45l90 173q112 215 165 338q204 470 208 562q0 43 -80 43v21q143 0 190 13t76 68l12 -4l-604 -1188h561z" />
    <glyph glyph-name="five" unicode="5" horiz-adv-x="962" 
d="M147 1473h547q76 0 96 15q19 15 27 83v12l21 -2l-15 -235h-526q-91 0 -109 -16t-24 -101l-25 -350q125 82 279 82q215 -1 344 -131t129 -350t-131 -358t-342 -138q-88 2 -184 41t-162 110v254h37v-63q4 -111 89 -208q84 -98 230 -98t228 116t81 337q0 221 -82 336
q-81 115 -241 115t-279 -95h-35l37 574q4 70 10 70z" />
    <glyph glyph-name="six" unicode="6" horiz-adv-x="999" 
d="M772 451q0 212 -61 326t-177 114t-206 -124q-92 -124 -95 -308q33 -439 277 -439q122 0 192 110t70 321zM846 1133h-19v28q-23 119 -92 205q-70 86 -198 86q-147 0 -229 -214t-83 -546h8q45 115 129 175t183 61q172 0 277 -132q106 -132 106 -348t-117 -340t-311 -124
t-311 189t-117 529t128 563q128 224 337 224q69 0 132 -27t95 -50q31 -23 55 -45q23 -22 27 -24v-210z" />
    <glyph glyph-name="seven" unicode="7" horiz-adv-x="925" 
d="M455 0h-146v98q0 301 158 675t274 515q37 45 58 53l-2 13q-23 -8 -152 -8h-452q-77 0 -97 -16t-24 -83l-9 -114h-20l23 340h825v-103q-27 -8 -76 -66t-111 -167t-118 -243q-55 -134 -93 -314t-38 -359v-221z" />
    <glyph glyph-name="eight" unicode="8" horiz-adv-x="1052" 
d="M526 -16q-206 0 -330 120t-124 300t95 303t245 143v2q-100 18 -173 110t-73 222q0 128 99 216t262 89q163 0 263 -88q100 -87 99 -217q0 -130 -74 -222t-174 -110v-2q150 -20 245 -143t95 -303t-125 -300t-330 -120zM526 1452q-233 0 -233 -291q0 -143 59 -220t174 -77
t175 77q61 77 61 220t-60 217t-176 74zM227 422q0 -198 77 -300t223 -102q145 0 223 102t78 300q0 197 -77 301t-223 104t-224 -104q-77 -104 -77 -301z" />
    <glyph glyph-name="nine" unicode="9" horiz-adv-x="999" 
d="M227 1021q-1 -212 61 -326q62 -113 177 -113t207 124t94 308q-32 438 -276 438q-122 0 -193 -110q-70 -110 -70 -321zM154 340h18v-29q22 -119 92 -205t199 -86q147 0 229 214t82 546h-8q-45 -115 -129 -175t-182 -60q-172 0 -278 132q-105 132 -105 348t116 340
q117 124 311 124q193 1 311 -189t118 -529t-128 -563t-337 -224q-68 0 -138 28q-71 30 -147 98q-20 18 -24 19v211z" />
    <glyph glyph-name="colon" unicode=":" horiz-adv-x="399" 
d="M200 883q42 0 66 -25q24 -24 25 -66q0 -42 -24 -67q-23 -25 -65 -25t-68 24t-26 66t26 68q24 26 66 25zM200 164q42 0 66 -25t25 -67q0 -42 -24 -66q-23 -24 -65 -24t-68 24t-26 65t26 67q24 26 66 26z" />
    <glyph glyph-name="semicolon" unicode=";" horiz-adv-x="399" 
d="M291 72q0 -115 -46 -186t-122 -70v37q39 1 69 33t33 58q4 26 15 48l-7 4q-10 -14 -32 -14q-92 0 -92 91t92 91q41 0 65 -26t25 -66zM200 883q42 0 66 -25q24 -24 25 -66q0 -42 -24 -67q-23 -25 -65 -25t-68 24t-26 66t26 68q24 26 66 25z" />
    <glyph glyph-name="less" unicode="&#x3c;" horiz-adv-x="761" 
d="M627 1133l71 -74l-460 -307q-147 -98 -170 -103v-8q23 -4 170 -102l460 -308l-71 -73l-596 475v24z" />
    <glyph glyph-name="equal" unicode="=" horiz-adv-x="944" 
d="M864 471h-792l8 55h790zM864 762h-792l8 55h790z" />
    <glyph glyph-name="greater" unicode="&#x3e;" horiz-adv-x="761" 
d="M135 1133l596 -476v-24l-596 -475l-72 73l461 312q141 94 160 98v8q-18 4 -160 99l-461 311z" />
    <glyph glyph-name="question" unicode="?" horiz-adv-x="825" 
d="M102 1120h-36v393h20v-79q113 90 268 94q182 0 294 -90t112 -234t-137 -280q-57 -58 -115 -112q-138 -129 -139 -212v-182h-56v182q0 115 103 249q43 55 86 111q102 132 102 240q0 272 -248 273q-136 0 -192 -85q-41 -63 -62 -184v-84zM343 164q40 0 65 -25
q24 -25 24 -67t-24 -66t-65 -24q-42 0 -68 24q-25 24 -25 64q0 42 26 68t67 26z" />
    <glyph glyph-name="at" unicode="@" horiz-adv-x="1759" 
d="M936 1186q-94 0 -165 -46t-112 -123q-81 -152 -81 -330q0 -177 54 -272t141 -95t172 92q85 94 118 243l51 490q-84 41 -178 41zM1190 489q0 -79 28 -125t76 -47q147 0 251 161q103 161 104 388q0 133 -58 255q-114 244 -383 348q-133 52 -278 53q-224 0 -412 -104
t-298 -285q-110 -179 -110 -393t98 -395q97 -181 265 -287t365 -105q127 0 252 45t198 121l27 -27q-78 -80 -211 -128t-266 -48q-207 0 -383 111t-279 301q-102 190 -102 412t114 411q115 188 313 298t416 110q218 -1 392 -93t275 -252t102 -348q0 -242 -117 -414t-281 -171
q-72 0 -126 60t-79 179h-14q-43 -100 -122 -171t-187 -70q-137 0 -234 111q-96 112 -96 298t86 325q130 206 406 210q125 0 237 -58q45 1 63 19t29 67l6 56l21 -4l-8 -70v-2l-74 -672q-6 -68 -6 -70z" />
    <glyph glyph-name="A" unicode="A" horiz-adv-x="1552" 
d="M725 1372q0 -25 -25 -82l-372 -854h780l-348 854q-16 37 -17 82h-18zM16 0v18h33q57 0 113 127l575 1328h158v-25q0 -74 18 -119l484 -1184q39 -94 58 -110t63 -17h16v-18h-391v18h157v5q-29 10 -63 96l-115 280h-811l-110 -254q-27 -69 16 -105q27 -22 72 -22h100v-18
h-373z" />
    <glyph glyph-name="B" unicode="B" horiz-adv-x="1212" 
d="M37 0v20h72q74 0 91 17.5t17 91.5v1217q0 74 -17.5 91t-90.5 17h-72v19h500q219 0 352 -85t133 -225q0 -94 -81 -181t-214 -105v-9q193 -14 322 -147t129 -308t-162 -294t-404 -119h-575zM342 37h233q190 0 307 106.5t117 286.5t-122.5 299t-313.5 119h-108v35h82
q135 0 223 77.5t88 200.5t-93 199t-247 76h-166v-2q35 -35 35 -107v-1182q0 -70 -35 -104v-4z" />
    <glyph glyph-name="C" unicode="C" horiz-adv-x="1335" 
d="M72 739q0 338 196.5 544t517.5 206q221 0 375 -131q14 -14 23 -41l14 4q-4 20 -6 59l-4 150h18l19 -592l-37 -2l-6 190q-8 135 -132 231.5t-280 96.5q-252 0 -384 -174t-132 -523.5t138 -543t401 -193.5q150 0 276.5 76t177.5 205l35 -14q-57 -147 -191.5 -225
t-302.5 -78q-322 0 -519 208.5t-197 546.5z" />
    <glyph glyph-name="D" unicode="D" horiz-adv-x="1480" 
d="M37 0v18h72q74 0 91 17.5t17 91.5v1200q0 78 -18.5 102.5t-89.5 24.5h-72v19h577q360 0 580.5 -202t220.5 -533.5t-220 -534.5t-581 -203h-577zM342 37h217q332 0 506 179t174 520t-174 520.5t-506 179.5h-217v-2q35 -35 35 -97v-1202q0 -61 -35 -96v-2z" />
    <glyph glyph-name="E" unicode="E" horiz-adv-x="1130" 
d="M698 422h-18v113q0 133 -58.5 176t-162.5 43h-82v-609q0 -61 -45 -106v-2h407q150 0 222.5 65.5t82.5 210.5l13 164h33l-35 -555l-19 2l6 94h-2q-18 -18 -75 -18h-928v18h72q74 0 91 17.5t17 91.5v1219q0 74 -17.5 91t-90.5 17h-72v19h817q57 0 76 -19h2l-6 94l18 2
l37 -555h-37l-8 144q-8 162 -85 229.5t-230 67.5h-289v-2q45 -45 45 -107v-536h82q106 0 163.5 41.5t57.5 175.5v71h18v-657z" />
    <glyph glyph-name="F" unicode="F" horiz-adv-x="1036" 
d="M37 0v18h72q74 0 91 17.5t17 91.5v1219q0 74 -17.5 91t-90.5 17h-72v19h852q37 0 55 -19h2l-8 139l18 2l39 -600h-37l-8 144q-8 156 -108.5 226.5t-261.5 70.5h-248v-2q45 -45 45 -107v-610h82q181 0 231 101q22 46 23 116v123h18v-678h-18v84q0 106 -65.5 161.5
t-188.5 55.5h-82v-553q0 -74 18.5 -91.5t91.5 -17.5h134v-18h-584z" />
    <glyph glyph-name="G" unicode="G" horiz-adv-x="1486" 
d="M1307 -82h-19v143q-2 39 -25.5 70t-55.5 31t-60 -29q-139 -150 -365 -149q-322 0 -518 207.5t-196 546.5t193.5 545t508.5 206q221 0 375 -129q14 -12 22 -39l9 2q-6 25 -7 47l-10 199l21 2l32 -631l-34 -2l-9 135q-10 174 -133 276.5t-286 102.5q-246 0 -375 -173
t-129 -523t139 -543t406 -193q231 4 354 168v269q0 86 -52.5 138t-138.5 52h-237v37h764v-37h-174v-729z" />
    <glyph glyph-name="H" unicode="H" horiz-adv-x="1314" 
d="M37 0v18h72q72 0 90 25t18 102v1182q0 78 -18.5 102.5t-89.5 24.5h-72v19h504v-19h-54q-72 0 -91 -24.5t-19 -102.5v-534h561v534q0 78 -19.5 102.5t-91.5 24.5h-53v19h506v-19h-74q-72 0 -90 -24.5t-18 -102.5v-1182q0 -78 18.5 -102.5t89.5 -24.5h74v-18h-506v18h55
q72 0 90.5 25t18.5 102v611h-561v-611q0 -78 19.5 -102.5t90.5 -24.5h54v-18h-504z" />
    <glyph glyph-name="I" unicode="I" horiz-adv-x="593" 
d="M37 0v18h72q74 0 91 16.5t17 90.5v1223q0 74 -17.5 90t-90.5 16h-72v19h522v-23h-72q-74 0 -92 -16.5t-18 -90.5v-1218q0 -74 18.5 -90.5t91.5 -16.5h72v-18h-522z" />
    <glyph glyph-name="J" unicode="J" horiz-adv-x="831" 
d="M68 242q0 -98 66.5 -158.5t176.5 -60.5q164 0 164 217v1157q0 35 19 53v4h-283v19h586v-19h-54q-109 0 -108 -108v-1014q0 -154 -91 -250q-92 -96 -222 -96t-201.5 70.5t-71.5 185.5h19z" />
    <glyph glyph-name="K" unicode="K" horiz-adv-x="1200" 
d="M37 0v18h72q74 0 91 20.5t17 106.5v1201q0 74 -17.5 91t-90.5 17h-72v19h469v-19h-19q-74 0 -92 -17.5t-18 -90.5v-461q111 0 133 28l324 408q37 45 36 78q0 55 -106 55h-19v19h453v-19h-24q-78 0 -160 -34t-142 -107l-325 -412l2 -8q186 -39 272 -168q71 -105 101 -258
q11 -60 22 -158q20 -166 53.5 -224t104.5 -58q43 0 96 41l27 20l12 -14l-27 -21q-84 -76 -166 -76q-121 0 -177 94q-57 97 -108 395q-31 185 -95 271q-26 35 -61 67q-70 62 -202 62h-24v-721q0 -86 16.5 -103t36 -20.5t57.5 -3.5h72v-18h-522z" />
    <glyph glyph-name="L" unicode="L" horiz-adv-x="1054" 
d="M37 0v18h72q72 0 90 24t18 99v1207q0 74 -17.5 90t-90.5 16h-72v19h522v-19h-72q-74 0 -92 -16.5t-18 -89.5v-1203q0 -61 -45 -106v-2h276q164 0 248 49t96 186l17 205h41l-41 -581l-21 2l8 120h-2q-18 -18 -55 -18h-862z" />
    <glyph glyph-name="M" unicode="M" horiz-adv-x="1847" 
d="M1452 1303h-12q0 -8 -33 -84l-551 -1227l-6 -15h-4l-549 1219q-23 49 -23 86h-8q0 -33 -2 -70l-51 -1075q-2 -43 -2 -47q0 -39 24.5 -55.5t104.5 -16.5h74v-18h-396v18h33q76 0 99.5 29t27.5 117l55 1182q2 35 2.5 57.5t-19 36.5t-83.5 14h-82v19h301l531 -1174
q31 -68 30 -88h11q0 27 28 88l531 1174h307v-19h-70q-70 0 -92 -20.5t-22 -69.5q0 -8 2 -55l47 -1145q4 -91 21.5 -112t42 -27.5t67.5 -6.5h45v-18h-535v18h74q78 0 102.5 18.5t24.5 59.5l-2 26v11l-41 1079q-2 37 -2 91z" />
    <glyph glyph-name="N" unicode="N" horiz-adv-x="1191" 
d="M399 0h-362v18h53q74 0 92.5 17.5t18.5 91.5v1219q0 74 -18.5 91t-92.5 17h-53v19h313l561 -1033q37 -63 37 -75h13q-2 23 -3 86v874q0 74 -28.5 101.5t-102.5 27.5h-92v19h422v-19h-33q-74 0 -102.5 -27.5t-28.5 -101.5v-1364h-16q0 20 -57 127l-635 1153q-41 78 -41 80
h-11q2 -23 3 -88v-1106q0 -74 18 -91.5t92 -17.5h53v-18z" />
    <glyph glyph-name="O" unicode="O" horiz-adv-x="1642" 
d="M825 20q283 0 429.5 174.5t146.5 522.5t-150.5 541.5t-433.5 193.5t-429 -174t-146 -522.5t150 -542t433 -193.5zM822 -16q-341 0 -550 206.5t-209 545.5t209 546t550 207t549 -207t208 -546t-208 -545.5t-549 -206.5z" />
    <glyph glyph-name="P" unicode="P" horiz-adv-x="1120" 
d="M37 0v18h72q74 0 91 17.5t17 91.5v1219q0 74 -17.5 91t-90.5 17h-72v19h516q231 0 372.5 -124t141.5 -327t-141.5 -326t-372.5 -123h-176v-446q0 -74 18.5 -91.5t91.5 -17.5h52v-18h-502zM342 1434v-11q35 -47 35 -127v-686h115q195 0 296 105.5t101 306.5t-101.5 306.5
t-295.5 105.5h-150z" />
    <glyph glyph-name="Q" unicode="Q" horiz-adv-x="1646" 
d="M674 -193q-47 0 -67.5 -24.5t-20.5 -54t17.5 -52t47.5 -26.5l-6 -37q-51 8 -76.5 40t-25.5 75q0 90 90 151q29 19 129 65q368 172 520 428q116 196 115 416q0 324 -148.5 494t-431.5 170q-373 0 -503 -300q-64 -148 -64 -372.5t117.5 -417t355.5 -296.5l-39 -21
q-295 100 -453.5 301t-158.5 442q0 315 206.5 508t545.5 193t545 -192.5t206 -508.5q0 -453 -627 -790q-59 -31 -163.5 -79t-131.5 -69q49 0 239 -45q563 -133 886 -133q379 0 536 172l13 -12q-289 -322 -670 -321q-143 0 -308 47t-282 102t-231.5 101t-161.5 46z" />
    <glyph glyph-name="R" unicode="R" horiz-adv-x="1261" 
d="M37 0v18h72q74 0 91 17.5t17 91.5v1219q0 74 -17.5 91t-90.5 17h-72v19h534q246 0 395.5 -125t149.5 -319.5t-123 -315.5t-311 -138l-41 -2v-12q147 -16 227 -141l103 -162q4 -6 22.5 -37t26.5 -43t26 -38q68 -93 122 -93q34 0 63 25l45 39l10 -15l-45 -39
q-179 -151 -306 -12q-52 57 -104 139l-143 222q-57 88 -98 122.5t-105 34.5h-24v35h94q186 0 284.5 107.5t98.5 311.5t-98.5 311.5t-284.5 107.5h-213v-2q35 -35 35 -107v-1200q0 -74 18.5 -91.5t91.5 -17.5h119v-18h-569z" />
    <glyph glyph-name="S" unicode="S" horiz-adv-x="978" 
d="M467 20q192 0 269 142q38 70 38 163t-50 164.5t-125 119.5t-162 104.5t-161.5 110t-125 140.5t-50.5 193q0 150 111 241t278 91t287 -90q23 -16 33 -47l14 4q-4 16 -8 65l-6 109h20l23 -483l-37 -3l-4 86q-6 133 -85 227.5t-213 94.5t-201.5 -64.5t-67.5 -195t136 -232.5
q60 -46 133 -88q185 -109 279 -194q136 -124 136 -311t-121 -285t-336 -98q-164 0 -324 110q-37 27 -51 68l-8 -2q4 -16 8 -88l6 -129h-18l-27 559l37 2l4 -84q8 -178 114.5 -289t254.5 -111z" />
    <glyph glyph-name="T" unicode="T" horiz-adv-x="1101" 
d="M209 0v18h156q74 0 91 17.5t17 91.5v1309h-123q-146 0 -207 -45t-69 -191l-6 -84l-37 2l30 475l23 -2l-10 -118h954l-10 116l22 2l31 -473l-37 -2l-6 84q-10 143 -67.5 189.5t-208.5 46.5h-119v-1309q0 -74 17.5 -91.5t90.5 -17.5h152v-18h-684z" />
    <glyph glyph-name="U" unicode="U" horiz-adv-x="1187" 
d="M37 1473h522v-19h-90q-74 0 -91.5 -17.5t-17.5 -90.5v-1084q0 -118 64 -180t206 -62t229 81t87 235v973q0 80 -23.5 112.5t-93.5 32.5h-75v19h399v-19h-53q-70 0 -93.5 -32.5t-23.5 -112.5v-973q0 -172 -96 -262q-95 -90 -279 -90t-295.5 97t-111.5 255v1010
q0 74 -18.5 91t-92.5 17h-53v19z" />
    <glyph glyph-name="V" unicode="V" horiz-adv-x="1523" 
d="M18 1473h406v-19h-158v-4q35 -12 64 -94l471 -1141q16 -49 16 -74h27q0 35 20 82l459 1104q14 31 14 57q0 70 -100 70h-176v19h446v-19h-24q-47 0 -65.5 -21.5t-35 -59t-18.5 -46.5l-541 -1337l-110 -8l-543 1345q-42 112 -76 122q-18 5 -45 5h-31v19z" />
    <glyph glyph-name="W" unicode="W" horiz-adv-x="2213" 
d="M18 1473h295v-29q0 -39 15 -88l424 -1141q12 -37 12 -74h20q0 27 15 74l293 975l-41 137q-23 76 -45.5 101.5t-75.5 25.5h-47v19h458v-19h-194v-4q41 -14 63 -94l342 -1141q12 -49 13 -74h28q0 31 19 80l403 1108q14 37 15 60q0 66 -103 65h-78v19h349v-19h-31
q-45 0 -66.5 -27.5t-46.5 -99.5l-485 -1335l-115 -10l-344 1142l-340 -1134l-115 -8l-487 1345q-25 80 -45.5 103.5t-73.5 23.5h-31v19z" />
    <glyph glyph-name="X" unicode="X" horiz-adv-x="1175" 
d="M37 0v16h18q63 0 98 32t87 130l280 547l-266 569q-43 94 -79 127t-81 33h-22v19h350v-19h-111v-4q59 -26 105 -113l225 -483l242 446q45 82 45 113q0 41 -92 41h-72v19h342v-19h-25q-45 0 -74.5 -30.5t-84.5 -129.5l-260 -483l294 -633q38 -75 67.5 -112t44.5 -42.5
t38 -5.5h35v-18h-475v18h43q109 0 108 52q0 31 -39 100l-239 514l-258 -506q-43 -84 -43 -113t22.5 -39t73.5 -10h69v-16h-366z" />
    <glyph glyph-name="Y" unicode="Y" horiz-adv-x="1177" 
d="M236 0v16h176q74 0 91 17.5t17 91.5v569l-321 619q-6 12 -21.5 41.5t-19.5 37.5q-30 63 -95 64h-43v17h388v-17h-127v-4q18 -6 35.5 -31.5t48.5 -83.5l264 -503q23 -41 26 -66h15q2 18 26 66l246 475q31 57 31 90q0 57 -88 57h-123v17h395v-17h-35q-54 0 -90 -58
q-14 -24 -47 -87l-303 -586v-600q0 -74 17.5 -91.5t91.5 -17.5h151v-16h-706z" />
    <glyph glyph-name="Z" unicode="Z" horiz-adv-x="1064" 
d="M0 0v18q27 0 69 41t78 119l537 1127q23 47 66 81.5t81 45.5v6h-401q-156 0 -222.5 -47.5t-74.5 -192.5l-2 -41l-14 2l22 434l15 -2l-7 -137q18 18 54 19h796v-19q-23 0 -62.5 -40t-78.5 -120l-537 -1122q-43 -88 -98 -129v-6h469q154 0 217.5 44t71.5 179l4 76l21 -2
l-25 -436l-21 2l7 116h-2q-16 -16 -50 -16h-913z" />
    <glyph glyph-name="bracketleft" unicode="[" horiz-adv-x="434" 
d="M418 1599v-36h-236v-2q35 -35 35 -107v-1782q0 -70 -35 -104v-4h236v-37h-355v10q8 82 9 170v1892h346z" />
    <glyph glyph-name="backslash" unicode="\" horiz-adv-x="999" 
d="M963 -352l-48 -25l-878 1856l49 24z" />
    <glyph glyph-name="bracketright" unicode="]" horiz-adv-x="434" 
d="M16 1599h346v-1892q0 -88 9 -170v-10h-355v37h236v4q-35 35 -35 104v1782q0 72 35 107v2h-236v36z" />
    <glyph glyph-name="asciicircum" unicode="^" horiz-adv-x="753" 
d="M55 1012l320 313h6l319 -313l-61 -64l-164 191q-80 86 -92 147h-10q-12 -61 -92 -147l-166 -191z" />
    <glyph glyph-name="underscore" unicode="_" horiz-adv-x="835" 
d="M836 -291h-836v55h836v-55z" />
    <glyph glyph-name="grave" unicode="`" horiz-adv-x="362" 
d="M99 1425q7 0 18 -10l200 -239l-28 -25l-219 172l-27 31q-6 10 -6 19t10 18l33 26q12 8 19 8z" />
    <glyph glyph-name="a" unicode="a" horiz-adv-x="1103" 
d="M760 709h-150q-172 0 -276.5 -107.5t-104.5 -282.5q0 -127 64.5 -203.5t176.5 -76.5t201 109.5t89 314.5v246zM842 -2q0 51 -19.5 169t-19.5 148h-21q-82 -332 -344 -331q-168 0 -277.5 93t-109.5 242q0 193 150.5 309.5t398.5 116.5h160v439q0 268 -242 268
q-147 0 -229 -77t-88 -201l-6 -127h-37l22 483h21l-6 -109q-4 -49 -9 -65l15 -4q10 31 32 47q121 90 301.5 90t285 -85t104.5 -247v-1012q0 -63 11 -83.5t56 -20.5l41 2l35 2l2 -18q-127 -12 -227 -45v16z" />
    <glyph glyph-name="b" unicode="b" horiz-adv-x="1212" 
d="M37 0v20h72q74 0 91 17.5t17 91.5v1217q0 74 -17.5 91t-90.5 17h-72v19h500q219 0 352 -85t133 -225q0 -94 -81 -181t-214 -105v-9q193 -14 322 -147t129 -308t-162 -294t-404 -119h-575zM342 37h233q190 0 307 106.5t117 286.5t-122.5 299t-313.5 119h-108v35h82
q135 0 223 77.5t88 200.5t-93 199t-247 76h-166v-2q35 -35 35 -107v-1182q0 -70 -35 -104v-4z" />
    <glyph glyph-name="c" unicode="c" horiz-adv-x="1335" 
d="M72 739q0 338 196.5 544t517.5 206q221 0 375 -131q14 -14 23 -41l14 4q-4 20 -6 59l-4 150h18l19 -592l-37 -2l-6 190q-4 90 -64.5 166t-154 119t-193.5 43q-252 0 -384 -174t-132 -523.5t138 -543t401 -193.5q150 0 276.5 76t177.5 205l35 -14q-57 -147 -191.5 -225
t-302.5 -78q-322 0 -519 208.5t-197 546.5z" />
    <glyph glyph-name="d" unicode="d" horiz-adv-x="1480" 
d="M37 0v18h72q74 0 91 17.5t17 91.5v1200q0 78 -18.5 102.5t-89.5 24.5h-72v19h577q360 0 580.5 -202t220.5 -533.5t-220 -534.5t-581 -203h-577zM342 37h217q332 0 506 179t174 520t-174 520.5t-506 179.5h-217v-2q35 -35 35 -97v-1202q0 -61 -35 -96v-2z" />
    <glyph glyph-name="e" unicode="e" horiz-adv-x="1542" 
d="M1292 868q0 262 -132 423t-349 161q-262 0 -406.5 -157.5t-156.5 -458.5l1028 14q16 0 16 18zM246 799v-25q0 -362 154.5 -558t420.5 -196q205 0 362.5 83t248.5 235l28 -23q-96 -158 -263 -244.5t-382 -86.5q-326 0 -539 209.5t-213 546.5t208 543t548 206
q274 0 465 -174t191 -447v-10q0 -25 -18.5 -42t-45.5 -17h-1165z" />
    <glyph glyph-name="f" unicode="f" horiz-adv-x="1036" 
d="M37 0v18h72q74 0 91 17.5t17 91.5v1219q0 74 -17.5 91t-90.5 17h-72v19h852q37 0 55 -19h2l-8 139l18 2l39 -600h-37l-8 144q-8 156 -108.5 226.5t-261.5 70.5h-248v-2q45 -45 45 -107v-610h82q181 0 231 101q22 46 23 116v123h18v-678h-18v84q0 106 -65.5 161.5
t-188.5 55.5h-82v-553q0 -74 18.5 -91.5t91.5 -17.5h134v-18h-584z" />
    <glyph glyph-name="g" unicode="g" horiz-adv-x="1486" 
d="M1307 -82h-19v143q-2 39 -25.5 70t-55.5 31t-60 -29q-139 -150 -365 -149q-322 0 -518 207.5t-196 546.5t193.5 545t508.5 206q221 0 375 -129q14 -12 22 -39l9 2q-6 25 -7 47l-10 199l21 2l32 -631l-34 -2l-9 135q-10 174 -133 276.5t-286 102.5q-246 0 -375 -173
t-129 -523t139 -543t406 -193q231 4 354 168v269q0 86 -52.5 138t-138.5 52h-237v37h764v-37h-174v-729z" />
    <glyph glyph-name="h" unicode="h" horiz-adv-x="1314" 
d="M37 0v18h72q72 0 90 25t18 102v1182q0 78 -18.5 102.5t-89.5 24.5h-72v19h504v-19h-54q-72 0 -91 -24.5t-19 -102.5v-534h561v534q0 78 -19.5 102.5t-91.5 24.5h-53v19h506v-19h-74q-72 0 -90 -24.5t-18 -102.5v-1182q0 -78 18.5 -102.5t89.5 -24.5h74v-18h-506v18h55
q72 0 90.5 25t18.5 102v611h-561v-611q0 -78 19.5 -102.5t90.5 -24.5h54v-18h-504z" />
    <glyph glyph-name="i" unicode="i" horiz-adv-x="579" 
d="M37 0v18h72q74 0 91 16.5t17 90.5v1223q0 74 -17.5 90t-90.5 16h-72v19h522v-23h-72q-74 0 -92 -16.5t-18 -90.5v-1218q0 -74 18.5 -90.5t91.5 -16.5h72v-18h-522z" />
    <glyph glyph-name="j" unicode="j" horiz-adv-x="831" 
d="M68 242q0 -98 66.5 -158.5t176.5 -60.5q164 0 164 217v1157q0 35 19 53v4h-283v19h586v-19h-54q-109 0 -108 -108v-1014q0 -154 -91 -250q-92 -96 -222 -96t-201.5 70.5t-71.5 185.5h19z" />
    <glyph glyph-name="k" unicode="k" horiz-adv-x="1200" 
d="M37 0v18h72q74 0 91 20.5t17 106.5v1201q0 74 -17.5 91t-90.5 17h-72v19h469v-19h-19q-74 0 -92 -17.5t-18 -90.5v-461q111 0 133 28l324 408q37 45 36 78q0 55 -106 55h-19v19h453v-19h-24q-78 0 -160 -34t-142 -107l-325 -412l2 -8q186 -39 272 -168q71 -105 101 -258
q19 -115 23.5 -156t11 -79.5t12.5 -67.5q28 -137 127 -137q49 0 102 41l27 20l12 -14l-27 -21q-84 -76 -173 -76t-136.5 53.5t-61.5 91.5t-21 59.5t-16 62.5t-13.5 64.5t-13.5 69.5t-15 82.5t-15.5 75.5t-26 86.5t-33.5 79.5q-86 164 -284 164h-24v-721q0 -86 16.5 -103
t36 -20.5t57.5 -3.5h72v-18h-522z" />
    <glyph glyph-name="l" unicode="l" horiz-adv-x="1054" 
d="M37 0v18h72q72 0 90 24t18 99v1207q0 74 -17.5 90t-90.5 16h-72v19h522v-19h-72q-74 0 -92 -16.5t-18 -89.5v-1203q0 -61 -45 -106v-2h276q164 0 248 49t96 186l17 205h41l-41 -581l-21 2l8 120h-2q-18 -18 -55 -18h-862z" />
    <glyph glyph-name="m" unicode="m" horiz-adv-x="1826" 
d="M37 0v18h72q74 0 91 17.5t17 91.5v1167q0 29 -18.5 47.5t-35.5 18.5h-22l-121 -10l-2 12l158 33q143 29 143 149v8h17v-268q0 -147 -4 -188h18q12 86 33 141q96 252 324 252q150 0 211 -71.5t61 -198.5v-123h8q2 45 21.5 107.5t29.5 82.5q106 203 303 203
q137 0 221.5 -71.5t84.5 -200.5v-1090q0 -74 18 -91.5t92 -17.5h53v-18h-460v18h155v5q-18 18 -18 53v1122q0 121 -45 188.5t-119 67.5q-139 0 -225 -130t-86 -343v-854q0 -74 18.5 -91.5t91.5 -17.5h54v-18h-443v18h137v5q-18 18 -18 53v1122q0 121 -45 188.5t-119 67.5
q-139 0 -225 -130t-86 -343v-854q0 -74 18.5 -91.5t91.5 -17.5h72v-18h-522z" />
    <glyph glyph-name="n" unicode="n" horiz-adv-x="1304" 
d="M37 0v18h72q70 0 86 15.5t19 35t3 58.5v1167q0 29 -18.5 47.5t-35.5 18.5h-22l-121 -10l-2 12l158 33q66 12 109 51t43 98v8h16v-268q0 -178 -4 -215h14q6 55 33 133q45 131 146.5 209t247 78t235.5 -84t90 -225v-1053q0 -74 17.5 -91.5t90.5 -17.5h74v-18h-522v18h199v5
q-18 18 -19 53v1069q0 309 -201 309q-160 0 -264 -139t-104 -361v-827q0 -74 18.5 -91.5t91.5 -17.5h72v-18h-522z" />
    <glyph glyph-name="o" unicode="o" horiz-adv-x="1642" 
d="M825 20q283 0 429.5 174.5t146.5 522.5t-150.5 541.5t-433.5 193.5t-429 -174t-146 -522.5t150 -542t433 -193.5zM822 -16q-341 0 -550 206.5t-209 545.5t209 546t550 207t549 -207t208 -546t-208 -545.5t-549 -206.5z" />
    <glyph glyph-name="p" unicode="p" horiz-adv-x="1120" 
d="M37 0v18h72q74 0 91 17.5t17 91.5v1219q0 74 -17.5 91t-90.5 17h-72v19h516q231 0 372.5 -124t141.5 -327t-141.5 -326t-372.5 -123h-176v-446q0 -74 18.5 -91.5t91.5 -17.5h52v-18h-502zM342 1434v-11q35 -47 35 -127v-686h115q195 0 296 105.5t101 306.5t-101.5 306.5
t-295.5 105.5h-150z" />
    <glyph glyph-name="q" unicode="q" horiz-adv-x="1646" 
d="M674 -193q-47 0 -67.5 -24.5t-20.5 -54t17.5 -52t47.5 -26.5l-6 -37q-51 8 -76.5 40t-25.5 75q0 90 90 151q29 19 129 65q368 172 520 428q116 196 115 416q0 324 -148.5 494t-428 170t-425 -170t-145.5 -494q0 -233 117.5 -425.5t355.5 -296.5l-39 -21
q-295 100 -453.5 301t-158.5 442q0 315 206.5 508t545.5 193t545 -192.5t206 -508.5q0 -453 -627 -790q-59 -31 -163.5 -79t-131.5 -69q49 0 239 -45q563 -133 886 -133q379 0 536 172l13 -12q-289 -322 -670 -321q-143 0 -308 47t-282 102t-231.5 101t-161.5 46z" />
    <glyph glyph-name="r" unicode="r" horiz-adv-x="1261" 
d="M37 0v18h72q74 0 91 17.5t17 91.5v1219q0 74 -17.5 91t-90.5 17h-72v19h534q246 0 395.5 -125t149.5 -319.5t-123 -315.5t-311 -138l-41 -2v-12q147 -16 227 -141l103 -162q4 -6 22.5 -37t26.5 -43t26 -38q68 -93 122 -93q34 0 63 25l45 39l10 -15l-45 -39
q-179 -151 -306 -12q-52 57 -104 139l-143 222q-57 88 -98 122.5t-105 34.5h-24v35h94q186 0 284.5 107.5t98.5 311.5t-98.5 311.5t-284.5 107.5h-213v-2q35 -35 35 -107v-1200q0 -74 18.5 -91.5t91.5 -17.5h119v-18h-569z" />
    <glyph glyph-name="s" unicode="s" horiz-adv-x="978" 
d="M467 20q192 0 269 142q38 70 38 163t-50 164.5t-125 119.5t-162 104.5t-161.5 110t-125 140.5t-50.5 193q0 150 111 241t278 91t287 -90q23 -16 33 -47l14 4q-4 16 -8 65l-6 109h20l23 -483l-37 -3l-4 86q-6 133 -85 227.5t-213 94.5t-201.5 -64.5t-67.5 -195t136 -232.5
q60 -46 133 -88q185 -109 279 -194q136 -124 136 -311t-121 -285t-336 -98q-164 0 -324 110q-37 27 -51 68l-8 -2q4 -16 8 -88l6 -129h-18l-27 559l37 2l4 -84q8 -178 114.5 -289t254.5 -111z" />
    <glyph glyph-name="t" unicode="t" horiz-adv-x="1101" 
d="M209 0v18h156q74 0 91 17.5t17 91.5v1309h-123q-154 0 -211 -46.5t-65 -189.5l-6 -84l-37 2l30 475l23 -2l-10 -118h954l-10 116l22 2l31 -473l-37 -2l-6 84q-10 143 -67.5 189.5t-208.5 46.5h-119v-1309q0 -74 17.5 -91.5t90.5 -17.5h152v-18h-684z" />
    <glyph glyph-name="u" unicode="u" horiz-adv-x="1247" 
d="M952 401h-16q-31 -211 -142.5 -314t-266.5 -103t-250 80.5t-95 228.5v1040q0 61 -61 62h-96v18h116q76 0 132.5 25.5t56.5 83.5v8h16v-1219q0 -139 54.5 -215t146.5 -76q166 0 266 143.5t100 379.5v803q0 74 -18 91t-92 17h-35v19l317 8v-17q-8 -82 -8 -108v-1211
q0 -74 18.5 -91t92.5 -17h35v-19q-141 -6 -277 -36v16q8 82 8 117v32l-2 246v8z" />
    <glyph glyph-name="v" unicode="v" horiz-adv-x="1523" 
d="M18 1473h406v-19h-158v-4q35 -12 64 -94l471 -1141q16 -49 16 -74h27q0 35 20 82l459 1104q14 31 14 57q0 70 -100 70h-176v19h446v-19h-24q-47 0 -65.5 -21.5t-35 -59t-18.5 -46.5l-541 -1337l-110 -8l-543 1345q-42 112 -76 122q-18 5 -45 5h-31v19z" />
    <glyph glyph-name="w" unicode="w" horiz-adv-x="2213" 
d="M18 1473h295v-29q0 -39 15 -88l424 -1141q12 -37 12 -74h20q0 27 15 74l293 975l-41 137q-23 76 -45.5 101.5t-75.5 25.5h-47v19h458v-19h-194v-4q41 -14 63 -94l342 -1141q12 -49 13 -74h28q0 31 19 80l403 1108q14 37 15 60q0 66 -103 65h-78v19h349v-19h-31
q-45 0 -66.5 -27.5t-46.5 -99.5l-485 -1335l-115 -10l-344 1142l-340 -1134l-115 -8l-487 1345q-25 80 -45.5 103.5t-73.5 23.5h-31v19z" />
    <glyph glyph-name="x" unicode="x" horiz-adv-x="1175" 
d="M37 0v16h18q63 0 98 32t87 130l280 547l-266 569q-45 94 -80 127t-80 33h-22v19h350v-19h-111v-4q23 -8 54.5 -42t50.5 -71l225 -483l242 446q45 82 45 113q0 41 -92 41h-72v19h342v-19h-25q-45 0 -74.5 -30.5t-84.5 -129.5l-260 -483l294 -633q68 -121 91 -140t59 -20
h35v-18h-475v18h43q109 0 108 52q0 31 -39 100l-239 514l-258 -506q-43 -84 -43 -113t22.5 -39t73.5 -10h69v-16h-366z" />
    <glyph glyph-name="y" unicode="y" horiz-adv-x="1177" 
d="M236 0v16h176q74 0 91 17.5t17 91.5v569l-321 619q-6 12 -21.5 41.5t-19.5 37.5q-30 63 -95 64h-43v17h388v-17h-127v-4q29 -10 84 -115l264 -503q23 -41 26 -66h15q2 18 26 66l246 475q31 57 31 90q0 57 -88 57h-123v17h395v-17h-35q-54 0 -90 -58q-14 -24 -47 -87
l-303 -586v-600q0 -74 17.5 -91.5t91.5 -17.5h151v-16h-706z" />
    <glyph glyph-name="z" unicode="z" horiz-adv-x="1064" 
d="M0 0v18q27 0 69 41t78 119l537 1127q23 47 66 81.5t81 45.5v6h-401q-156 0 -222.5 -47.5t-74.5 -192.5l-2 -41l-14 2l22 434l15 -2l-7 -137q18 18 54 19h796v-19q-23 0 -62.5 -40t-78.5 -120l-537 -1122q-43 -88 -98 -129v-6h469q154 0 217.5 44t71.5 179l4 76l21 -2
l-25 -436l-21 2l7 116h-2q-16 -16 -50 -16h-913z" />
    <glyph glyph-name="braceleft" unicode="{" horiz-adv-x="563" 
d="M215 817q0 45 -41 239t-41 253q0 129 65 210t164 80h183v-36h-109q-82 -1 -128 -49t-46 -118t47 -291q47 -220 47 -257t-50 -88q-50 -50 -121 -108q-102 -83 -93 -93q18 -19 92 -79q172 -138 172 -199q0 -39 -47 -258t-47 -290t46 -120t128 -49h109v-37h-183
q-100 0 -164 81t-65 210q0 59 41 254t41 225q0 67 -31 103q-12 12 -19 22q-35 47 -124 137v8q104 104 139 154q35 51 35 96z" />
    <glyph glyph-name="bar" unicode="|" horiz-adv-x="307" 
d="M109 1599h92v-2072h-92v2072z" />
    <glyph glyph-name="braceright" unicode="}" horiz-adv-x="563" 
d="M348 306q0 -40 41 -234t41 -254q0 -129 -64 -210t-165 -81h-183v37h109q82 0 128 49t46 119t-47 290t-47 257t50 89t123 111q93 75 93 85t-83 77t-133 119t-50 88q0 37 47 257q47 221 47 291t-45 118t-129 49h-109v36h183q100 -1 165 -81t64 -209q0 -57 -41 -251
t-41 -240t27 -84t71 -85t55 -58q12 -11 21 -24v-8q-124 -125 -162 -193q-12 -20 -12 -60z" />
    <glyph glyph-name="asciitilde" unicode="~" horiz-adv-x="944" 
d="M182 758q-54 0 -71 -72l-27 -108l-35 8l27 108q33 137 151 137q68 0 173 -44q106 -44 204 -88t152 -44q61 0 78 82l24 107l37 -8l-25 -107q-37 -150 -159 -149q-70 0 -175 44q-104 44 -202 89t-152 45z" />
    <glyph glyph-name="uni00A0" unicode="&#xa0;" horiz-adv-x="544" 
 />
    <glyph glyph-name="exclamdown" unicode="&#xa1;" horiz-adv-x="471" 
d="M239 1307q-42 1 -68 25t-26 66t25 66t67 25q43 0 67 -24q24 -23 24 -65t-24 -68t-65 -25zM309 -29q-1 -18 -73 -18t-72 18q0 201 26 541q27 340 27 541h37q0 -201 28 -541t27 -541z" />
    <glyph glyph-name="cent" unicode="&#xa2;" horiz-adv-x="1021" 
d="M227 760q0 -323 147 -444q73 -60 179 -68v983q-160 -4 -243 -125t-83 -346zM588 -72h-35v281q-217 13 -349 155t-132 374t132 379q132 146 349 151v276h35v-276q145 -8 243 -74q18 -14 29 -49l8 2q-10 37 -10 51l-2 68l16 2l19 -369l-35 -2l-4 68q-14 119 -89 189
t-175 77v-985q122 0 200 56t142 157l31 -19q-45 -72 -91 -118t-118 -79q-72 -34 -164 -34v-281z" />
    <glyph glyph-name="sterling" unicode="&#xa3;" horiz-adv-x="1116" 
d="M135 97q1 -35 21 -59t55 -24q63 0 102 168q-100 29 -148 -19q-30 -30 -30 -66zM492 766h309v-55h-338v-4q29 -14 29 -66q0 -283 -48 -440q59 -13 234 -63t223 -50q94 0 115 105l39 202l20 -6l-51 -278q-27 -150 -158 -150q-72 0 -239 82t-205 98q-74 -178 -201 -178
q-53 0 -88 39t-35 95t40 94t122 38q16 0 62 -4q25 145 24 447v39h-203v55h203v352q0 166 89 268t251 102t260 -116v86h21v-424h-37v131q0 268 -258 269q-180 0 -180 -291v-377z" />
    <glyph glyph-name="currency" unicode="&#xa4;" horiz-adv-x="690" 
d="M345 897q87 0 157 -57l86 86l37 -41l-84 -84q53 -70 53 -155t-51 -152l80 -80l-41 -35l-76 76q-68 -59 -158 -59t-160 53l-82 -80l-34 41l75 77q-55 68 -55 161t60 161l-86 86l40 35l84 -84q68 51 155 51zM342 449q80 0 138 58t58 139t-56 138q-58 57 -140 57t-138 -56
t-56 -139t56 -140q58 -57 138 -57z" />
    <glyph glyph-name="yen" unicode="&#xa5;" horiz-adv-x="1177" 
d="M236 0v16h176q74 0 91 18t17 91v268h-264l8 35h256v170h-264l8 35h256v61l-321 619q-6 12 -22 42l-19 38q-32 63 -95 63h-43v17h388v-17h-127v-4q29 -10 84 -115l264 -503q23 -41 26 -66h15q2 18 26 66l246 475q31 57 31 90q0 57 -88 57h-123v17h395v-17h-35
q-56 0 -90 -58q-14 -24 -47 -87l-303 -586v-92h272l-6 -35h-266v-170h272l-6 -35h-266v-268q0 -74 17 -91t92 -18h135v-16h-690z" />
    <glyph glyph-name="brokenbar" unicode="&#xa6;" horiz-adv-x="307" 
d="M201 362v-835h-92v835h92zM109 764v835h92v-835h-92z" />
    <glyph glyph-name="section" unicode="&#xa7;" horiz-adv-x="1163" 
d="M182 705q0 -97 48 -158q26 -33 57 -64t123 -72q100 -48 151 -67t69 -29q17 -10 47 -23q30 -12 43 -20t38 -21t40 -25t36 -25q21 -14 63 -56q84 86 84 258q0 101 -47 158q-27 33 -53 60q-41 44 -270 141q-229 96 -320 180l-23 23q-86 -88 -86 -260zM983 -72
q0 -147 -113 -237q-112 -90 -302 -90t-304 114v-88h-20v430l37 -14v-104q-1 -119 75 -210t215 -91t212 68t73 200q0 77 -35 114q-35 38 -56 60t-118 69q-98 46 -153 68q-180 84 -240 125q-182 129 -182 346q0 88 51 182t113 136q-53 76 -54 174q0 147 113 238t301 91
t303 -114v86h21v-430l-37 14v106q0 121 -75 210t-214 89t-212 -68t-73 -198q0 -77 35 -114q35 -38 58 -62t120 -67q99 -49 150 -68q182 -84 241 -127q178 -127 179 -344q0 -88 -52 -184t-110 -136q53 -76 53 -174z" />
    <glyph glyph-name="dieresis" unicode="&#xa8;" horiz-adv-x="743" 
d="M574 1126q-54 0 -78 24t-23 78q0 54 23 77q22 23 76 23t77 -24q23 -22 23 -76t-23 -77q-21 -25 -75 -25zM172 1126q-100 0 -100 101q0 53 24 77t77 24q54 0 77 -24q22 -22 22 -76t-21 -78t-79 -24z" />
    <glyph glyph-name="copyright" unicode="&#xa9;" horiz-adv-x="1097" 
d="M705 1128v2q-9 62 -49 94t-95 31q-154 0 -153 -217q0 -238 172 -237q104 0 159 96l25 -10q-59 -113 -191 -113q-106 0 -176 70q-69 70 -69 184t66 184q66 72 152 72q87 0 148 -39q10 -8 15 -24l4 2q-6 12 -6 24l-2 43l18 2l8 -164h-26zM550 600q202 0 331 128t129 303
t-136 298t-326 123t-324 -124t-134 -298t129 -302t331 -128zM548 563q-202 0 -347 135q-145 134 -145 324t140 328q142 138 349 139q207 0 353 -132t146 -332t-147 -331t-349 -131z" />
    <glyph glyph-name="ordfeminine" unicode="&#xaa;" horiz-adv-x="915" 
d="M326 721q-121 0 -193 58t-72 171t118 188t321 74h143v68q0 229 -184 229q-236 0 -236 -172v-49q-100 0 -100 86v82q27 0 80 33q96 57 253 57q158 0 238 -75t80 -218v-385q0 -59 10 -76t50 -18l69 4v-18q-111 -12 -203 -41v14l-18 287h-18q-39 -156 -128 -228t-210 -71z
M643 1176h-133q-158 0 -230 -56t-73 -178q0 -172 151 -172q109 0 197 99t88 282v25z" />
    <glyph glyph-name="guillemotleft" unicode="&#xab;" horiz-adv-x="925" 
d="M72 469v6l372 377l72 -76l-233 -201q-94 -90 -131 -98v-8q37 -8 131 -98l233 -203l-72 -74zM412 469v6l370 377l72 -76l-231 -201q-94 -90 -134 -98v-8q39 -8 134 -98l231 -203l-72 -74z" />
    <glyph glyph-name="logicalnot" unicode="&#xac;" horiz-adv-x="761" 
d="M709 672v-412l-54 4v354h-600l2 54h652z" />
    <glyph glyph-name="uni00AD" unicode="&#xad;" horiz-adv-x="487" 
d="M442 563h-405l8 55h408z" />
    <glyph glyph-name="registered" unicode="&#xae;" horiz-adv-x="1097" 
d="M545 1489q207 0 353 -132t146 -332t-147 -331t-349 -131t-347 135q-145 134 -145 324t140 328q142 138 349 139zM1010 1029q0 175 -136 299t-326 124t-324 -124t-134 -298t129 -302t330 -128t331 127t130 302zM332 1315h192q102 0 166 -43q64 -42 64 -108t-43 -110
t-125 -55v-4q45 -12 80 -63l47 -72q39 -57 48 -61t15 -4h8l27 6l2 -17q-75 -16 -89 -16q-29 0 -77 74l-55 84q-27 39 -45 55t-47 16h-33v-155q0 -35 8 -42t41 -7h8v-17h-198v17h26q33 0 41 7t8 42v407q0 33 -8 41t-41 8h-20v17zM451 1292v-2q16 -16 16 -47v-223h65
q147 0 148 137q0 135 -148 135h-81z" />
    <glyph glyph-name="macron" unicode="&#xaf;" horiz-adv-x="743" 
d="M664 1182h-592l10 55h590z" />
    <glyph glyph-name="degree" unicode="&#xb0;" horiz-adv-x="471" 
d="M217 1563q66 1 124 -55t58 -127t-58 -126q-57 -55 -121 -55t-124 56t-59 126q0 70 57 126t123 55zM218 1528q-91 0 -91 -146t91 -145q91 -1 91 145t-91 146z" />
    <glyph glyph-name="plusminus" unicode="&#xb1;" horiz-adv-x="925" 
d="M842 236h-764l8 55h764zM494 854h364l-4 -53h-360v-359l-54 4v355h-368l4 53h364v373l54 -4v-369z" />
    <glyph glyph-name="two.sups" unicode="&#xb2;" horiz-adv-x="772" 
d="M147 1466h-36v213q12 0 20 4q97 76 237 76q140 1 227 -67t87 -179q0 -63 -55 -151t-140 -162l-274 -242q-23 -18 -57 -30l4 -13q25 4 90 5h338q109 0 117 106l8 102l20 -2l-24 -303h-637v88q59 8 131 86l219 240q152 164 151 291q0 94 -53 145t-150 51q-96 0 -152 -53
t-71 -129v-76z" />
    <glyph glyph-name="three.sups" unicode="&#xb3;" horiz-adv-x="774" 
d="M63 1116h35v-90q18 -82 78 -138t172 -56q111 0 174 64q64 66 64 186t-56 190t-165 69h-127v21h102q94 0 145 51t51 136t-50 130t-124 45t-110 -14q-54 -21 -88 -100q-10 -27 -19 -68v-43h-34v248h18v-29q0 -23 -2 -30l4 -2q16 20 37 30q82 43 194 43t191 -55
q80 -54 80 -138t-55 -140t-134 -70v-2q115 -14 187 -91q71 -77 71 -195t-100 -194t-264 -75q-164 2 -275 100v217z" />
    <glyph glyph-name="acute" unicode="&#xb4;" horiz-adv-x="362" 
d="M264 1425q8 0 21 -8l32 -26q19 -15 2 -37l-26 -31l-217 -172l-29 25l199 239q10 10 18 10z" />
    <glyph glyph-name="uni00B5" unicode="&#xb5;" horiz-adv-x="1247" 
d="M952 401h-16q-30 -211 -142 -314t-266 -103q-106 0 -186 39t-121 112l-8 -4q6 -18 6 -47v-272q0 -59 57 -60q37 0 62 -26q24 -26 24 -64t-26 -64t-64 -26t-64 27t-26 63v1671q0 61 -61 62h-96v18h116q76 0 132 26t57 83v8h16v-1219q0 -139 54 -215t147 -76q166 0 266 144
t100 379v803q0 74 -18 91t-92 17h-35v19l317 8v-17q-8 -82 -8 -108v-1211q1 -74 19 -91t92 -17h35v-19q-141 -6 -277 -36v16q8 82 8 117v32l-2 246v8z" />
    <glyph glyph-name="paragraph" unicode="&#xb6;" horiz-adv-x="1052" 
d="M362 1434h-43q-102 0 -174 -73q-71 -73 -71 -175t72 -174t173 -72h43v494zM727 -389v1692q0 86 -17 106q-18 21 -92 21t-91 -20t-17 -107v-1692h-293v18q98 0 122 22t23 107v1145h-43q-117 0 -199 83t-83 201q0 118 83 201t199 82h699v-18q-98 0 -122 -20t-24 -107v-1567
q0 -86 24 -108t122 -21v-18h-291z" />
    <glyph glyph-name="periodcentered" unicode="&#xb7;" horiz-adv-x="399" 
d="M200 563q42 -1 66 -25t25 -66q0 -42 -24 -66q-23 -24 -65 -25t-68 23t-26 66t25 68q25 25 67 25z" />
    <glyph glyph-name="cedilla" unicode="&#xb8;" horiz-adv-x="761" 
d="M377 -113q82 0 129 -45q47 -46 47 -120t-94 -130t-230 -57l7 37q92 0 155 51t64 129q0 43 -22 72q-21 29 -69 29t-75 -25l-27 4l35 172l37 -2l-27 -129q33 14 70 14z" />
    <glyph glyph-name="one.sups" unicode="&#xb9;" horiz-adv-x="428" 
d="M37 823v21h43q59 0 74 13q14 13 14 71v592q0 59 4 77l-8 2q-14 -18 -39 -40l-64 -60l-14 12q126 126 180 218q20 33 21 38h28v-839q0 -56 14 -70t72 -14h31v-21h-356z" />
    <glyph glyph-name="ordmasculine" unicode="&#xba;" horiz-adv-x="882" 
d="M811 1139q0 -184 -101 -296q-102 -112 -268 -112t-268 112t-102 296t102 296q102 111 268 111t268 -111q101 -112 101 -296zM193 1168q-1 -182 65 -290q66 -110 186 -110t184 80t64 260t-65 291q-66 111 -188 111t-184 -80t-62 -262z" />
    <glyph glyph-name="guillemotright" unicode="&#xbb;" horiz-adv-x="925" 
d="M854 469l-371 -375l-71 74l233 203q94 90 131 98v8q-37 8 -131 98l-233 201l71 76l371 -377v-6zM516 469l-371 -375l-73 74l233 203q94 90 131 98v8q-37 8 -131 98l-233 201l73 76l371 -377v-6z" />
    <glyph glyph-name="questiondown" unicode="&#xbf;" horiz-adv-x="825" 
d="M723 350h37v-393h-21v80q-113 -90 -268 -94q-182 0 -294 90q-111 90 -111 235t138 279q58 57 115 111q138 131 138 212v183h55v-183q0 -114 -102 -248l-86 -112q-103 -133 -103 -240q0 -272 248 -272q185 0 231 167q12 40 23 101v84zM482 1307q-40 1 -64 25t-25 66
q0 42 24 66q23 24 65 25q42 0 68 -24q26 -25 26 -65t-27 -67q-27 -26 -67 -26z" />
    <glyph glyph-name="Agrave" unicode="&#xc0;" horiz-adv-x="1552" 
d="M725 1372q0 -25 -25 -82l-372 -854h780l-348 854q-16 37 -17 82h-18zM16 0v18h33q57 0 113 127l575 1328h158v-25q0 -74 18 -119l484 -1184q39 -94 58 -110t63 -17h16v-18h-391v18h157v5q-29 10 -63 96l-115 280h-811l-110 -254q-27 -69 16 -104q27 -23 72 -23h100v-18
h-373zM895 1550l-240 222l-49 61l25 20q25 17 41 -2l241 -284z" />
    <glyph glyph-name="Aacute" unicode="&#xc1;" horiz-adv-x="1552" 
d="M725 1372q0 -25 -25 -82l-372 -854h780l-348 854q-16 37 -17 82h-18zM16 0v18h33q57 0 113 127l575 1328h158v-25q0 -74 18 -119l484 -1184q39 -94 58 -110t63 -17h16v-18h-391v18h157v5q-29 10 -63 96l-115 280h-811l-110 -254q-27 -69 16 -104q27 -23 72 -23h100v-18
h-373zM702 1550l-18 17l242 284q16 20 41 2l24 -20l-49 -61z" />
    <glyph glyph-name="Acircumflex" unicode="&#xc2;" horiz-adv-x="1552" 
d="M725 1372q0 -25 -25 -82l-372 -854h780l-348 854q-16 37 -17 82h-18zM16 0v18h33q57 0 113 127l575 1328h158v-25q0 -74 18 -119l484 -1184q39 -94 58 -110t63 -17h16v-18h-391v18h157v5q-29 10 -63 96l-115 280h-811l-110 -254q-27 -69 16 -104q27 -23 72 -23h100v-18
h-373zM803 1839h-8q0 -16 -103 -119l-100 -100l-31 37l209 205h57l211 -205l-30 -37l-101 100q-104 104 -104 119z" />
    <glyph glyph-name="Atilde" unicode="&#xc3;" horiz-adv-x="1552" 
d="M725 1372q0 -25 -25 -82l-372 -854h780l-348 854q-16 37 -17 82h-18zM16 0v18h33q57 0 113 127l575 1328h158v-25q0 -74 18 -119l484 -1184q39 -94 58 -110t63 -17h16v-18h-391v18h157v5q-29 10 -63 96l-115 280h-811l-110 -254q-27 -69 16 -104q27 -23 72 -23h100v-18
h-373zM938 1620q-48 0 -110 38t-119 75t-91 36q-45 0 -63 -67l-16 -64l-33 9l16 63q20 76 50 104q64 60 183 -10q62 -36 119 -74t93 -38q51 0 71 80l17 61l32 -8l-16 -62q-23 -83 -55 -113t-78 -30z" />
    <glyph glyph-name="Adieresis" unicode="&#xc4;" horiz-adv-x="1552" 
d="M725 1372q0 -25 -25 -82l-372 -854h780l-348 854q-16 37 -17 82h-18zM16 0v18h33q57 0 113 127l575 1328h158v-25q0 -74 18 -119l484 -1184q39 -94 58 -110t63 -17h16v-18h-391v18h157v5q-29 10 -63 96l-115 280h-811l-110 -254q-27 -69 16 -104q27 -23 72 -23h100v-18
h-373zM998 1806q42 0 67 -24t25 -65q0 -43 -24 -67t-66 -24t-68 24t-25 66t25 66t66 24zM597 1806q42 0 68 -24q25 -24 25 -65q0 -43 -24 -67t-67 -24q-42 0 -67 24q-24 24 -24 66t23 66q24 24 66 24z" />
    <glyph glyph-name="Aring" unicode="&#xc5;" horiz-adv-x="1290" 
d="M598 1329q0 -20 -20 -82l-261 -792h564l-254 792q-14 45 -15 82h-14zM670 1763q-37 0 -67 -17t-49 -47t-19 -62q0 -31 19 -61q41 -64 97 -66q56 -1 97 38t40 88q0 49 -40 88q-41 39 -78 39zM1255 37h17v-37h-334v20h115v5q-39 14 -64 92l-94 295l-594 -13l-84 -254
q-8 -23 -8 -51q-1 -28 25 -52q26 -22 71 -22h166v-20h-455v37h33q78 0 113 108l432 1325q-49 23 -81 69q-32 45 -32 107q1 62 57 117t124 55t124 -54q56 -56 58 -118q0 -62 -32 -107q-32 -46 -81 -69v-10q0 -68 21 -131l383 -1184q25 -74 44 -91t76 -17z" />
    <glyph glyph-name="AE" unicode="&#xc6;" horiz-adv-x="1857" 
d="M764 0v18h72q74 0 91 17.5t17 91.5v436h-569l-174 -418q-27 -69 16 -105q27 -22 72 -22h100v-18h-373v18h33q35 0 60.5 33t52.5 94l510 1219q12 33 12 53q0 31 -31 31v25h928q57 0 76 -19h2l-6 94l18 2l37 -555h-37l-8 144q-8 162 -86 229.5t-229 67.5h-289v-2
q45 -45 45 -107v-536h82q106 0 163.5 41.5t57.5 175.5v71h18v-657h-18v113q0 133 -58.5 176t-162.5 43h-82v-609q0 -61 -45 -106v-2h407q150 0 222.5 65.5t83.5 210.5l12 164h33l-35 -555l-19 2l6 94h-2q-18 -18 -75 -18h-928zM944 1448h-147q-51 0 -86 -82l-320 -766h553
v848z" />
    <glyph glyph-name="Ccedilla" unicode="&#xc7;" horiz-adv-x="1335" 
d="M72 743q0 334 196 540q197 206 518 206q221 0 375 -131q14 -14 23 -41l14 4q-4 20 -6 59l-4 150h18l19 -592l-37 -2l-6 197q-12 141 -133 231t-279 90q-252 0 -384 -174t-132 -524t138 -542q138 -194 401 -194q151 0 277 76t177 205l35 -14q-57 -147 -190 -225t-301 -78
l-23 -111q33 14 70 14q82 0 129 -45q47 -46 47 -120t-94 -130t-230 -57l6 37q124 0 190 88q30 40 30 81q-1 109 -83 111q-54 1 -83 -24l-27 4l31 152q-310 12 -496 218t-186 541z" />
    <glyph glyph-name="Egrave" unicode="&#xc8;" horiz-adv-x="1130" 
d="M698 422h-18v113q0 133 -58 176t-163 43h-82v-609q0 -61 -45 -106v-2h407q150 -1 223 65t82 211l13 164h33l-35 -555l-19 2l6 94h-2q-18 -18 -75 -18h-928v18h72q74 0 91 18t17 91v1219q0 74 -17 91t-91 17h-72v19h817q57 0 76 -19h2l-6 94l18 2l37 -555h-37l-8 144
q-8 161 -85 229t-230 68h-289v-2q45 -45 45 -107v-536h82q106 0 164 42q57 42 57 175v71h18v-657zM692 1550l-239 222l-50 61l25 20q27 18 41 -2l242 -284z" />
    <glyph glyph-name="Eacute" unicode="&#xc9;" horiz-adv-x="1130" 
d="M698 422h-18v113q0 133 -58 176t-163 43h-82v-609q0 -61 -45 -106v-2h407q150 -1 223 65t82 211l13 164h33l-35 -555l-19 2l6 94h-2q-18 -18 -75 -18h-928v18h72q74 0 91 18t17 91v1219q0 74 -17 91t-91 17h-72v19h817q57 0 76 -19h2l-6 94l18 2l37 -555h-37l-8 144
q-8 161 -85 229t-230 68h-289v-2q45 -45 45 -107v-536h82q106 0 164 42q57 42 57 175v71h18v-657zM500 1550l-19 17l242 284q16 20 41 2l24 -20l-49 -61z" />
    <glyph glyph-name="Ecircumflex" unicode="&#xca;" horiz-adv-x="1130" 
d="M698 422h-18v113q0 133 -58 176t-163 43h-82v-609q0 -61 -45 -106v-2h407q150 -1 223 65t82 211l13 164h33l-35 -555l-19 2l6 94h-2q-18 -18 -75 -18h-928v18h72q74 0 91 18t17 91v1219q0 74 -17 91t-91 17h-72v19h817q57 0 76 -19h2l-6 94l18 2l37 -555h-37l-8 144
q-8 161 -85 229t-230 68h-289v-2q45 -45 45 -107v-536h82q106 0 164 42q57 42 57 175v71h18v-657zM592 1839q0 -16 -103 -119l-100 -100l-31 37l209 205h58l211 -205l-31 -37l-100 100q-104 104 -105 119h-8z" />
    <glyph glyph-name="Edieresis" unicode="&#xcb;" horiz-adv-x="1130" 
d="M698 422h-18v113q0 133 -58 176t-163 43h-82v-609q0 -61 -45 -106v-2h407q150 -1 223 65t82 211l13 164h33l-35 -555l-19 2l6 94h-2q-18 -18 -75 -18h-928v18h72q74 0 91 18t17 91v1219q0 74 -17 91t-91 17h-72v19h817q57 0 76 -19h2l-6 94l18 2l37 -555h-37l-8 144
q-8 161 -85 229t-230 68h-289v-2q45 -45 45 -107v-536h82q106 0 164 42q57 42 57 175v71h18v-657zM796 1806q42 0 66 -24t25 -65q0 -43 -24 -67q-23 -24 -65 -24t-68 24t-26 66t25 66t67 24zM394 1806q42 0 68 -24t26 -65q0 -43 -26 -67q-24 -24 -66 -24t-66 24t-25 66
t23 66t66 24z" />
    <glyph glyph-name="Igrave" unicode="&#xcc;" horiz-adv-x="593" 
d="M37 0v18h72q74 0 91 16t17 91v1223q0 74 -17 90t-91 16h-72v19h522v-23h-72q-74 0 -92 -16t-18 -91v-1218q0 -74 18 -90t92 -17h72v-18h-522zM393 1550l-239 222l-50 61l25 20q27 18 41 -2l242 -284z" />
    <glyph glyph-name="Iacute" unicode="&#xcd;" horiz-adv-x="593" 
d="M37 0v18h72q74 0 91 16t17 91v1223q0 74 -17 90t-91 16h-72v19h522v-23h-72q-74 0 -92 -16t-18 -91v-1218q0 -74 18 -90t92 -17h72v-18h-522zM201 1550l-19 17l242 284q16 20 41 2l24 -20l-49 -61z" />
    <glyph glyph-name="Icircumflex" unicode="&#xce;" horiz-adv-x="593" 
d="M37 0v18h72q74 0 91 16t17 91v1223q0 74 -17 90t-91 16h-72v19h522v-23h-72q-74 0 -92 -16t-18 -91v-1218q0 -74 18 -90t92 -17h72v-18h-522zM293 1839q0 -16 -103 -119l-100 -100l-31 37l209 205h58l211 -205l-31 -37l-100 100q-104 104 -105 119h-8z" />
    <glyph glyph-name="Idieresis" unicode="&#xcf;" horiz-adv-x="593" 
d="M37 0v18h72q74 0 91 16t17 91v1223q0 74 -17 90t-91 16h-72v19h522v-23h-72q-74 0 -92 -16t-18 -91v-1218q0 -74 18 -90t92 -17h72v-18h-522zM497 1806q43 0 67 -24t24 -65q0 -43 -24 -67t-66 -24t-67 24t-25 66t24 66q25 24 67 24zM95 1806q42 0 68 -24q25 -24 25 -65
q0 -43 -24 -67t-67 -24t-67 24t-24 66t24 66t65 24z" />
    <glyph glyph-name="Eth" unicode="&#xd0;" horiz-adv-x="1480" 
d="M37 0v18h72q74 0 91 17.5t17 91.5v588h-145l10 61h135v551q0 78 -18.5 102.5t-89.5 24.5h-72v19h577q360 0 580.5 -202t220.5 -533.5t-220 -534.5t-581 -203h-577zM377 715v-580q0 -61 -35 -96v-2h217q332 0 506 179t174 520t-174 520.5t-506 179.5h-217v-2
q35 -35 35 -97v-561h364l-10 -61h-354z" />
    <glyph glyph-name="Ntilde" unicode="&#xd1;" horiz-adv-x="1191" 
d="M399 0h-362v18h53q74 0 92 18t19 91v1219q-1 74 -19 91t-92 17h-53v19h313l561 -1033q37 -63 37 -75h13q-2 23 -3 86v874q0 73 -28 101t-103 28h-92v19h422v-19h-33q-74 0 -102 -28t-29 -101v-1364h-16q0 20 -57 127l-635 1153q-41 78 -41 80h-11q2 -23 3 -88v-1106
q0 -74 18 -91t92 -18h53v-18zM723 1624q-47 0 -109 38t-120 75q-57 37 -91 37q-45 0 -63 -68l-16 -64l-33 9l16 63q20 76 50 104q64 60 183 -10q62 -36 119 -74t93 -38q51 0 71 80l17 61l32 -8l-16 -62q-22 -83 -54 -113t-79 -30z" />
    <glyph glyph-name="Ograve" unicode="&#xd2;" horiz-adv-x="1642" 
d="M242 756q0 -348 150 -542t433 -194t429 174t146 523q0 347 -150 541q-152 194 -434 194t-428 -174t-146 -522zM1579 736q0 -340 -208 -546t-549 -206t-550 206t-209 546q0 339 209 546t550 207t549 -207t208 -546zM1020 1550l-240 222l-49 61l25 20q25 17 41 -2l241 -284
z" />
    <glyph glyph-name="Oacute" unicode="&#xd3;" horiz-adv-x="1642" 
d="M242 756q0 -348 150 -542t433 -194t429 174t146 523q0 347 -150 541q-152 194 -434 194t-428 -174t-146 -522zM1579 736q0 -340 -208 -546t-549 -206t-550 206t-209 546q0 339 209 546t550 207t549 -207t208 -546zM727 1550l-18 17l241 284q16 20 41 2l25 -20l-49 -61z
" />
    <glyph glyph-name="Ocircumflex" unicode="&#xd4;" horiz-adv-x="1642" 
d="M242 756q0 -348 150 -542t433 -194t429 174t146 523q0 347 -150 541q-152 194 -434 194t-428 -174t-146 -522zM1579 736q0 -340 -208 -546t-549 -206t-550 206t-209 546q0 339 209 546t550 207t549 -207t208 -546zM819 1839q0 -16 -102 -119l-101 -100l-30 37l209 205h57
l211 -205l-31 -37l-100 100q-104 104 -105 119h-8z" />
    <glyph glyph-name="Otilde" unicode="&#xd5;" horiz-adv-x="1642" 
d="M242 756q0 -348 150 -542t433 -194t429 174t146 523q0 347 -150 541q-152 194 -434 194t-428 -174t-146 -522zM1579 736q0 -340 -208 -546t-549 -206t-550 206t-209 546q0 339 209 546t550 207t549 -207t208 -546zM962 1620q-46 0 -108 38t-120 75t-91 36q-45 0 -63 -67
l-17 -64l-33 9l17 63q20 76 50 104t75 28t107 -38q61 -36 119 -74t93 -38q51 0 72 80l16 61l33 -8l-16 -62q-23 -83 -55 -113q-33 -30 -79 -30z" />
    <glyph glyph-name="Odieresis" unicode="&#xd6;" horiz-adv-x="1642" 
d="M242 756q0 -348 150 -542t433 -194t429 174t146 523q0 347 -150 541q-152 194 -434 194t-428 -174t-146 -522zM1579 736q0 -340 -208 -546t-549 -206t-550 206t-209 546q0 339 209 546t550 207t549 -207t208 -546zM1023 1806q42 0 67 -24q24 -24 24 -65q0 -43 -24 -67
t-65 -24q-42 0 -68 24q-25 24 -25 66t24 66q25 24 67 24zM532 1716q0 42 24 66t66 24t68 -24t25 -65q0 -43 -25 -67q-24 -24 -66 -24t-67 24t-25 66z" />
    <glyph glyph-name="multiply" unicode="&#xd7;" horiz-adv-x="768" 
d="M430 600l262 -256l-53 -49l-256 258l-252 -258l-49 53l254 252l-264 260l55 49l256 -262l264 268l49 -53z" />
    <glyph glyph-name="Oslash" unicode="&#xd8;" horiz-adv-x="1642" 
d="M393 213l819 1090q-147 150 -411.5 149.5t-411.5 -174.5t-147.5 -522t151.5 -543zM842.5 20q265.5 0 412 174.5t146.5 523.5t-152 542l-819 -1090q147 -150 412.5 -150zM63 737q0 338 209 545t551 207q254 0 439 -119l153 203l45 -33l-151 -203q129 -98 199.5 -252.5
t70.5 -347.5q0 -340 -208 -546.5t-548 -206.5q-256 0 -444 120l-152 -202l-45 32l152 203q-129 98 -200 253t-71 347z" />
    <glyph glyph-name="Ugrave" unicode="&#xd9;" horiz-adv-x="1187" 
d="M37 1473h522v-19h-90q-74 0 -91 -17t-18 -91v-1084q0 -240 248 -242q164 0 251 81t87 235v973q0 81 -24 113t-93 32h-75v19h399v-19h-53q-70 0 -94 -33t-23 -112v-973q0 -172 -96 -262q-95 -90 -279 -90t-296 97t-111 255v1010q-1 74 -19 91t-92 17h-53v19zM743 1550
l-239 222l-49 61l24 20q27 18 41 -2l242 -284z" />
    <glyph glyph-name="Uacute" unicode="&#xda;" horiz-adv-x="1187" 
d="M37 1473h522v-19h-90q-74 0 -91 -17t-18 -91v-1084q0 -240 248 -242q164 0 251 81t87 235v973q0 81 -24 113t-93 32h-75v19h399v-19h-53q-70 0 -94 -33t-23 -112v-973q0 -172 -96 -262q-95 -90 -279 -90t-296 97t-111 255v1010q-1 74 -19 91t-92 17h-53v19zM551 1550
l-19 17l242 284q16 20 41 2l25 -20l-49 -61z" />
    <glyph glyph-name="Ucircumflex" unicode="&#xdb;" horiz-adv-x="1187" 
d="M37 1473h522v-19h-90q-74 0 -91 -17t-18 -91v-1084q0 -240 248 -242q164 0 251 81t87 235v973q0 81 -24 113t-93 32h-75v19h399v-19h-53q-70 0 -94 -33t-23 -112v-973q0 -172 -96 -262q-95 -90 -279 -90t-296 97t-111 255v1010q-1 74 -19 91t-92 17h-53v19zM643 1839
q0 -16 -102 -119l-101 -100l-30 37l208 205h58l211 -205l-31 -37l-100 100q-104 104 -105 119h-8z" />
    <glyph glyph-name="Udieresis" unicode="&#xdc;" horiz-adv-x="1187" 
d="M37 1473h522v-19h-90q-74 0 -91 -17t-18 -91v-1084q0 -240 248 -242q164 0 251 81t87 235v973q0 81 -24 113t-93 32h-75v19h399v-19h-53q-70 0 -94 -33t-23 -112v-973q0 -172 -96 -262q-95 -90 -279 -90t-296 97t-111 255v1010q-1 74 -19 91t-92 17h-53v19zM847 1806
q43 0 67 -24t24 -65q0 -43 -24 -67t-66 -24t-67 24t-25 66t24 66q25 24 67 24zM445 1806q42 0 68 -24t26 -65q0 -43 -25 -67t-67 -24q-43 0 -67 24t-24 66t24 66t65 24z" />
    <glyph glyph-name="Yacute" unicode="&#xdd;" horiz-adv-x="1177" 
d="M236 0v16h176q74 0 91 18t17 91v569l-321 619q-6 12 -22 42l-19 38q-32 63 -95 63h-43v17h388v-17h-127v-4q29 -10 84 -115l264 -503q23 -41 26 -66h15q2 18 26 66l246 475q31 57 31 90q0 57 -88 57h-123v17h395v-17h-35q-56 0 -90 -58q-14 -24 -47 -87l-303 -586v-600
q0 -74 17 -91t92 -18h151v-16h-706zM518 1554l-18 17l241 284q16 20 41 3l25 -21l-49 -61z" />
    <glyph glyph-name="Thorn" unicode="&#xde;" horiz-adv-x="1099" 
d="M377 467h94q195 0 296 100q101 101 101 291t-101 290t-296 101h-94v-782zM37 0v18h72q74 0 91 18t17 91v1221q0 74 -17 90t-91 16h-72v19h522v-23h-72q-74 0 -92 -16t-18 -91v-55h155q230 0 372 -119t142 -311t-140 -310q-142 -118 -374 -118h-155v-303q0 -74 18 -91
t92 -18h52v-18h-502z" />
    <glyph glyph-name="germandbls" unicode="&#xdf;" horiz-adv-x="1120" 
d="M598 836q0 -78 95 -161q42 -36 93 -73q127 -92 194 -159q97 -97 96 -213q-1 -117 -83 -182q-81 -64 -233 -64t-242 77q-16 16 -18 25l-6 -2q2 -8 2 -25v-96h-21v506h39v-184q0 -109 68 -187t178 -78q74 0 120 44t46 114q0 123 -138 254q-57 54 -113 112
q-136 140 -136 287q1 59 31 113t66 90q97 94 97 194t-58 162t-155 62q-178 0 -178 -209v-1128q0 -27 8 -109v-14l-313 8v18h35q74 0 92 18t18 91v799h-129v20h129v234q0 147 104 228t238 81q135 0 221 -71t86 -195q-1 -63 -37 -119t-79 -88q-43 -34 -80 -84t-37 -96z" />
    <glyph glyph-name="agrave" unicode="&#xe0;" horiz-adv-x="1103" 
d="M760 709h-150q-172 0 -276 -108t-105 -282q0 -127 65 -203q64 -76 176 -77t201 109t89 315v246zM842 -2q0 51 -20 169q-19 118 -19 148h-21q-82 -332 -344 -331q-168 0 -278 93t-109 242q0 193 151 310t398 116h160v439q0 268 -242 268q-147 0 -229 -77t-88 -201l-6 -127
h-37l22 483h21l-6 -109q-4 -49 -9 -65l15 -4q10 31 32 47q121 90 301 90t285 -85q104 -85 105 -247v-1012q0 -63 11 -83t56 -21l41 2l35 2l2 -18q-127 -12 -227 -45v16zM625 1550l-240 222l-49 61l24 20q27 18 41 -2l242 -284z" />
    <glyph glyph-name="aacute" unicode="&#xe1;" horiz-adv-x="1103" 
d="M760 709h-150q-172 0 -276 -108t-105 -282q0 -127 65 -203q64 -76 176 -77t201 109t89 315v246zM842 -2q0 51 -20 169q-19 118 -19 148h-21q-82 -332 -344 -331q-168 0 -278 93t-109 242q0 193 151 310t398 116h160v439q0 268 -242 268q-147 0 -229 -77t-88 -201l-6 -127
h-37l22 483h21l-6 -109q-4 -49 -9 -65l15 -4q10 31 32 47q121 90 301 90t285 -85q104 -85 105 -247v-1012q0 -63 11 -83t56 -21l41 2l35 2l2 -18q-127 -12 -227 -45v16zM432 1550l-18 17l241 284q16 20 41 2l25 -20l-49 -61z" />
    <glyph glyph-name="acircumflex" unicode="&#xe2;" horiz-adv-x="1103" 
d="M760 709h-150q-172 0 -276 -108t-105 -282q0 -127 65 -203q64 -76 176 -77t201 109t89 315v246zM842 -2q0 51 -20 169q-19 118 -19 148h-21q-82 -332 -344 -331q-168 0 -278 93t-109 242q0 193 151 310t398 116h160v439q0 268 -242 268q-147 0 -229 -77t-88 -201l-6 -127
h-37l22 483h21l-6 -109q-4 -49 -9 -65l15 -4q10 31 32 47q121 90 301 90t285 -85q104 -85 105 -247v-1012q0 -63 11 -83t56 -21l41 2l35 2l2 -18q-127 -12 -227 -45v16zM524 1839q0 -16 -102 -119l-100 -100l-31 37l209 205h57l211 -205l-31 -37l-100 100q-104 104 -105 119
h-8z" />
    <glyph glyph-name="atilde" unicode="&#xe3;" horiz-adv-x="1103" 
d="M760 709h-150q-172 0 -276 -108t-105 -282q0 -127 65 -203q64 -76 176 -77t201 109t89 315v246zM842 -2q0 51 -20 169q-19 118 -19 148h-21q-82 -332 -344 -331q-168 0 -278 93t-109 242q0 193 151 310t398 116h160v439q0 268 -242 268q-147 0 -229 -77t-88 -201l-6 -127
h-37l22 483h21l-6 -109q-4 -49 -9 -65l15 -4q10 31 32 47q121 90 301 90t285 -85q104 -85 105 -247v-1012q0 -63 11 -83t56 -21l41 2l35 2l2 -18q-127 -12 -227 -45v16zM668 1620q-46 0 -110 38q-62 38 -120 75t-90 36q-45 0 -63 -67l-17 -64l-32 9l16 63q20 76 50 104
t75 28t107 -38q62 -36 120 -74t92 -38q51 0 72 80l16 61l33 -8l-16 -62q-23 -83 -55 -113t-78 -30z" />
    <glyph glyph-name="adieresis" unicode="&#xe4;" horiz-adv-x="1103" 
d="M760 709h-150q-172 0 -276 -108t-105 -282q0 -127 65 -203q64 -76 176 -77t201 109t89 315v246zM842 -2q0 51 -20 169q-19 118 -19 148h-21q-82 -332 -344 -331q-168 0 -278 93t-109 242q0 193 151 310t398 116h160v439q0 268 -242 268q-147 0 -229 -77t-88 -201l-6 -127
h-37l22 483h21l-6 -109q-4 -49 -9 -65l15 -4q10 31 32 47q121 90 301 90t285 -85q104 -85 105 -247v-1012q0 -63 11 -83t56 -21l41 2l35 2l2 -18q-127 -12 -227 -45v16zM728 1806q42 0 67 -24t25 -65q0 -43 -24 -67t-66 -24t-68 24t-25 66t25 66t66 24zM327 1806
q41 0 67 -24t26 -65q0 -43 -25 -67t-67 -24t-66 24t-24 66t23 66q24 24 66 24z" />
    <glyph glyph-name="aring" unicode="&#xe5;" horiz-adv-x="1103" 
d="M760 709h-150q-172 0 -276 -108t-105 -282q0 -127 65 -203q64 -76 176 -77t201 109t89 315v246zM842 -2q0 51 -20 169q-19 118 -19 148h-21q-82 -332 -344 -331q-168 0 -278 93t-109 242q0 193 151 310t398 116h160v439q0 268 -242 268q-147 0 -229 -77t-88 -201l-6 -127
h-37l22 483h21l-6 -109q-4 -49 -9 -65l15 -4q10 31 32 47q121 90 301 90t285 -85q104 -85 105 -247v-1012q0 -63 11 -83t56 -21l41 2l35 2l2 -18q-127 -12 -227 -45v16zM528 1898q68 0 125 -55t57 -127t-56 -127q-58 -55 -126 -55t-124 56t-56 127t56 126t124 55zM528 1843
q-45 0 -86 -39t-41 -87t41 -88t86 -40t86 39t41 88t-41 88t-86 39z" />
    <glyph glyph-name="ae" unicode="&#xe6;" horiz-adv-x="2238" 
d="M1507 1452q-262 0 -406.5 -157.5t-156.5 -458.5l1028 14q16 0 17 18q0 264 -132.5 424t-349.5 160zM760 799h-150q-172 0 -276.5 -121t-104.5 -318q0 -145 64.5 -233t176.5 -88t201 109.5t89 314.5v336zM760 836v348q0 131 -61.5 200.5t-170 69.5t-180.5 -37
q-139 -71 -147 -243l-6 -127h-37l22 483h21l-6 -109q-4 -49 -9 -65l15 -4q10 31 32 47q121 90 289 90t271.5 -68.5t121.5 -199.5q98 129 253 198.5t348 69.5q274 0 464.5 -174t190.5 -447v-10q0 -25 -18.5 -42t-45.5 -17h-1165v-25q0 -362 154.5 -558t421.5 -196
q205 0 362.5 83t247.5 235l29 -23q-96 -158 -263.5 -244.5t-400 -86.5t-420.5 129t-264 350h-12q0 -209 -99.5 -344t-266.5 -135t-273.5 103t-106.5 273q0 213 151.5 344.5t397.5 131.5h160z" />
    <glyph glyph-name="ccedilla" unicode="&#xe7;" horiz-adv-x="1335" 
d="M72 743q0 334 196 540q197 206 518 206q221 0 375 -131q14 -14 23 -41l14 4q-4 20 -6 59l-4 150h18l19 -592l-37 -2l-6 197q-8 93 -68 167t-151 114q-90 40 -193 40q-252 0 -384 -174t-132 -524t138 -542q138 -194 401 -194q151 0 277 76t177 205l35 -14
q-39 -98 -115 -168q-149 -137 -376 -135l-23 -111q33 14 70 14q82 0 129 -45q47 -46 47 -120t-94 -130t-230 -57l6 37q124 0 190 88q30 40 30 88q0 105 -90 105q-46 0 -76 -25l-27 4l31 152q-310 12 -496 218t-186 541z" />
    <glyph glyph-name="egrave" unicode="&#xe8;" horiz-adv-x="1542" 
d="M1292 868q0 262 -132 423t-349 161q-263 0 -407 -158t-156 -458l1028 14q16 0 16 18zM246 799v-25q0 -362 154 -558t425 -196q270 0 457 147q90 71 150 171l28 -23q-96 -159 -263 -245t-382 -86q-326 0 -539 210t-213 546t208 543q208 206 548 206q275 0 465 -174
t191 -447v-10q-1 -25 -19 -42t-45 -17h-1165zM645 1866q10 0 19 -11l241 -284l-18 -17l-240 222l-49 61l25 21q12 8 22 8z" />
    <glyph glyph-name="eacute" unicode="&#xe9;" horiz-adv-x="1542" 
d="M1292 868q0 262 -132 423t-349 161q-263 0 -407 -158t-156 -458l1028 14q16 0 16 18zM246 799v-25q0 -362 154 -558t425 -196q270 0 457 147q90 71 150 171l28 -23q-96 -159 -263 -245t-382 -86q-326 0 -539 210t-213 546t208 543q208 206 548 206q275 0 465 -174
t191 -447v-10q-1 -25 -19 -42t-45 -17h-1165zM694 1554l-18 17l242 284q15 19 40 3l25 -21l-49 -61z" />
    <glyph glyph-name="ecircumflex" unicode="&#xea;" horiz-adv-x="1542" 
d="M1292 868q0 262 -132 423t-349 161q-263 0 -407 -158t-156 -458l1028 14q16 0 16 18zM246 799v-25q0 -362 154 -558t425 -196q270 0 457 147q90 71 150 171l28 -23q-96 -159 -263 -245t-382 -86q-326 0 -539 210t-213 546t208 543q208 206 548 206q275 0 465 -174
t191 -447v-10q-1 -25 -19 -42t-45 -17h-1165zM795 1843h-9q0 -16 -102 -119l-100 -100l-31 37l209 205h57l211 -205l-31 -37l-100 100q-104 104 -104 119z" />
    <glyph glyph-name="edieresis" unicode="&#xeb;" horiz-adv-x="1542" 
d="M1292 868q0 262 -132 423t-349 161q-263 0 -407 -158t-156 -458l1028 14q16 0 16 18zM246 799v-25q0 -362 154 -558t425 -196q270 0 457 147q90 71 150 171l28 -23q-96 -159 -263 -245t-382 -86q-326 0 -539 210t-213 546t208 543q208 206 548 206q275 0 465 -174
t191 -447v-10q-1 -25 -19 -42t-45 -17h-1165zM990 1810q42 0 67 -24t25 -65q0 -43 -24 -67t-66 -24t-68 24t-25 66t25 66t66 24zM589 1810q41 0 67 -24t26 -65q0 -43 -25 -67t-67 -24t-66 24t-24 66t23 66q24 24 66 24z" />
    <glyph glyph-name="igrave" unicode="&#xec;" horiz-adv-x="593" 
d="M37 1454v19h522v-23h-72q-74 0 -92 -16t-18 -91v-1218q0 -74 18 -90t92 -17h72v-18h-522v18h72q74 0 91 16t17 91v1223q0 74 -17 90t-91 16h-72zM393 1550l-239 222l-50 61l25 20q27 18 41 -2l242 -284z" />
    <glyph glyph-name="iacute" unicode="&#xed;" horiz-adv-x="593" 
d="M37 1454v19h522v-23h-72q-74 0 -92 -16t-18 -91v-1218q0 -74 18 -90t92 -17h72v-18h-522v18h72q74 0 91 16t17 91v1223q0 74 -17 90t-91 16h-72zM201 1550l-19 17l242 284q16 20 41 2l24 -20l-49 -61z" />
    <glyph glyph-name="icircumflex" unicode="&#xee;" horiz-adv-x="593" 
d="M37 1454v19h522v-23h-72q-74 0 -92 -16t-18 -91v-1218q0 -74 18 -90t92 -17h72v-18h-522v18h72q74 0 91 16t17 91v1223q0 74 -17 90t-91 16h-72zM293 1839q0 -16 -103 -119l-100 -100l-31 37l209 205h58l211 -205l-31 -37l-100 100q-104 104 -105 119h-8z" />
    <glyph glyph-name="idieresis" unicode="&#xef;" horiz-adv-x="593" 
d="M37 1454v19h522v-23h-72q-74 0 -92 -16t-18 -91v-1218q0 -74 18 -90t92 -17h72v-18h-522v18h72q74 0 91 16t17 91v1223q0 74 -17 90t-91 16h-72zM497 1806q43 0 67 -24t24 -65q0 -43 -24 -67t-66 -24t-67 24t-25 66t24 66q25 24 67 24zM95 1806q42 0 68 -24
q25 -24 25 -65q0 -43 -24 -67t-67 -24t-67 24t-24 66t24 66t65 24z" />
    <glyph glyph-name="eth" unicode="&#xf0;" horiz-adv-x="1480" 
d="M37 0v18h72q74 0 91 18t17 91v588h-145l10 61h135v551q0 78 -18 103t-90 24h-72v19h577q360 0 580 -202t221 -534q0 -333 -220 -535t-581 -202h-577zM377 715v-580q0 -61 -35 -96v-2h217q332 0 506 179t174 520t-174 520t-506 180h-217v-2q35 -35 35 -97v-561h364
l-10 -61h-354z" />
    <glyph glyph-name="ntilde" unicode="&#xf1;" horiz-adv-x="1304" 
d="M37 0v18h72q69 0 86 16q16 16 19 34q3 20 3 59v1167q0 29 -18 47q-17 19 -35 19h-23l-121 -10l-2 12l158 33q66 12 109 51t43 98v8h16v-268q0 -178 -4 -215h14q6 55 33 133q45 131 147 209t246 78q146 0 236 -84t90 -225v-1053q0 -74 17 -91t91 -18h74v-18h-522v18h199v5
q-18 18 -19 53v1069q0 309 -201 309q-160 0 -264 -139t-104 -361v-827q0 -74 18 -91t92 -18h72v-18h-522zM786 1620q-47 0 -109 38q-61 38 -119 75t-91 36q-45 0 -64 -67l-16 -64l-33 9l17 63q20 76 50 104t75 28t107 -38q61 -36 119 -74t93 -38q51 0 72 80l16 61l33 -8
l-16 -62q-23 -83 -55 -113t-79 -30z" />
    <glyph glyph-name="ograve" unicode="&#xf2;" horiz-adv-x="1642" 
d="M242 756q0 -348 150 -542t433 -194t429 174t146 523q0 347 -150 541q-152 194 -434 194t-428 -174t-146 -522zM1579 736q0 -340 -208 -546t-549 -206t-550 206t-209 546q0 339 209 546t550 207t549 -207t208 -546zM678 1866q10 0 18 -11l242 -284l-18 -17l-240 222
l-49 61l24 21q13 8 23 8z" />
    <glyph glyph-name="oacute" unicode="&#xf3;" horiz-adv-x="1642" 
d="M242 756q0 -348 150 -542t433 -194t429 174t146 523q0 347 -150 541q-152 194 -434 194t-428 -174t-146 -522zM1579 736q0 -340 -208 -546t-549 -206t-550 206t-209 546q0 339 209 546t550 207t549 -207t208 -546zM727 1554l-18 17l241 284q16 20 41 3l25 -21l-49 -61z
" />
    <glyph glyph-name="ocircumflex" unicode="&#xf4;" horiz-adv-x="1642" 
d="M242 756q0 -348 150 -542t433 -194t429 174t146 523q0 347 -150 541q-152 194 -434 194t-428 -174t-146 -522zM1579 736q0 -340 -208 -546t-549 -206t-550 206t-209 546q0 339 209 546t550 207t549 -207t208 -546zM819 1843q0 -16 -102 -119l-101 -100l-30 37l209 205h57
l211 -205l-31 -37l-100 100q-104 104 -105 119h-8z" />
    <glyph glyph-name="otilde" unicode="&#xf5;" horiz-adv-x="1642" 
d="M242 756q0 -348 150 -542t433 -194t429 174t146 523q0 347 -150 541q-152 194 -434 194t-428 -174t-146 -522zM1579 736q0 -340 -208 -546t-549 -206t-550 206t-209 546q0 339 209 546t550 207t549 -207t208 -546zM962 1624q-46 0 -108 38t-120 75t-91 37q-45 0 -63 -68
l-17 -64l-33 9l17 63q20 76 50 104t75 28t107 -38q61 -36 119 -74t93 -38q51 0 72 80l16 61l33 -8l-16 -62q-23 -83 -55 -113q-33 -30 -79 -30z" />
    <glyph glyph-name="odieresis" unicode="&#xf6;" horiz-adv-x="1642" 
d="M242 756q0 -348 150 -542t433 -194t429 174t146 523q0 347 -150 541q-152 194 -434 194t-428 -174t-146 -522zM1579 736q0 -340 -208 -546t-549 -206t-550 206t-209 546q0 339 209 546t550 207t549 -207t208 -546zM1023 1810q42 0 67 -24q24 -24 24 -65q0 -43 -24 -67
t-65 -24q-42 0 -68 24q-25 24 -25 66t24 66q25 24 67 24zM532 1720q0 42 24 66t66 24t68 -24t25 -65q0 -43 -25 -67q-24 -24 -66 -24t-67 24t-25 66z" />
    <glyph glyph-name="divide" unicode="&#xf7;" horiz-adv-x="952" 
d="M573 899q-1 -41 -25 -65t-59 -25q-98 0 -98 90q0 41 24 67q23 26 67 26t71 -31v339h20v-401zM480 391q42 -1 68 -25t26 -66t-26 -67q-24 -25 -66 -25t-66 24t-25 66t23 68t66 25zM-246 616v21h1127l-9 -74h-800l8 53h-326z" />
    <glyph glyph-name="oslash" unicode="&#xf8;" horiz-adv-x="1642" 
d="M393 213l819 1090q-146 149 -412 149t-412 -174t-146 -522t151 -543zM842 20q266 0 412 174t146 524q0 349 -151 542l-819 -1090q146 -150 412 -150zM63 737q0 338 209 545t551 207q254 0 439 -119l153 203l45 -33l-151 -203q194 -151 252 -415q18 -88 18 -185
q0 -340 -208 -547t-548 -206q-256 0 -444 120l-152 -202l-45 32l152 203q-129 98 -200 253t-71 347z" />
    <glyph glyph-name="ugrave" unicode="&#xf9;" horiz-adv-x="1247" 
d="M952 401h-16q-30 -211 -142 -314t-267 -103t-249 81t-96 228v1040q0 61 -61 62h-96v18h116q76 0 132 26t57 83v8h16v-1219q0 -139 54 -215t147 -76q166 0 266 144t100 379v803q0 74 -18 91t-92 17h-35v19l317 8v-17q-8 -82 -8 -108v-1211q1 -74 19 -91t92 -17h35v-19
q-141 -6 -277 -36v16q8 82 8 117v32l-2 246v8zM705 1550l-240 222l-49 61l24 20q27 18 41 -2l242 -284z" />
    <glyph glyph-name="uacute" unicode="&#xfa;" horiz-adv-x="1247" 
d="M952 401h-16q-30 -211 -142 -314t-267 -103t-249 81t-96 228v1040q0 61 -61 62h-96v18h116q76 0 132 26t57 83v8h16v-1219q0 -139 54 -215t147 -76q166 0 266 144t100 379v803q0 74 -18 91t-92 17h-35v19l317 8v-17q-8 -82 -8 -108v-1211q1 -74 19 -91t92 -17h35v-19
q-141 -6 -277 -36v16q8 82 8 117v32l-2 246v8zM512 1550l-18 17l241 284q16 20 41 2l25 -20l-49 -61z" />
    <glyph glyph-name="ucircumflex" unicode="&#xfb;" horiz-adv-x="1247" 
d="M952 401h-16q-30 -211 -142 -314t-267 -103t-249 81t-96 228v1040q0 61 -61 62h-96v18h116q76 0 132 26t57 83v8h16v-1219q0 -139 54 -215t147 -76q166 0 266 144t100 379v803q0 74 -18 91t-92 17h-35v19l317 8v-17q-8 -82 -8 -108v-1211q1 -74 19 -91t92 -17h35v-19
q-141 -6 -277 -36v16q8 82 8 117v32l-2 246v8zM604 1839q0 -16 -102 -119l-101 -100l-30 37l209 205h57l211 -205l-31 -37l-100 100q-104 104 -105 119h-8z" />
    <glyph glyph-name="udieresis" unicode="&#xfc;" horiz-adv-x="1247" 
d="M952 401h-16q-30 -211 -142 -314t-267 -103t-249 81t-96 228v1040q0 61 -61 62h-96v18h116q76 0 132 26t57 83v8h16v-1219q0 -139 54 -215t147 -76q166 0 266 144t100 379v803q0 74 -18 91t-92 17h-35v19l317 8v-17q-8 -82 -8 -108v-1211q1 -74 19 -91t92 -17h35v-19
q-141 -6 -277 -36v16q8 82 8 117v32l-2 246v8zM808 1806q42 0 66 -24t25 -65q1 -43 -23 -67t-66 -24t-68 24t-26 66t25 66t67 24zM317 1716q0 42 24 66t66 24q41 0 67 -24t26 -65q0 -43 -25 -67t-67 -24t-66 24q-25 24 -25 66z" />
    <glyph glyph-name="yacute" unicode="&#xfd;" horiz-adv-x="1177" 
d="M236 0v16h176q74 0 91 18t17 91v569l-321 619q-6 12 -22 42l-19 38q-32 63 -95 63h-43v17h388v-17h-127v-4q29 -10 84 -115l264 -503q23 -41 26 -66h15q2 18 26 66l246 475q31 57 31 90q0 57 -88 57h-123v17h395v-17h-35q-56 0 -90 -58q-14 -24 -47 -87l-303 -586v-600
q0 -74 17 -91t92 -18h151v-16h-706zM518 1554l-18 17l241 284q16 20 41 3l25 -21l-49 -61z" />
    <glyph glyph-name="thorn" unicode="&#xfe;" horiz-adv-x="1099" 
d="M377 467h94q195 0 296 100q101 101 101 291t-101 290t-296 101h-94v-782zM37 0v18h72q74 0 91 18t17 91v1221q0 74 -17 90t-91 16h-72v19h522v-23h-72q-74 0 -92 -16t-18 -91v-55h155q230 0 372 -119t142 -311t-140 -310q-142 -118 -374 -118h-155v-303q0 -74 18 -91
t92 -18h52v-18h-502z" />
    <glyph glyph-name="ydieresis" unicode="&#xff;" horiz-adv-x="1177" 
d="M236 0v16h176q74 0 91 18t17 91v569l-321 619q-6 12 -22 42l-19 38q-32 63 -95 63h-43v17h388v-17h-127v-4q29 -10 84 -115l264 -503q23 -41 26 -66h15q2 18 26 66l246 475q31 57 31 90q0 57 -88 57h-123v17h395v-17h-35q-56 0 -90 -58q-14 -24 -47 -87l-303 -586v-600
q0 -74 17 -91t92 -18h151v-16h-706zM814 1810q42 0 67 -24t25 -65q0 -43 -24 -67t-66 -24t-68 24t-25 66t25 66t66 24zM413 1810q41 0 67 -24t26 -65q0 -43 -25 -67t-67 -24t-66 24t-24 66t23 66q24 24 66 24z" />
    <glyph glyph-name="Amacron" unicode="&#x100;" horiz-adv-x="1552" 
d="M725 1372q0 -25 -25 -82l-372 -854h780l-348 854q-16 37 -17 82h-18zM16 0v18h33q57 0 113 127l575 1328h158v-25q0 -74 18 -119l484 -1184q39 -94 58 -110t63 -17h16v-18h-391v18h157v5q-29 10 -63 96l-115 280h-811l-110 -254q-27 -69 16 -104q27 -23 72 -23h100v-18
h-373zM1077 1692h-559l4 53h559z" />
    <glyph glyph-name="amacron" unicode="&#x101;" horiz-adv-x="1103" 
d="M760 709h-150q-172 0 -276 -108t-105 -282q0 -127 65 -203q64 -76 176 -77t201 109t89 315v246zM842 -2q0 51 -20 169q-19 118 -19 148h-21q-82 -332 -344 -331q-168 0 -278 93t-109 242q0 193 151 310t398 116h160v439q0 268 -242 268q-147 0 -229 -77t-88 -201l-6 -127
h-37l22 483h21l-6 -109q-4 -49 -9 -65l15 -4q10 31 32 47q121 90 301 90t285 -85q104 -85 105 -247v-1012q0 -63 11 -83t56 -21l41 2l35 2l2 -18q-127 -12 -227 -45v16zM807 1692h-559l4 53h559z" />
    <glyph glyph-name="Abreve" unicode="&#x102;" horiz-adv-x="1552" 
d="M725 1372q0 -25 -25 -82l-372 -854h780l-348 854q-16 37 -17 82h-18zM16 0v18h33q57 0 113 127l575 1328h158v-25q0 -74 18 -119l484 -1184q39 -94 58 -110t63 -17h16v-18h-391v18h157v5q-29 10 -63 96l-115 280h-811l-110 -254q-27 -69 16 -104q27 -23 72 -23h100v-18
h-373zM516 1839l37 19q249 -368 500 0l28 -19q-47 -104 -123 -171t-159 -66q-156 -1 -283 237z" />
    <glyph glyph-name="abreve" unicode="&#x103;" horiz-adv-x="1103" 
d="M760 709h-150q-172 0 -276 -108t-105 -282q0 -127 65 -203q64 -76 176 -77t201 109t89 315v246zM842 -2q0 51 -20 169q-19 118 -19 148h-21q-82 -332 -344 -331q-168 0 -278 93t-109 242q0 193 151 310t398 116h160v439q0 268 -242 268q-147 0 -229 -77t-88 -201l-6 -127
h-37l22 483h21l-6 -109q-4 -49 -9 -65l15 -4q10 31 32 47q121 90 301 90t285 -85q104 -85 105 -247v-1012q0 -63 11 -83t56 -21l41 2l35 2l2 -18q-127 -12 -227 -45v16zM246 1839l37 19q248 -367 499 0l29 -19q-47 -104 -123 -171t-160 -66q-155 -1 -282 237z" />
    <glyph glyph-name="Aogonek" unicode="&#x104;" horiz-adv-x="1552" 
d="M725 1372q0 -25 -25 -82l-372 -854h780l-348 854q-16 37 -17 82h-18zM16 0v18h33q57 0 113 127l575 1328h158v-25q0 -74 18 -119l484 -1184q30 -76 45 -98q16 -22 32 -25t44 -4h16v-18h-43q-158 0 -235 -76t-76 -196q0 -68 43 -110t103 -42t130 23l10 -35
q-92 -29 -147 -29q-104 0 -168 51q-63 51 -63 142q0 92 68 166q69 74 175 110v25q-70 25 -94 90l-115 280h-811l-110 -254q-27 -69 16 -104q27 -23 72 -23h100v-18h-373z" />
    <glyph glyph-name="aogonek" unicode="&#x105;" horiz-adv-x="1103" 
d="M760 709h-150q-172 0 -276 -108t-105 -282q0 -127 65 -203q64 -76 176 -77t201 109t89 315v246zM760 1184q0 270 -252 270q-88 0 -160 -37q-139 -71 -147 -243l-6 -127h-37l22 483h21l-6 -109q-4 -49 -9 -65l15 -4q10 31 32 47q121 90 301 90t285 -85q104 -85 105 -247
v-1012q0 -45 4 -64q8 -40 63 -40l41 2l35 2l2 -18q-43 -4 -82 -13q-96 -18 -162 -98q-65 -80 -65 -181t75 -139q75 -39 201 3l11 -35q-94 -29 -148 -29q-104 0 -168 51q-63 51 -63 133q0 127 174 250v29q0 51 -20 169q-19 118 -19 148h-21q-82 -332 -344 -331
q-168 0 -278 93t-109 242q0 193 151 310t398 116h160v439z" />
    <glyph glyph-name="Cacute" unicode="&#x106;" horiz-adv-x="1335" 
d="M72 739q0 338 196 544q197 206 518 206q221 0 375 -131q14 -14 23 -41l14 4q-4 20 -6 59l-4 150h18l19 -592l-37 -2l-6 190q-4 90 -64 166t-154 119q-93 43 -194 43q-252 0 -384 -174t-132 -524t138 -542q138 -194 401 -194q151 0 277 76t177 205l35 -14
q-57 -147 -191 -225t-303 -78q-322 0 -519 208t-197 547zM702 1554l-18 17l242 284q15 19 41 3l24 -21l-49 -61z" />
    <glyph glyph-name="cacute" unicode="&#x107;" horiz-adv-x="1335" 
d="M72 739q0 338 196 544q197 206 518 206q221 0 375 -131q14 -14 23 -41l14 4q-4 20 -6 59l-4 150h18l19 -592l-37 -2l-6 190q-4 90 -64 166t-154 119q-93 43 -194 43q-252 0 -384 -174t-132 -524t138 -542q138 -194 401 -194q151 0 277 76t177 205l35 -14
q-57 -147 -191 -225t-303 -78q-322 0 -519 208t-197 547zM702 1554l-18 17l242 284q15 19 41 3l24 -21l-49 -61z" />
    <glyph glyph-name="Ccircumflex" unicode="&#x108;" horiz-adv-x="1335" 
d="M72 739q0 338 196 544q197 206 518 206q221 0 375 -131q14 -14 23 -41l14 4q-4 20 -6 59l-4 150h18l19 -592l-37 -2l-6 190q-4 90 -64 166t-154 119q-93 43 -194 43q-252 0 -384 -174t-132 -524t138 -542q138 -194 401 -194q151 0 277 76t177 205l35 -14
q-57 -147 -191 -225t-303 -78q-322 0 -519 208t-197 547zM803 1843h-8q0 -16 -103 -119l-100 -100l-31 37l209 205h57l211 -205l-30 -37l-101 100q-104 104 -104 119z" />
    <glyph glyph-name="ccircumflex" unicode="&#x109;" horiz-adv-x="1335" 
d="M72 739q0 338 196 544q197 206 518 206q221 0 375 -131q14 -14 23 -41l14 4q-4 20 -6 59l-4 150h18l19 -592l-37 -2l-6 190q-4 90 -64 166t-154 119q-93 43 -194 43q-252 0 -384 -174t-132 -524t138 -542q138 -194 401 -194q151 0 277 76t177 205l35 -14
q-57 -147 -191 -225t-303 -78q-322 0 -519 208t-197 547zM803 1843h-8q0 -16 -103 -119l-100 -100l-31 37l209 205h57l211 -205l-30 -37l-101 100q-104 104 -104 119z" />
    <glyph glyph-name="Cdotaccent" unicode="&#x10a;" horiz-adv-x="1335" 
d="M72 739q0 338 196 544q197 206 518 206q221 0 375 -131q14 -14 23 -41l14 4q-4 20 -6 59l-4 150h18l19 -592l-37 -2l-6 190q-4 90 -64 166t-154 119q-93 43 -194 43q-252 0 -384 -174t-132 -524t138 -542q138 -194 401 -194q151 0 277 76t177 205l35 -14
q-57 -147 -191 -225t-303 -78q-322 0 -519 208t-197 547zM798 1847q42 1 66 -23t25 -66q0 -42 -24 -68q-23 -26 -65 -25q-42 0 -68 25q-26 24 -26 66t25 67q25 24 67 24z" />
    <glyph glyph-name="cdotaccent" unicode="&#x10b;" horiz-adv-x="1335" 
d="M72 739q0 338 196 544q197 206 518 206q221 0 375 -131q14 -14 23 -41l14 4q-4 20 -6 59l-4 150h18l19 -592l-37 -2l-6 190q-4 90 -64 166t-154 119q-93 43 -194 43q-252 0 -384 -174t-132 -524t138 -542q138 -194 401 -194q151 0 277 76t177 205l35 -14
q-57 -147 -191 -225t-303 -78q-322 0 -519 208t-197 547zM798 1847q42 1 66 -23t25 -66q0 -42 -24 -68q-23 -26 -65 -25q-42 0 -68 25q-26 24 -26 66t25 67q25 24 67 24z" />
    <glyph glyph-name="Ccaron" unicode="&#x10c;" horiz-adv-x="1335" 
d="M72 739q0 338 196 544q197 206 518 206q221 0 375 -131q14 -14 23 -41l14 4q-4 20 -6 59l-4 150h18l19 -592l-37 -2l-6 190q-4 90 -64 166t-154 119q-93 43 -194 43q-252 0 -384 -174t-132 -524t138 -542q138 -194 401 -194q151 0 277 76t177 205l35 -14
q-57 -147 -191 -225t-303 -78q-322 0 -519 208t-197 547zM803 1636q0 14 104 119l101 100l30 -36l-211 -205h-57l-209 205l31 36l100 -100q102 -102 103 -119h8z" />
    <glyph glyph-name="ccaron" unicode="&#x10d;" horiz-adv-x="1335" 
d="M72 739q0 338 196 544q197 206 518 206q221 0 375 -131q14 -14 23 -41l14 4q-4 20 -6 59l-4 150h18l19 -592l-37 -2l-6 190q-4 90 -64 166t-154 119q-93 43 -194 43q-252 0 -384 -174t-132 -524t138 -542q138 -194 401 -194q151 0 277 76t177 205l35 -14
q-57 -147 -191 -225t-303 -78q-322 0 -519 208t-197 547zM803 1636q0 14 104 119l101 100l30 -36l-211 -205h-57l-209 205l31 36l100 -100q102 -102 103 -119h8z" />
    <glyph glyph-name="Dcaron" unicode="&#x10e;" horiz-adv-x="1480" 
d="M37 0v18h72q74 0 91 18t17 91v1200q0 78 -18 103t-90 24h-72v19h577q360 0 580 -202t221 -534q0 -333 -220 -535t-581 -202h-577zM342 37h217q332 0 506 179t174 520t-174 520t-506 180h-217v-2q35 -35 35 -97v-1202q0 -61 -35 -96v-2zM641 1632q0 14 104 119l101 100
l31 -36l-211 -205h-58l-209 205l31 36l100 -100q102 -102 103 -119h8z" />
    <glyph glyph-name="dcaron" unicode="&#x10f;" horiz-adv-x="1480" 
d="M37 0v18h72q74 0 91 18t17 91v1200q0 78 -18 103t-90 24h-72v19h577q360 0 580 -202t221 -534q0 -333 -220 -535t-581 -202h-577zM342 37h217q332 0 506 179t174 520t-174 520t-506 180h-217v-2q35 -35 35 -97v-1202q0 -61 -35 -96v-2zM641 1632q0 14 104 119l101 100
l31 -36l-211 -205h-58l-209 205l31 36l100 -100q102 -102 103 -119h8z" />
    <glyph glyph-name="Dcroat" unicode="&#x110;" horiz-adv-x="1480" 
d="M37 0v18h72q74 0 91 18t17 91v588h-145l10 61h135v551q0 78 -18 103t-90 24h-72v19h577q360 0 580 -202t221 -534q0 -333 -220 -535t-581 -202h-577zM377 715v-580q0 -61 -35 -96v-2h217q332 0 506 179t174 520t-174 520t-506 180h-217v-2q35 -35 35 -97v-561h364
l-10 -61h-354z" />
    <glyph glyph-name="dcroat" unicode="&#x111;" horiz-adv-x="1480" 
d="M37 0v18h72q74 0 91 18t17 91v588h-145l10 61h135v551q0 78 -18 103t-90 24h-72v19h577q360 0 580 -202t221 -534q0 -333 -220 -535t-581 -202h-577zM377 715v-580q0 -61 -35 -96v-2h217q332 0 506 179t174 520t-174 520t-506 180h-217v-2q35 -35 35 -97v-561h364
l-10 -61h-354z" />
    <glyph glyph-name="Emacron" unicode="&#x112;" horiz-adv-x="1130" 
d="M698 422h-18v113q0 133 -58 176t-163 43h-82v-609q0 -61 -45 -106v-2h407q150 -1 223 65t82 211l13 164h33l-35 -555l-19 2l6 94h-2q-18 -18 -75 -18h-928v18h72q74 0 91 18t17 91v1219q0 74 -17 91t-91 17h-72v19h817q57 0 76 -19h2l-6 94l18 2l37 -555h-37l-8 144
q-8 161 -85 229t-230 68h-289v-2q45 -45 45 -107v-536h82q106 0 164 42q57 42 57 175v71h18v-657zM874 1692h-559l4 53h560z" />
    <glyph glyph-name="emacron" unicode="&#x113;" horiz-adv-x="1542" 
d="M1292 868q0 262 -132 423t-349 161q-263 0 -407 -158t-156 -458l1028 14q16 0 16 18zM246 799v-25q0 -362 154 -558t425 -196q270 0 457 147q90 71 150 171l28 -23q-96 -159 -263 -245t-382 -86q-326 0 -539 210t-213 546t208 543q208 206 548 206q275 0 465 -174
t191 -447v-10q-1 -25 -19 -42t-45 -17h-1165zM1069 1696h-559l4 53h559z" />
    <glyph glyph-name="Ebreve" unicode="&#x114;" horiz-adv-x="1130" 
d="M698 422h-18v113q0 133 -58 176t-163 43h-82v-609q0 -61 -45 -106v-2h407q150 -1 223 65t82 211l13 164h33l-35 -555l-19 2l6 94h-2q-18 -18 -75 -18h-928v18h72q74 0 91 18t17 91v1219q0 74 -17 91t-91 17h-72v19h817q57 0 76 -19h2l-6 94l18 2l37 -555h-37l-8 144
q-8 161 -85 229t-230 68h-289v-2q45 -45 45 -107v-536h82q106 0 164 42q57 42 57 175v71h18v-657zM313 1839l37 19q249 -368 500 0l29 -19q-47 -104 -123 -171t-160 -66q-156 -1 -283 237z" />
    <glyph glyph-name="ebreve" unicode="&#x115;" horiz-adv-x="1542" 
d="M1292 868q0 262 -132 423t-349 161q-263 0 -407 -158t-156 -458l1028 14q16 0 16 18zM246 799v-25q0 -362 154 -558t425 -196q270 0 457 147q90 71 150 171l28 -23q-96 -159 -263 -245t-382 -86q-326 0 -539 210t-213 546t208 543q208 206 548 206q275 0 465 -174
t191 -447v-10q-1 -25 -19 -42t-45 -17h-1165zM508 1843l37 19q249 -369 499 0l29 -19q-47 -104 -123 -171t-159 -66q-156 -1 -283 237z" />
    <glyph glyph-name="Edotaccent" unicode="&#x116;" horiz-adv-x="1130" 
d="M698 422h-18v113q0 133 -58 176t-163 43h-82v-609q0 -61 -45 -106v-2h407q150 -1 223 65t82 211l13 164h33l-35 -555l-19 2l6 94h-2q-18 -18 -75 -18h-928v18h72q74 0 91 18t17 91v1219q0 74 -17 91t-91 17h-72v19h817q57 0 76 -19h2l-6 94l18 2l37 -555h-37l-8 144
q-8 161 -85 229t-230 68h-289v-2q45 -45 45 -107v-536h82q106 0 164 42q57 42 57 175v71h18v-657zM595 1843q42 1 67 -23q24 -24 24 -66t-24 -68t-65 -25q-42 0 -68 25q-25 24 -25 66t24 67q25 24 67 24z" />
    <glyph glyph-name="edotaccent" unicode="&#x117;" horiz-adv-x="1542" 
d="M1292 868q0 262 -132 423t-349 161q-263 0 -407 -158t-156 -458l1028 14q16 0 16 18zM246 799v-25q0 -362 154 -558t425 -196q270 0 457 147q90 71 150 171l28 -23q-96 -159 -263 -245t-382 -86q-326 0 -539 210t-213 546t208 543q208 206 548 206q275 0 465 -174
t191 -447v-10q-1 -25 -19 -42t-45 -17h-1165zM698 1756q0 42 25 66t67 25t66 -23t25 -66q0 -42 -24 -68q-23 -26 -65 -25q-42 0 -68 25q-26 24 -26 66z" />
    <glyph glyph-name="Eogonek" unicode="&#x118;" horiz-adv-x="1130" 
d="M885 -465q-104 0 -169 51t-65 140q-1 89 61 161t158 113l-2 12l-129 -12h-702v18h72q74 0 91 18t17 91v1219q0 74 -17 91t-91 17h-72v19h817q57 0 76 -19h2l-6 94l18 2l37 -555h-37l-8 144q-8 161 -86 229t-229 68h-289v-2q45 -45 45 -107v-536h82q106 0 164 42
q57 42 57 175v71h18v-657h-18v113q0 133 -58 176t-163 43h-82v-609q0 -61 -45 -106v-2h407q150 -1 223 65t82 211l13 164h33l-29 -459q-19 -18 -61 -18t-80 -14t-78 -44q-41 -30 -69 -86t-28 -126t43 -112q44 -42 104 -42t128 23l12 -35q-94 -29 -147 -29z" />
    <glyph glyph-name="eogonek" unicode="&#x119;" horiz-adv-x="1542" 
d="M1292 868q0 264 -132 424t-349 160q-263 0 -407 -158t-156 -458l1028 14q16 0 16 18zM246 799v-25q0 -362 154 -558t421 -196q205 0 363 83t248 235l28 -23q-115 -190 -327 -274q-96 -37 -161 -121t-65 -192q0 -68 43 -110q44 -42 104 -42t130 23l10 -35
q-92 -29 -147 -29q-104 0 -168 51q-63 51 -64 133q0 168 191 283q-92 -18 -191 -18q-326 0 -539 210t-213 546t208 543q208 206 548 206q275 0 465 -174t191 -447v-10q-1 -25 -19 -42t-45 -17h-1165z" />
    <glyph glyph-name="Ecaron" unicode="&#x11a;" horiz-adv-x="1130" 
d="M698 422h-18v113q0 133 -58 176t-163 43h-82v-609q0 -61 -45 -106v-2h407q150 -1 223 65t82 211l13 164h33l-35 -555l-19 2l6 94h-2q-18 -18 -75 -18h-928v18h72q74 0 91 18t17 91v1219q0 74 -17 91t-91 17h-72v19h817q57 0 76 -19h2l-6 94l18 2l37 -555h-37l-8 144
q-8 161 -85 229t-230 68h-289v-2q45 -45 45 -107v-536h82q106 0 164 42q57 42 57 175v71h18v-657zM600 1632q0 14 105 119l100 100l31 -36l-211 -205h-58l-209 205l31 36l100 -100q102 -102 103 -119h8z" />
    <glyph glyph-name="ecaron" unicode="&#x11b;" horiz-adv-x="1542" 
d="M1292 868q0 262 -132 423t-349 161q-263 0 -407 -158t-156 -458l1028 14q16 0 16 18zM246 799v-25q0 -362 154 -558t425 -196q270 0 457 147q90 71 150 171l28 -23q-96 -159 -263 -245t-382 -86q-326 0 -539 210t-213 546t208 543q208 206 548 206q275 0 465 -174
t191 -447v-10q-1 -25 -19 -42t-45 -17h-1165zM786 1636h9q0 14 104 119l100 100l31 -36l-211 -205h-57l-209 205l31 36l100 -100q102 -102 102 -119z" />
    <glyph glyph-name="Gcircumflex" unicode="&#x11c;" horiz-adv-x="1486" 
d="M1307 -82h-19v143q-2 39 -25 70q-24 31 -56 31t-60 -29q-139 -150 -365 -149q-322 0 -518 208t-196 546q0 339 193 545q194 206 509 206q221 0 375 -129q14 -12 22 -39l9 2q-6 25 -7 47l-10 199l21 2l32 -631l-34 -2l-9 135q-10 175 -133 277t-286 102q-246 0 -375 -173
t-129 -523t139 -542q139 -194 406 -194q231 4 354 168v269q0 86 -52 138t-139 52h-237v37h764v-37h-174v-729zM774 1843q0 -16 -102 -119l-101 -100l-30 37l209 205h57l211 -205l-31 -37l-100 100q-104 104 -105 119h-8z" />
    <glyph glyph-name="gcircumflex" unicode="&#x11d;" horiz-adv-x="1486" 
d="M1307 -82h-19v143q-2 39 -25 70q-24 31 -56 31t-60 -29q-139 -150 -365 -149q-322 0 -518 208t-196 546q0 339 193 545q194 206 509 206q221 0 375 -129q14 -12 22 -39l9 2q-6 25 -7 47l-10 199l21 2l32 -631l-34 -2l-9 135q-10 175 -133 277t-286 102q-246 0 -375 -173
t-129 -523t139 -542q139 -194 406 -194q231 4 354 168v269q0 86 -52 138t-139 52h-237v37h764v-37h-174v-729zM774 1843q0 -16 -102 -119l-101 -100l-30 37l209 205h57l211 -205l-31 -37l-100 100q-104 104 -105 119h-8z" />
    <glyph glyph-name="Gbreve" unicode="&#x11e;" horiz-adv-x="1486" 
d="M1307 -82h-19v143q-2 39 -25 70q-24 31 -56 31t-60 -29q-139 -150 -365 -149q-322 0 -518 208t-196 546q0 339 193 545q194 206 509 206q221 0 375 -129q14 -12 22 -39l9 2q-6 25 -7 47l-10 199l21 2l32 -631l-34 -2l-9 135q-10 175 -133 277t-286 102q-246 0 -375 -173
t-129 -523t139 -542q139 -194 406 -194q231 4 354 168v269q0 86 -52 138t-139 52h-237v37h764v-37h-174v-729zM496 1843l36 19q249 -368 500 0l29 -19q-47 -104 -123 -171t-160 -66q-155 -1 -282 237z" />
    <glyph glyph-name="gbreve" unicode="&#x11f;" horiz-adv-x="1486" 
d="M1307 -82h-19v143q-2 39 -25 70q-24 31 -56 31t-60 -29q-139 -150 -365 -149q-322 0 -518 208t-196 546q0 339 193 545q194 206 509 206q221 0 375 -129q14 -12 22 -39l9 2q-6 25 -7 47l-10 199l21 2l32 -631l-34 -2l-9 135q-10 175 -133 277t-286 102q-246 0 -375 -173
t-129 -523t139 -542q139 -194 406 -194q231 4 354 168v269q0 86 -52 138t-139 52h-237v37h764v-37h-174v-729zM496 1843l36 19q249 -368 500 0l29 -19q-47 -104 -123 -171t-160 -66q-155 -1 -282 237z" />
    <glyph glyph-name="Gdotaccent" unicode="&#x120;" horiz-adv-x="1486" 
d="M1307 -82h-19v143q-2 39 -25 70q-24 31 -56 31t-60 -29q-139 -150 -365 -149q-322 0 -518 208t-196 546q0 339 193 545q194 206 509 206q221 0 375 -129q14 -12 22 -39l9 2q-6 25 -7 47l-10 199l21 2l32 -631l-34 -2l-9 135q-10 175 -133 277t-286 102q-246 0 -375 -173
t-129 -523t139 -542q139 -194 406 -194q231 4 354 168v269q0 86 -52 138t-139 52h-237v37h764v-37h-174v-729zM777 1847q42 1 67 -23q24 -24 24 -66t-24 -68t-65 -25q-41 0 -67 25q-26 24 -26 66t24 66t67 25z" />
    <glyph glyph-name="gdotaccent" unicode="&#x121;" horiz-adv-x="1486" 
d="M1307 -82h-19v143q-2 39 -25 70q-24 31 -56 31t-60 -29q-139 -150 -365 -149q-322 0 -518 208t-196 546q0 339 193 545q194 206 509 206q221 0 375 -129q14 -12 22 -39l9 2q-6 25 -7 47l-10 199l21 2l32 -631l-34 -2l-9 135q-10 175 -133 277t-286 102q-246 0 -375 -173
t-129 -523t139 -542q139 -194 406 -194q231 4 354 168v269q0 86 -52 138t-139 52h-237v37h764v-37h-174v-729zM777 1847q42 1 67 -23q24 -24 24 -66t-24 -68t-65 -25q-41 0 -67 25q-26 24 -26 66t24 66t67 25z" />
    <glyph glyph-name="Gcommaaccent" unicode="&#x122;" horiz-adv-x="1486" 
d="M1307 -82h-19v143q-2 39 -25 70q-24 31 -56 31t-60 -29q-139 -150 -365 -149q-322 0 -518 208t-196 546q0 339 193 545q194 206 509 206q221 0 375 -129q14 -12 22 -39l9 2q-6 25 -7 47l-10 199l21 2l32 -631l-34 -2l-9 135q-10 175 -133 277t-286 102q-246 0 -375 -173
t-129 -523t139 -542q139 -194 406 -194q231 4 354 168v269q0 86 -52 138t-139 52h-237v37h764v-37h-174v-729zM692 -446q41 0 75 34t42 78l8 45l-6 4q-10 -14 -41 -14q-92 0 -92 91t92 91q41 1 66 -25t24 -67q0 -115 -46 -185t-122 -71v19z" />
    <glyph glyph-name="gcommaaccent" unicode="&#x123;" horiz-adv-x="1486" 
d="M692 -446q41 0 75 34t42 78l8 45l-6 4q-10 -14 -41 -14q-92 0 -92 91t92 91q41 1 66 -25t24 -67q0 -115 -46 -185t-122 -71v19zM1307 -82h-19v143q-2 39 -25 70q-24 31 -56 31t-60 -29q-139 -150 -365 -149q-322 0 -518 208t-196 546q0 339 193 545q194 206 509 206
q221 0 375 -129q14 -12 22 -39l9 2q-6 25 -7 47l-10 199l21 2l32 -631l-34 -2l-9 135q-10 175 -133 277t-286 102q-246 0 -375 -173t-129 -523t139 -542q139 -194 406 -194q231 4 354 168v269q0 86 -52 138t-139 52h-237v37h764v-37h-174v-729z" />
    <glyph glyph-name="Hcircumflex" unicode="&#x124;" horiz-adv-x="1314" 
d="M37 0v18h72q72 0 90 25t18 102v1182q0 78 -18 103t-90 24h-72v19h504v-19h-54q-72 0 -91 -24t-19 -103v-534h561v534q0 78 -19 103t-92 24h-53v19h506v-19h-74q-72 0 -90 -24t-18 -103v-1182q0 -79 18 -103t90 -24h74v-18h-506v18h55q72 0 91 25q18 25 18 102v611h-561
v-611q0 -79 19 -103t91 -24h54v-18h-504zM662 1843h-9q0 -16 -102 -119l-100 -100l-31 37l209 205h57l211 -205l-31 -37l-100 100q-104 104 -104 119z" />
    <glyph glyph-name="hcircumflex" unicode="&#x125;" horiz-adv-x="1314" 
d="M37 0v18h72q72 0 90 25t18 102v1182q0 78 -18 103t-90 24h-72v19h504v-19h-54q-72 0 -91 -24t-19 -103v-534h561v534q0 78 -19 103t-92 24h-53v19h506v-19h-74q-72 0 -90 -24t-18 -103v-1182q0 -79 18 -103t90 -24h74v-18h-506v18h55q72 0 91 25q18 25 18 102v611h-561
v-611q0 -79 19 -103t91 -24h54v-18h-504zM662 1843h-9q0 -16 -102 -119l-100 -100l-31 37l209 205h57l211 -205l-31 -37l-100 100q-104 104 -104 119z" />
    <glyph glyph-name="Hbar" unicode="&#x126;" horiz-adv-x="1314" 
d="M938 1108h-561v-315h561v315zM37 0v18h72q72 0 90 25t18 102v963h-127v55h127v164q0 78 -18 103t-90 24h-72v19h504v-19h-54q-72 0 -91 -24t-19 -103v-164h561v164q0 78 -19 103t-92 24h-53v19h506v-19h-74q-72 0 -90 -24t-18 -103v-164h127v-55h-127v-963q0 -79 18 -103
t90 -24h74v-18h-506v18h55q72 0 91 25q18 25 18 102v611h-561v-611q0 -79 19 -103t91 -24h54v-18h-504z" />
    <glyph glyph-name="hbar" unicode="&#x127;" horiz-adv-x="1314" 
d="M938 1108h-561v-315h561v315zM37 0v18h72q72 0 90 25t18 102v963h-127v55h127v164q0 78 -18 103t-90 24h-72v19h504v-19h-54q-72 0 -91 -24t-19 -103v-164h561v164q0 78 -19 103t-92 24h-53v19h506v-19h-74q-72 0 -90 -24t-18 -103v-164h127v-55h-127v-963q0 -79 18 -103
t90 -24h74v-18h-506v18h55q72 0 91 25q18 25 18 102v611h-561v-611q0 -79 19 -103t91 -24h54v-18h-504z" />
    <glyph glyph-name="Itilde" unicode="&#x128;" horiz-adv-x="593" 
d="M416 1620q-48 0 -100 38t-99 75t-80 36q-45 0 -63 -67l-17 -64l-32 9l16 63q27 99 75 121q22 10 58 10t89 -37q52 -36 99 -74t82 -38q51 0 72 80l16 61l33 -8l-16 -62q-23 -83 -55 -113t-78 -30zM37 1454v19h522v-23h-72q-74 0 -92 -16t-18 -91v-1218q0 -74 18 -90
t92 -17h72v-18h-522v18h72q74 0 91 16t17 91v1223q0 74 -17 90t-91 16h-72z" />
    <glyph glyph-name="itilde" unicode="&#x129;" horiz-adv-x="593" 
d="M416 1620q-48 0 -100 38t-99 75t-80 36q-45 0 -63 -67l-17 -64l-32 9l16 63q20 76 50 104t75 28t97 -38q52 -36 99 -74t82 -38q51 0 72 80l16 61l33 -8l-16 -62q-23 -83 -55 -113t-78 -30zM37 1454v19h522v-23h-72q-74 0 -92 -16t-18 -91v-1218q0 -74 18 -90t92 -17h72
v-18h-522v18h72q74 0 91 16t17 91v1223q0 74 -17 90t-91 16h-72z" />
    <glyph glyph-name="Imacron" unicode="&#x12a;" horiz-adv-x="593" 
d="M37 0v18h72q74 0 91 16t17 91v1223q0 74 -17 90t-91 16h-72v19h522v-23h-72q-74 0 -92 -16t-18 -91v-1218q0 -74 18 -90t92 -17h72v-18h-522zM575 1692h-559l4 53h560z" />
    <glyph glyph-name="imacron" unicode="&#x12b;" horiz-adv-x="593" 
d="M37 1454v19h522v-23h-72q-74 0 -92 -16t-18 -91v-1218q0 -74 18 -90t92 -17h72v-18h-522v18h72q74 0 91 16t17 91v1223q0 74 -17 90t-91 16h-72zM575 1692h-559l4 53h560z" />
    <glyph glyph-name="Ibreve" unicode="&#x12c;" horiz-adv-x="593" 
d="M37 0v18h72q74 0 91 16t17 91v1223q0 74 -17 90t-91 16h-72v19h522v-23h-72q-74 0 -92 -16t-18 -91v-1218q0 -74 18 -90t92 -17h72v-18h-522zM14 1839l37 19q249 -368 500 0l29 -19q-47 -104 -123 -171t-160 -66q-156 -1 -283 237z" />
    <glyph glyph-name="ibreve" unicode="&#x12d;" horiz-adv-x="593" 
d="M37 1454v19h522v-23h-72q-74 0 -92 -16t-18 -91v-1218q0 -74 18 -90t92 -17h72v-18h-522v18h72q74 0 91 16t17 91v1223q0 74 -17 90t-91 16h-72zM14 1839l37 19q249 -368 500 0l29 -19q-47 -104 -123 -171t-160 -66q-156 -1 -283 237z" />
    <glyph glyph-name="Iogonek" unicode="&#x12e;" horiz-adv-x="593" 
d="M344 -465q-102 0 -166 51q-63 51 -63 141t63 162t164 111l-4 10q-41 -10 -100 -10h-201v18h72q74 0 91 16t17 91v1223q0 74 -17 90t-91 16h-72v19h522v-23h-72q-74 0 -92 -16t-18 -91v-1218q0 -74 18 -90t92 -17h72v-18h-119q-100 -18 -168 -91t-67 -181q0 -68 44 -110
t104 -42t128 23l11 -35q-92 -29 -148 -29z" />
    <glyph glyph-name="iogonek" unicode="&#x12f;" horiz-adv-x="593" 
d="M344 -465q-102 0 -166 51q-63 51 -63 141t63 162t164 111l-4 10q-41 -10 -100 -10h-201v18h72q74 0 91 16t17 91v1223q0 74 -17 90t-91 16h-72v19h522v-23h-72q-74 0 -92 -16t-18 -91v-1218q0 -74 18 -90t92 -17h72v-18h-119q-100 -18 -168 -91t-67 -181q0 -68 44 -110
t104 -42t128 23l11 -35q-92 -29 -148 -29z" />
    <glyph glyph-name="Idotaccent" unicode="&#x130;" horiz-adv-x="593" 
d="M37 0v18h72q74 0 91 16t17 91v1223q0 74 -17 90t-91 16h-72v19h522v-23h-72q-74 0 -92 -16t-18 -91v-1218q0 -74 18 -90t92 -17h72v-18h-522zM292 1806q42 0 66 -24t25 -65q0 -41 -24 -67q-23 -26 -65 -26t-68 25t-26 67t25 66t67 24z" />
    <glyph glyph-name="dotlessi" unicode="&#x131;" horiz-adv-x="593" 
d="M37 1454v19h522v-23h-72q-74 0 -92 -16.5t-18 -90.5v-1218q0 -74 18.5 -90.5t91.5 -16.5h72v-18h-522v18h72q74 0 91 16.5t17 90.5v1223q0 74 -17.5 90t-90.5 16h-72z" />
    <glyph glyph-name="IJ" unicode="&#x132;" horiz-adv-x="1425" 
d="M37 0v18h72q74 0 91 16t17 91v1223q0 74 -17 90t-91 16h-72v19h522v-23h-72q-74 0 -92 -16t-18 -91v-1218q0 -74 18 -90t92 -17h72v-18h-522zM662 242q0 -98 66 -159q67 -60 177 -60q164 0 164 217v1157q0 35 18 53v4h-282v19h586v-19h-54q-109 0 -108 -108v-1014
q0 -154 -91 -250q-92 -96 -222 -96t-202 70t-71 186h19z" />
    <glyph glyph-name="ij" unicode="&#x133;" horiz-adv-x="1087" 
d="M37 0v18h72q74 0 91 16t17 91v1223q0 74 -17 90t-91 16h-72v19h522v-23h-72q-74 0 -92 -16t-18 -91v-1218q0 -74 18 -90t92 -17h72v-18h-522zM647 242q0 -98 67 -158t177 -61q164 0 164 217v1157q0 35 18 53v4h-282v19h585v-19h-53q-109 0 -109 -108v-1014
q0 -154 -91 -250t-221 -96t-202 70t-71 186h18z" />
    <glyph glyph-name="Jcircumflex" unicode="&#x134;" horiz-adv-x="831" 
d="M68 242q0 -98 66 -159q67 -60 177 -60q164 0 164 217v1157q0 35 19 53v4h-283v19h586v-19h-54q-109 0 -108 -108v-1014q0 -154 -91 -250q-92 -96 -222 -96t-202 70t-71 186h19zM549 1839q0 -16 -103 -119l-100 -100l-31 37l209 205h58l211 -205l-31 -37l-100 100
q-104 104 -105 119h-8z" />
    <glyph glyph-name="jcircumflex" unicode="&#x135;" horiz-adv-x="831" 
d="M68 242q0 -98 66 -159q67 -60 177 -60q164 0 164 217v1157q0 35 19 53v4h-283v19h586v-19h-54q-109 0 -108 -108v-1014q0 -154 -91 -250q-92 -96 -222 -96t-202 70t-71 186h19zM549 1802q0 -16 -103 -119l-100 -100l-31 37l209 205h58l211 -205l-31 -37l-100 100
q-104 104 -105 119h-8z" />
    <glyph glyph-name="Kcommaaccent" unicode="&#x136;" horiz-adv-x="1200" 
d="M37 0v18h72q74 0 91 20t17 107v1201q0 74 -17 91t-91 17h-72v19h469v-19h-19q-74 0 -92 -17t-18 -91v-461q111 0 133 28l324 408q37 45 36 78q0 55 -106 55h-19v19h453v-19h-24q-78 0 -160 -34t-142 -107l-325 -412l2 -8q188 -40 272 -168q74 -110 97 -241t30 -200
q20 -173 58 -214q82 -87 192 -2l27 20l12 -14l-27 -21q-84 -76 -172 -76t-142 59q-19 22 -33 39q-48 62 -99 364q-30 175 -76 259t-114 126t-173 42h-24v-721q0 -86 16 -103q15 -17 35 -20t59 -4h72v-18h-522zM596 -455q41 0 76 34t42 79l7 45l-6 4q-10 -14 -41 -14
q-92 0 -92 91t92 91q42 0 66 -26t24 -66q0 -115 -46 -185t-122 -71v18z" />
    <glyph glyph-name="kcommaaccent" unicode="&#x137;" horiz-adv-x="1200" 
d="M37 0v18h72q74 0 91 20t17 107v1201q0 74 -17 91t-91 17h-72v19h469v-19h-19q-74 0 -92 -17t-18 -91v-461q111 0 133 28l324 408q37 45 36 78q0 55 -106 55h-19v19h453v-19h-24q-78 0 -160 -34t-142 -107l-325 -412l2 -8q188 -40 272 -168q74 -110 97 -241t30 -200
q20 -173 58 -214q82 -87 192 -2l27 20l12 -14l-27 -21q-84 -76 -172 -76t-142 59q-19 22 -33 39q-48 62 -99 364q-30 175 -76 259t-114 126t-173 42h-24v-721q0 -86 16 -103q15 -17 35 -20t59 -4h72v-18h-522zM496 -455q40 0 74 34t41 79l7 45l-4 4q-12 -14 -41 -14
q-94 0 -94 91t94 91q41 0 66 -26t25 -66q0 -115 -48 -185t-120 -71v18z" />
    <glyph glyph-name="kgreenlandic" unicode="&#x138;" horiz-adv-x="1200" 
d="M37 0v18h72q74 0 91 20t17 107v1201q0 74 -17 91t-91 17h-72v19h469v-19h-19q-74 0 -92 -17t-18 -91v-461q111 0 133 28l324 408q37 45 36 78q0 55 -106 55h-19v19h453v-19h-24q-78 0 -160 -34t-142 -107l-325 -412l2 -8q188 -40 272 -168q74 -110 97 -241t30 -200
q20 -173 58 -214q82 -87 192 -2l27 20l12 -14l-27 -21q-84 -76 -172 -76t-142 59q-19 22 -33 39q-48 62 -99 364q-30 175 -76 259t-114 126t-173 42h-24v-721q0 -86 16 -103q15 -17 35 -20t59 -4h72v-18h-522z" />
    <glyph glyph-name="Lacute" unicode="&#x139;" horiz-adv-x="1054" 
d="M37 0v18h72q72 0 90 24t18 99v1207q0 74 -17 90t-91 16h-72v19h522v-19h-72q-74 0 -92 -16t-18 -90v-1203q0 -61 -45 -106v-2h276q164 0 248 49t96 186l17 205h41l-41 -581l-21 2l8 120h-2q-18 -18 -55 -18h-862zM203 1550l-19 17l242 284q16 20 41 2l25 -20l-50 -61z
" />
    <glyph glyph-name="lacute" unicode="&#x13a;" horiz-adv-x="1054" 
d="M37 0v18h72q72 0 90 24t18 99v1207q0 74 -17 90t-91 16h-72v19h522v-19h-72q-74 0 -92 -16t-18 -90v-1203q0 -61 -45 -106v-2h276q164 0 248 49t96 186l17 205h41l-41 -581l-21 2l8 120h-2q-18 -18 -55 -18h-862zM203 1550l-19 17l242 284q16 20 41 2l25 -20l-50 -61z
" />
    <glyph glyph-name="Lcommaaccent" unicode="&#x13b;" horiz-adv-x="1054" 
d="M37 0v18h72q72 0 90 24t18 99v1207q0 74 -17 90t-91 16h-72v19h522v-19h-72q-74 0 -92 -16t-18 -90v-1203q0 -61 -45 -106v-2h276q164 0 248 49t96 186l17 205h41l-41 -581l-21 2l8 120h-2q-18 -18 -55 -18h-862zM475 -446q41 0 75 34t42 78l8 45l-6 4q-10 -14 -41 -14
q-92 0 -92 91t92 91q41 1 65 -25t25 -67q0 -115 -46 -185t-122 -71v19z" />
    <glyph glyph-name="lcommaaccent" unicode="&#x13c;" horiz-adv-x="1054" 
d="M475 -446q41 0 75 34t42 78l8 45l-6 4q-10 -14 -41 -14q-92 0 -92 91t92 91q41 1 65 -25t25 -67q0 -115 -46 -185t-122 -71v19zM37 0v18h72q72 0 90 24t18 99v1207q0 74 -17 90t-91 16h-72v19h522v-19h-72q-74 0 -92 -16t-18 -90v-1203q0 -61 -45 -106v-2h276
q164 0 248 49t96 186l17 205h41l-41 -581l-21 2l8 120h-2q-18 -18 -55 -18h-862z" />
    <glyph glyph-name="Lcaron" unicode="&#x13d;" horiz-adv-x="1075" 
d="M877 1159q41 0 74.5 34t41.5 79l8 45l-6 4q-10 -14 -41 -14q-92 0 -92 91t92 91q41 0 65.5 -25.5t24.5 -66.5q0 -115 -46 -185.5t-121 -70.5v18zM37 0v18h72q72 0 90 24t18 99v1207q0 74 -17.5 90t-90.5 16h-72v19h522v-19h-72q-74 0 -92 -16.5t-18 -89.5v-1203
q0 -61 -45 -106v-2h276q164 0 248 49t96 186l17 205h41l-41 -581l-21 2l8 120h-2q-18 -18 -55 -18h-862z" />
    <glyph glyph-name="lcaron" unicode="&#x13e;" horiz-adv-x="1075" 
d="M877 1159q41 0 75 34t41 79l8 45l-6 4q-10 -14 -41 -14q-92 0 -92 91t92 91q41 0 66 -26t24 -66q0 -115 -46 -186t-121 -70v18zM37 0v18h72q72 0 90 24t18 99v1207q0 74 -17 90t-91 16h-72v19h522v-19h-72q-74 0 -92 -16t-18 -90v-1203q0 -61 -45 -106v-2h276
q164 0 248 49t96 186l17 205h41l-41 -581l-21 2l8 120h-2q-18 -18 -55 -18h-862z" />
    <glyph glyph-name="Ldot" unicode="&#x13f;" horiz-adv-x="1054" 
d="M37 0v18h72q72 0 90 24t18 99v1207q0 74 -17.5 90t-90.5 16h-72v19h522v-19h-72q-74 0 -92 -16.5t-18 -89.5v-1203q0 -61 -45 -106v-2h276q164 0 248 49t96 186l17 205h41l-41 -581l-21 2l8 120h-2q-18 -18 -55 -18h-862zM728 905q42 0 66.5 -24.5t24.5 -59.5t-10 -54
q-22 -42 -72 -42q-100 0 -100 90q0 39 24.5 64.5t66.5 25.5z" />
    <glyph glyph-name="ldot" unicode="&#x140;" horiz-adv-x="1054" 
d="M728 905q42 0 66.5 -24.5t24.5 -59.5t-10 -54q-22 -42 -72 -42q-100 0 -100 90q0 39 24.5 64.5t66.5 25.5zM37 0v18h72q72 0 90 24t18 99v1207q0 74 -17.5 90t-90.5 16h-72v19h522v-19h-72q-74 0 -92 -16.5t-18 -89.5v-1203q0 -61 -45 -106v-2h276q164 0 248 49t96 186
l17 205h41l-41 -581l-21 2l8 120h-2q-18 -18 -55 -18h-862z" />
    <glyph glyph-name="Lslash" unicode="&#x141;" horiz-adv-x="1071" 
d="M47 0v18h82q72 0 90 24t19 101v303l12 109h-12l-191 -141l-22 28l213 158v746q0 74 -18 91t-91 17h-72v19h523v-19h-72q-74 0 -92 -17t-19 -91v-517l-10 -110h10l402 297l22 -29l-424 -313v-529q0 -61 -45 -106v-2h273q163 0 247 49t97 186l16 205h41l-41 -581l-20 2
l8 120h-2q-18 -18 -56 -18h-868z" />
    <glyph glyph-name="lslash" unicode="&#x142;" horiz-adv-x="1071" 
d="M47 0v18h82q72 0 90 24t19 101v303l12 109h-12l-191 -141l-22 28l213 158v746q0 74 -18 91t-91 17h-72v19h523v-19h-72q-74 0 -92 -17t-19 -91v-517l-10 -110h10l402 297l22 -29l-424 -313v-529q0 -61 -45 -106v-2h273q163 0 247 49t97 186l16 205h41l-41 -581l-20 2
l8 120h-2q-18 -18 -56 -18h-868z" />
    <glyph glyph-name="Nacute" unicode="&#x143;" horiz-adv-x="1191" 
d="M399 0h-362v18h53q74 0 92 18t19 91v1219q-1 74 -19 91t-92 17h-53v19h313l561 -1033q37 -63 37 -75h13q-2 23 -3 86v874q0 73 -28 101t-103 28h-92v19h422v-19h-33q-74 0 -102 -28t-29 -101v-1364h-16q0 20 -57 127l-635 1153q-41 78 -41 80h-11q2 -23 3 -88v-1106
q0 -74 18 -91t92 -18h53v-18zM487 1554l-18 17l242 284q15 19 41 3l24 -21l-49 -61z" />
    <glyph glyph-name="nacute" unicode="&#x144;" horiz-adv-x="1304" 
d="M37 0v18h72q69 0 86 16q16 16 19 34q3 20 3 59v1167q0 29 -18 47q-17 19 -35 19h-23l-121 -10l-2 12l158 33q66 12 109 51t43 98v8h16v-268q0 -178 -4 -215h14q6 55 33 133q45 131 147 209t246 78q146 0 236 -84t90 -225v-1053q0 -74 17 -91t91 -18h74v-18h-522v18h199v5
q-18 18 -19 53v1069q0 309 -201 309q-160 0 -264 -139t-104 -361v-827q0 -74 18 -91t92 -18h72v-18h-522zM551 1550l-19 17l242 284q16 20 41 2l25 -20l-49 -61z" />
    <glyph glyph-name="Ncommaaccent" unicode="&#x145;" horiz-adv-x="1191" 
d="M399 0h-362v18h53q74 0 92 18t19 91v1219q-1 74 -19 91t-92 17h-53v19h313l561 -1033q37 -63 37 -75h13q-2 23 -3 86v874q0 73 -28 101t-103 28h-92v19h422v-19h-33q-74 0 -102 -28t-29 -101v-1364h-16q0 20 -57 127l-635 1153q-41 78 -41 80h-11q2 -23 3 -88v-1106
q0 -74 18 -91t92 -18h53v-18zM561 -446q39 0 74 34t42 78l7 45l-4 4q-12 -14 -41 -14q-94 0 -94 91t94 91q41 1 66 -25t24 -67q0 -115 -47 -185t-121 -71v19z" />
    <glyph glyph-name="ncommaaccent" unicode="&#x146;" horiz-adv-x="1304" 
d="M37 0v18h72q69 0 86 16q16 16 19 34q3 20 3 59v1167q0 29 -18 47q-17 19 -35 19h-23l-121 -10l-2 12l158 33q66 12 109 51t43 98v8h16v-268q0 -178 -4 -215h14q6 55 33 133q45 131 147 209t246 78q146 0 236 -84t90 -225v-1053q0 -74 17 -91t91 -18h74v-18h-522v18h199v5
q-18 18 -19 53v1069q0 309 -201 309q-160 0 -264 -139t-104 -361v-827q0 -74 18 -91t92 -18h72v-18h-522zM582 -446q40 0 74 34t41 78l8 45l-5 4q-12 -14 -41 -14q-94 0 -94 91t94 91q41 1 66 -25t25 -67q0 -115 -48 -185t-120 -71v19z" />
    <glyph glyph-name="Ncaron" unicode="&#x147;" horiz-adv-x="1191" 
d="M399 0h-362v18h53q74 0 92 18t19 91v1219q-1 74 -19 91t-92 17h-53v19h313l561 -1033q37 -63 37 -75h13q-2 23 -3 86v874q0 73 -28 101t-103 28h-92v19h422v-19h-33q-74 0 -102 -28t-29 -101v-1364h-16q0 20 -57 127l-635 1153q-41 78 -41 80h-11q2 -23 3 -88v-1106
q0 -74 18 -91t92 -18h53v-18zM588 1636q0 14 104 119l101 100l30 -36l-211 -205h-57l-209 205l31 36l100 -100q102 -102 103 -119h8z" />
    <glyph glyph-name="ncaron" unicode="&#x148;" horiz-adv-x="1304" 
d="M37 0v18h72q69 0 86 16q16 16 19 34q3 20 3 59v1167q0 29 -18 47q-17 19 -35 19h-23l-121 -10l-2 12l158 33q66 12 109 51t43 98v8h16v-268q0 -178 -4 -215h14q6 55 33 133q45 131 147 209t246 78q146 0 236 -84t90 -225v-1053q0 -74 17 -91t91 -18h74v-18h-522v18h199v5
q-18 18 -19 53v1069q0 309 -201 309q-160 0 -264 -139t-104 -361v-827q0 -74 18 -91t92 -18h72v-18h-522zM643 1632h8q0 14 105 119l100 100l31 -36l-211 -205h-58l-208 205l30 36l101 -100q102 -102 102 -119z" />
    <glyph glyph-name="napostrophe" unicode="&#x149;" horiz-adv-x="1550" 
d="M49 1159q39 0 74 34t42 79t9 45l-6 4q-12 -14 -41 -14q-92 0 -92 91t92 91q41 0 66 -26t24 -66q0 -115 -47 -186t-121 -70v18zM283 0v18h71q70 0 86 16t20 34q4 20 3 59v1167q0 40 -32 58q-15 8 -27 8h-17l-121 -10l-2 12l158 33q66 12 108 51t43 98v8h17v-268
q0 -178 -4 -215h14q6 55 33 133q45 131 146 209t247 78t236 -84t90 -225v-1053q0 -74 17 -91t91 -18h74v-18h-522v18h198v5q-18 18 -18 53v1069q0 309 -201 309q-160 0 -264 -139t-104 -361v-827q0 -74 18 -91t92 -18h72v-18h-522z" />
    <glyph glyph-name="Eng" unicode="&#x14a;" horiz-adv-x="1228" 
d="M37 0v18h72q69 0 86 16q16 16 19 34q3 20 3 59v1167q0 29 -18 47q-17 19 -35 19h-23l-121 -10l-2 12l158 33q66 12 109 51t43 98v8h16v-268q0 -178 -4 -215h14q6 55 33 133q45 131 147 209t246 78q146 0 236 -84t90 -225v-1090q0 -156 -94 -250t-248 -94q-49 0 -164 33
l14 41q129 -37 166 -37q166 0 166 219v1143q0 309 -201 309q-160 0 -264 -139t-104 -361v-827q0 -74 18 -91t92 -18h72v-18h-522z" />
    <glyph glyph-name="eng" unicode="&#x14b;" horiz-adv-x="1228" 
d="M37 0v18h72q69 0 86 16q16 16 19 34q3 20 3 59v1167q0 44 -40 61q-13 5 -22 5h-14l-121 -10l-2 12l158 33q66 12 109 51t43 98v8h16v-268q0 -178 -4 -215h14q6 55 33 133q45 131 147 209t246 78q146 0 236 -84t90 -225v-1090q0 -156 -94 -250t-248 -94q-49 0 -164 33
l14 41q129 -37 166 -37q166 0 166 219v1143q0 309 -201 309q-160 0 -264 -139t-104 -361v-827q0 -74 18 -91t92 -18h72v-18h-522z" />
    <glyph glyph-name="Omacron" unicode="&#x14c;" horiz-adv-x="1642" 
d="M242 756q0 -348 150 -542t433 -194t429 174t146 523q0 347 -150 541q-152 194 -434 194t-428 -174t-146 -522zM1579 736q0 -340 -208 -546t-549 -206t-550 206t-209 546q0 339 209 546t550 207t549 -207t208 -546zM1102 1692h-559l4 53h559z" />
    <glyph glyph-name="omacron" unicode="&#x14d;" horiz-adv-x="1642" 
d="M242 756q0 -348 150 -542t433 -194t429 174t146 523q0 347 -150 541q-152 194 -434 194t-428 -174t-146 -522zM1579 736q0 -340 -208 -546t-549 -206t-550 206t-209 546q0 339 209 546t550 207t549 -207t208 -546zM1102 1696h-559l4 53h559z" />
    <glyph glyph-name="Obreve" unicode="&#x14e;" horiz-adv-x="1642" 
d="M242 756q0 -348 150 -542t433 -194t429 174t146 523q0 347 -150 541q-152 194 -434 194t-428 -174t-146 -522zM1579 736q0 -340 -208 -546t-549 -206t-550 206t-209 546q0 339 209 546t550 207t549 -207t208 -546zM541 1839l37 19q248 -367 499 0l29 -19
q-47 -104 -123 -171t-160 -66q-155 -1 -282 237z" />
    <glyph glyph-name="obreve" unicode="&#x14f;" horiz-adv-x="1642" 
d="M242 756q0 -348 150 -542t433 -194t429 174t146 523q0 347 -150 541q-152 194 -434 194t-428 -174t-146 -522zM1579 736q0 -340 -208 -546t-549 -206t-550 206t-209 546q0 339 209 546t550 207t549 -207t208 -546zM541 1843l37 19q248 -367 499 0l29 -19
q-47 -104 -123 -171t-160 -66q-155 -1 -282 237z" />
    <glyph glyph-name="Ohungarumlaut" unicode="&#x150;" horiz-adv-x="1642" 
d="M242 756q0 -348 150 -542t433 -194t429 174t146 523q0 347 -150 541q-152 194 -434 194t-428 -174t-146 -522zM1579 736q0 -340 -208 -546t-549 -206t-550 206t-209 546q0 339 209 546t550 207t549 -207t208 -546zM768 1862l45 -41l-35 -41l-190 -168l-19 18zM1096 1862
l45 -41l-35 -41l-191 -168l-18 18z" />
    <glyph glyph-name="ohungarumlaut" unicode="&#x151;" horiz-adv-x="1642" 
d="M242 756q0 -348 150 -542t433 -194t429 174t146 523q0 347 -150 541q-152 194 -434 194t-428 -174t-146 -522zM1579 736q0 -340 -208 -546t-549 -206t-550 206t-209 546q0 339 209 546t550 207t549 -207t208 -546zM768 1866l45 -41l-35 -41l-190 -168l-19 18zM1096 1866
l45 -41l-35 -41l-191 -168l-18 18z" />
    <glyph glyph-name="OE" unicode="&#x152;" horiz-adv-x="1918" 
d="M815 1436q-573 0 -573 -680q0 -346 149.5 -532.5t437.5 -186.5h68q74 0 91.5 17.5t17.5 90.5v1182q0 74 -17.5 91.5t-91.5 17.5h-82zM823 1473h819q57 0 76 -19h2l-6 94l19 2l36 -555h-36l-9 144q-8 162 -84.5 229.5t-230.5 67.5h-289v-2q45 -45 45 -107v-536h82
q106 0 163.5 41.5t57.5 175.5v71h19v-657h-19v113q0 133 -58 176t-163 43h-82v-609q0 -61 -45 -106v-2h408q150 0 222.5 65.5t82.5 210.5l12 164h33l-35 -555l-18 2l6 94h-2q-18 -18 -76 -18h-930q-344 0 -552 199.5t-208 536.5t208 537t552 200z" />
    <glyph glyph-name="oe" unicode="&#x153;" horiz-adv-x="1918" 
d="M815 1436q-573 0 -573 -680q0 -346 150 -533q150 -186 437 -186h68q74 0 91 17t18 91v1182q0 74 -18 91t-91 18h-82zM823 1473h819q57 0 76 -19h2l-6 94l19 2l36 -555h-36l-9 144q-8 161 -85 229t-230 68h-289v-2q45 -45 45 -107v-536h82q106 0 164 42q57 42 57 175v71
h19v-657h-19v113q0 133 -58 176t-163 43h-82v-609q0 -61 -45 -106v-2h408q150 -1 222 65t83 211l12 164h33l-35 -555l-18 2l6 94h-2q-18 -18 -76 -18h-930q-344 0 -552 200t-208 536t208 537q208 200 552 200z" />
    <glyph glyph-name="Racute" unicode="&#x154;" horiz-adv-x="1261" 
d="M37 0v18h72q74 0 91 18t17 91v1219q0 74 -17 91t-91 17h-72v19h534q246 0 396 -125q149 -126 149 -320t-123 -315t-311 -138l-41 -2v-12q147 -16 227 -141l103 -162q4 -6 37 -63t71 -95t57 -45q18 -8 42 -8t53 25l45 39l10 -15l-45 -39q-92 -77 -170 -77t-128 55
t-112 149l-143 222q-57 88 -98 122t-105 35h-24v35h94q186 0 285 108q98 108 98 312t-98 310q-98 108 -285 108h-213v-2q35 -35 35 -107v-1200q0 -74 18 -91t92 -18h119v-18h-569zM449 1550l-19 17l242 284q16 20 41 2l24 -20l-49 -61z" />
    <glyph glyph-name="racute" unicode="&#x155;" horiz-adv-x="1261" 
d="M37 0v18h72q74 0 91 18t17 91v1219q0 74 -17 91t-91 17h-72v19h534q246 0 396 -125q149 -126 149 -320t-123 -315t-311 -138l-41 -2v-12q147 -16 227 -141l103 -162q4 -6 37 -63t71 -95t57 -45q18 -8 42 -8t53 25l45 39l10 -15l-45 -39q-92 -77 -170 -77t-128 55
t-112 149l-143 222q-57 88 -98 122t-105 35h-24v35h94q186 0 285 108q98 108 98 312t-98 310q-98 108 -285 108h-213v-2q35 -35 35 -107v-1200q0 -74 18 -91t92 -18h119v-18h-569zM449 1550l-19 17l242 284q16 20 41 2l24 -20l-49 -61z" />
    <glyph glyph-name="Rcommaaccent" unicode="&#x156;" horiz-adv-x="1261" 
d="M37 0v18h72q74 0 91 18t17 91v1219q0 74 -17 91t-91 17h-72v19h534q246 0 396 -125q149 -126 149 -320t-123 -315t-311 -138l-41 -2v-12q147 -16 227 -141l103 -162q4 -6 37 -63t71 -95t57 -45q18 -8 42 -8t53 25l45 39l10 -15l-45 -39q-92 -77 -170 -77t-128 55
t-112 149l-143 222q-57 88 -98 122t-105 35h-24v35h94q186 0 285 108q98 108 98 312t-98 310q-98 108 -285 108h-213v-2q35 -35 35 -107v-1200q0 -74 18 -91t92 -18h119v-18h-569zM647 -444q41 0 75 34t42 77q8 44 8 46l-6 4q-10 -14 -41 -14q-92 0 -92 91t92 91
q41 1 66 -25t24 -67q0 -117 -46 -187t-122 -69v19z" />
    <glyph glyph-name="rcommaaccent" unicode="&#x157;" horiz-adv-x="1261" 
d="M647 -444q41 0 75 34t42 77q8 44 8 46l-6 4q-10 -14 -41 -14q-92 0 -92 91t92 91q41 1 66 -25t24 -67q0 -117 -46 -187t-122 -69v19zM37 0v18h72q74 0 91 18t17 91v1219q0 74 -17 91t-91 17h-72v19h534q246 0 396 -125q149 -126 149 -320t-123 -315t-311 -138l-41 -2v-12
q147 -16 227 -141l103 -162q4 -6 37 -63t71 -95t57 -45q18 -8 42 -8t53 25l45 39l10 -15l-45 -39q-92 -77 -170 -77t-128 55t-112 149l-143 222q-57 88 -98 122t-105 35h-24v35h94q186 0 285 108q98 108 98 312t-98 310q-98 108 -285 108h-213v-2q35 -35 35 -107v-1200
q0 -74 18 -91t92 -18h119v-18h-569z" />
    <glyph glyph-name="Rcaron" unicode="&#x158;" horiz-adv-x="1261" 
d="M37 0v18h72q74 0 91 18t17 91v1219q0 74 -17 91t-91 17h-72v19h534q246 0 396 -125q149 -126 149 -320t-123 -315t-311 -138l-41 -2v-12q147 -16 227 -141l103 -162q4 -6 37 -63t71 -95t57 -45q18 -8 42 -8t53 25l45 39l10 -15l-45 -39q-92 -77 -170 -77t-128 55
t-112 149l-143 222q-57 88 -98 122t-105 35h-24v35h94q186 0 285 108q98 108 98 312t-98 310q-98 108 -285 108h-213v-2q35 -35 35 -107v-1200q0 -74 18 -91t92 -18h119v-18h-569zM549 1632q0 14 104 119l101 100l30 -36l-211 -205h-57l-209 205l31 36l100 -100
q102 -102 103 -119h8z" />
    <glyph glyph-name="rcaron" unicode="&#x159;" horiz-adv-x="1261" 
d="M37 0v18h72q74 0 91 18t17 91v1219q0 74 -17 91t-91 17h-72v19h534q246 0 396 -125q149 -126 149 -320t-123 -315t-311 -138l-41 -2v-12q147 -16 227 -141l103 -162q4 -6 37 -63t71 -95t57 -45q18 -8 42 -8t53 25l45 39l10 -15l-45 -39q-92 -77 -170 -77t-128 55
t-112 149l-143 222q-57 88 -98 122t-105 35h-24v35h94q186 0 285 108q98 108 98 312t-98 310q-98 108 -285 108h-213v-2q35 -35 35 -107v-1200q0 -74 18 -91t92 -18h119v-18h-569zM549 1632q0 14 104 119l101 100l30 -36l-211 -205h-57l-209 205l31 36l100 -100
q102 -102 103 -119h8z" />
    <glyph glyph-name="Sacute" unicode="&#x15a;" horiz-adv-x="978" 
d="M467 20q194 0 269 142q38 70 38 163t-50 165t-125 119q-75 49 -162 105t-162 109t-125 141t-50 193q0 150 111 241t278 91t287 -90q23 -16 33 -47l14 4q-4 16 -8 65l-6 109h20l23 -483l-37 -3l-4 86q-6 134 -85 228t-213 94t-202 -64q-67 -64 -67 -195q0 -130 136 -232
q60 -45 190 -122t206 -147q152 -138 152 -325t-121 -285t-336 -98q-164 0 -324 110q-37 27 -51 68l-8 -2q4 -16 8 -88l6 -129h-18l-27 559l37 2l4 -84q8 -178 114 -289t255 -111zM408 1550l-19 17l242 284q16 20 41 2l24 -20l-49 -61z" />
    <glyph glyph-name="sacute" unicode="&#x15b;" horiz-adv-x="978" 
d="M467 20q194 0 269 142q38 70 38 163t-50 165t-125 119q-75 49 -162 105t-162 109t-125 141t-50 193q0 150 111 241t278 91t287 -90q23 -16 33 -47l14 4q-4 16 -8 65l-6 109h20l23 -483l-37 -3l-4 86q-6 134 -85 228t-213 94t-202 -64q-67 -64 -67 -195q0 -130 136 -232
q60 -45 190 -122t206 -147q152 -138 152 -325t-121 -285t-336 -98q-164 0 -324 110q-37 27 -51 68l-8 -2q4 -16 8 -88l6 -129h-18l-27 559l37 2l4 -84q8 -178 114 -289t255 -111zM414 1554l-19 17l242 284q15 19 41 3l24 -21l-49 -61z" />
    <glyph glyph-name="Scircumflex" unicode="&#x15c;" horiz-adv-x="978" 
d="M467 20q194 0 269 142q38 70 38 163t-50 165t-125 119q-75 49 -162 105t-162 109t-125 141t-50 193q0 150 111 241t278 91t287 -90q23 -16 33 -47l14 4q-4 16 -8 65l-6 109h20l23 -483l-37 -3l-4 86q-6 134 -85 228t-213 94t-202 -64q-67 -64 -67 -195q0 -130 136 -232
q60 -45 190 -122t206 -147q152 -138 152 -325t-121 -285t-336 -98q-164 0 -324 110q-37 27 -51 68l-8 -2q4 -16 8 -88l6 -129h-18l-27 559l37 2l4 -84q8 -178 114 -289t255 -111zM508 1839h-8q0 -16 -103 -119l-100 -100l-31 37l209 205h57l211 -205l-30 -37l-101 100
q-104 104 -104 119z" />
    <glyph glyph-name="scircumflex" unicode="&#x15d;" horiz-adv-x="978" 
d="M467 20q194 0 269 142q38 70 38 163t-50 165t-125 119q-75 49 -162 105t-162 109t-125 141t-50 193q0 150 111 241t278 91t287 -90q23 -16 33 -47l14 4q-4 16 -8 65l-6 109h20l23 -483l-37 -3l-4 86q-6 134 -85 228t-213 94t-202 -64q-67 -64 -67 -195q0 -130 136 -232
q60 -45 190 -122t206 -147q152 -138 152 -325t-121 -285t-336 -98q-164 0 -324 110q-37 27 -51 68l-8 -2q4 -16 8 -88l6 -129h-18l-27 559l37 2l4 -84q8 -178 114 -289t255 -111zM514 1843h-8q0 -16 -103 -119l-100 -100l-31 37l209 205h58l211 -205l-31 -37l-101 100
q-104 104 -104 119z" />
    <glyph glyph-name="Scedilla" unicode="&#x15e;" horiz-adv-x="978" 
d="M467 20q194 0 269 142q38 70 38 148t-23 126q-53 109 -237 222q-183 113 -236 159q-116 98 -154 205q-24 63 -24 135q0 150 111 241t278 91t287 -90q23 -16 33 -47l14 4q-4 16 -8 65l-6 109h20l23 -483h-18l-5 86q-6 131 -94 225t-242 94t-215 -113q-30 -55 -30 -127
q0 -126 104 -215t202 -144q169 -94 271 -208q103 -115 103 -283q0 -120 -56 -206q-111 -171 -401 -172l-22 -111q33 14 69 14q82 0 129 -45q47 -46 47 -120t-94 -130t-229 -57l6 37q143 0 202 109q17 33 17 73t-22 70q-22 29 -68 29t-76 -25l-27 4l31 154q-141 8 -287 108
q-37 27 -51 68l-8 -2q4 -16 8 -88l6 -129h-18l-27 559h19l4 -84q8 -176 123 -287t264 -111z" />
    <glyph glyph-name="scedilla" unicode="&#x15f;" horiz-adv-x="978" 
d="M467 20q194 0 269 142q38 70 38 167t-69 177q-70 80 -168 139q-97 59 -197 124t-170 164t-70 237t111 228q111 91 278 91t287 -90q23 -16 33 -47l14 4q-4 16 -8 65l-6 109h20l23 -483h-18l-5 86q-6 131 -94 225t-222 94t-200 -64q-65 -64 -65 -191q0 -126 135 -228
q59 -45 187 -122t205 -150q153 -144 153 -330q0 -187 -121 -285t-336 -98l-22 -111q33 14 69 14q82 0 129 -45q47 -46 47 -120t-94 -130t-229 -57l6 37q143 0 202 109q17 33 17 73t-22 70q-22 29 -68 29t-76 -25l-27 4l31 154q-141 8 -287 108q-37 27 -51 68l-8 -2
q4 -16 8 -88l6 -129h-18l-27 559h19l4 -84q8 -176 123 -287t264 -111z" />
    <glyph glyph-name="Scaron" unicode="&#x160;" horiz-adv-x="978" 
d="M467 20q194 0 269 142q38 70 38 163t-50 165t-125 119q-75 49 -162 105t-162 109t-125 141t-50 193q0 150 111 241t278 91t287 -90q23 -16 33 -47l14 4q-4 16 -8 65l-6 109h20l23 -483l-37 -3l-4 86q-6 134 -85 228t-213 94t-202 -64q-67 -64 -67 -195q0 -130 136 -232
q60 -45 190 -122t206 -147q152 -138 152 -325t-121 -285t-336 -98q-164 0 -324 110q-37 27 -51 68l-8 -2q4 -16 8 -88l6 -129h-18l-27 559l37 2l4 -84q8 -178 114 -289t255 -111zM508 1632q0 14 104 119l101 100l30 -36l-211 -205h-57l-209 205l31 36l100 -100
q102 -102 103 -119h8z" />
    <glyph glyph-name="scaron" unicode="&#x161;" horiz-adv-x="978" 
d="M467 20q194 0 269 142q38 70 38 163t-50 165t-125 119q-75 49 -162 105t-162 109t-125 141t-50 193q0 150 111 241t278 91t287 -90q23 -16 33 -47l14 4q-4 16 -8 65l-6 109h20l23 -483l-37 -3l-4 86q-6 134 -85 228t-213 94t-202 -64q-67 -64 -67 -195q0 -130 136 -232
q60 -45 190 -122t206 -147q152 -138 152 -325t-121 -285t-336 -98q-164 0 -324 110q-37 27 -51 68l-8 -2q4 -16 8 -88l6 -129h-18l-27 559l37 2l4 -84q8 -178 114 -289t255 -111zM514 1636q0 14 104 119l101 100l31 -36l-211 -205h-58l-209 205l31 36l100 -100
q102 -102 103 -119h8z" />
    <glyph glyph-name="Tcedilla" unicode="&#x162;" horiz-adv-x="1101" 
d="M209 0v18h156q74 0 91 18t17 91v1309h-123q-145 0 -207 -44q-61 -45 -69 -192l-6 -84l-37 2l30 475l23 -2l-10 -118h954l-10 116l22 2l31 -473l-37 -2l-6 84q-10 144 -67 190t-209 46h-119v-1309q0 -74 17 -91t91 -18h152v-18h-375l-22 -98q33 14 69 14q82 0 129 -45
t47 -120t-94 -131t-229 -56l6 37q127 0 189 88q30 41 30 81q0 107 -76 107q-57 0 -90 -20l-26 4l30 139h-272z" />
    <glyph glyph-name="tcedilla" unicode="&#x163;" horiz-adv-x="1101" 
d="M209 0v18h156q74 0 91 18t17 91v1309h-123q-154 0 -211 -46t-65 -190l-6 -84l-37 2l30 475l23 -2l-10 -118h954l-10 116l22 2l31 -473l-37 -2l-6 84q-10 144 -67 190t-209 46h-119v-1309q0 -74 17 -91t91 -18h152v-18h-375l-22 -98q33 14 69 14q82 0 129 -45t47 -120
t-94 -131t-229 -56l6 37q127 0 189 88q30 41 30 81q0 107 -76 107q-57 0 -90 -20l-26 4l30 139h-272z" />
    <glyph glyph-name="Tcaron" unicode="&#x164;" horiz-adv-x="1101" 
d="M209 0v18h156q74 0 91 18t17 91v1309h-123q-154 0 -211 -46t-65 -190l-6 -84l-37 2l30 475l23 -2l-10 -118h954l-10 116l22 2l31 -473l-37 -2l-6 84q-10 144 -67 190t-209 46h-119v-1309q0 -74 17 -91t91 -18h152v-18h-684zM555 1632q0 14 104 119l101 100l31 -36
l-211 -205h-58l-209 205l31 36l100 -100q102 -102 103 -119h8z" />
    <glyph glyph-name="tcaron" unicode="&#x165;" horiz-adv-x="1101" 
d="M555 1632q0 14 104 119l101 100l31 -36l-211 -205h-58l-209 205l31 36l100 -100q102 -102 103 -119h8zM209 0v18h156q74 0 91 18t17 91v1309h-123q-154 0 -211 -46t-65 -190l-6 -84l-37 2l30 475l23 -2l-10 -118h954l-10 116l22 2l31 -473l-37 -2l-6 84q-10 144 -67 190
t-209 46h-119v-1309q0 -74 17 -91t91 -18h152v-18h-684z" />
    <glyph glyph-name="Tbar" unicode="&#x166;" horiz-adv-x="1101" 
d="M633 817v-690q0 -74 17 -91t91 -18h152v-18h-684v18h156q74 0 91 18t17 91v690h-217l8 55h209v564h-123q-145 0 -207 -44q-61 -45 -69 -192l-6 -84l-37 2l30 475l23 -2l-10 -118h954l-10 116l22 2l31 -473l-37 -2l-6 84q-10 144 -67 190t-209 46h-119v-564h213l-8 -55
h-205z" />
    <glyph glyph-name="tbar" unicode="&#x167;" horiz-adv-x="1101" 
d="M633 817v-690q0 -74 17 -91t91 -18h152v-18h-684v18h156q74 0 91 18t17 91v690h-217l8 55h209v564h-123q-154 0 -211 -46t-65 -190l-6 -84l-37 2l30 475l23 -2l-10 -118h954l-10 116l22 2l31 -473l-37 -2l-6 84q-10 144 -67 190t-209 46h-119v-564h213l-8 -55h-205z" />
    <glyph glyph-name="Utilde" unicode="&#x168;" horiz-adv-x="1187" 
d="M37 1473h522v-19h-90q-74 0 -91 -17t-18 -91v-1084q0 -240 248 -242q164 0 251 81t87 235v973q0 81 -24 113t-93 32h-75v19h399v-19h-53q-70 0 -94 -33t-23 -112v-973q0 -172 -96 -262q-95 -90 -279 -90t-296 97t-111 255v1010q-1 74 -19 91t-92 17h-53v19zM786 1620
q-47 0 -109 38q-61 38 -119 75t-91 36q-45 0 -64 -67l-16 -64l-33 9l17 63q20 76 50 104t75 28t107 -38q61 -36 119 -74t93 -38q51 0 72 80l16 61l33 -8l-16 -62q-23 -83 -55 -113t-79 -30z" />
    <glyph glyph-name="utilde" unicode="&#x169;" horiz-adv-x="1247" 
d="M952 401h-16q-30 -211 -142 -314t-267 -103t-249 81t-96 228v1040q0 61 -61 62h-96v18h116q76 0 132 26t57 83v8h16v-1219q0 -139 54 -215t147 -76q166 0 266 144t100 379v803q0 74 -18 91t-92 17h-35v19l317 8v-17q-8 -82 -8 -108v-1211q1 -74 19 -91t92 -17h35v-19
q-141 -6 -277 -36v16q8 82 8 117v32l-2 246v8zM748 1620q-46 0 -110 38q-62 38 -120 75t-90 36q-45 0 -63 -67l-17 -64l-33 9l17 63q20 76 50 104t75 28t107 -38q62 -36 120 -74t92 -38q51 0 72 80l16 61l33 -8l-16 -62q-23 -83 -55 -113t-78 -30z" />
    <glyph glyph-name="Umacron" unicode="&#x16a;" horiz-adv-x="1187" 
d="M37 1473h522v-19h-90q-74 0 -91 -17t-18 -91v-1084q0 -240 248 -242q164 0 251 81t87 235v973q0 81 -24 113t-93 32h-75v19h399v-19h-53q-70 0 -94 -33t-23 -112v-973q0 -172 -96 -262q-95 -90 -279 -90t-296 97t-111 255v1010q-1 74 -19 91t-92 17h-53v19zM926 1692
h-559l4 53h559z" />
    <glyph glyph-name="umacron" unicode="&#x16b;" horiz-adv-x="1247" 
d="M952 401h-16q-30 -211 -142 -314t-267 -103t-249 81t-96 228v1040q0 61 -61 62h-96v18h116q76 0 132 26t57 83v8h16v-1219q0 -139 54 -215t147 -76q166 0 266 144t100 379v803q0 74 -18 91t-92 17h-35v19l317 8v-17q-8 -82 -8 -108v-1211q1 -74 19 -91t92 -17h35v-19
q-141 -6 -277 -36v16q8 82 8 117v32l-2 246v8zM887 1692h-559l4 53h559z" />
    <glyph glyph-name="Ubreve" unicode="&#x16c;" horiz-adv-x="1187" 
d="M37 1473h522v-19h-90q-74 0 -91 -17t-18 -91v-1084q0 -240 248 -242q164 0 251 81t87 235v973q0 81 -24 113t-93 32h-75v19h399v-19h-53q-70 0 -94 -33t-23 -112v-973q0 -172 -96 -262q-95 -90 -279 -90t-296 97t-111 255v1010q-1 74 -19 91t-92 17h-53v19zM365 1839
l36 19q249 -368 500 0l29 -19q-47 -104 -123 -171t-160 -66q-155 -1 -282 237z" />
    <glyph glyph-name="ubreve" unicode="&#x16d;" horiz-adv-x="1247" 
d="M952 401h-16q-30 -211 -142 -314t-267 -103t-249 81t-96 228v1040q0 61 -61 62h-96v18h116q76 0 132 26t57 83v8h16v-1219q0 -139 54 -215t147 -76q166 0 266 144t100 379v803q0 74 -18 91t-92 17h-35v19l317 8v-17q-8 -82 -8 -108v-1211q1 -74 19 -91t92 -17h35v-19
q-141 -6 -277 -36v16q8 82 8 117v32l-2 246v8zM326 1839l36 19q249 -368 500 0l29 -19q-47 -104 -123 -171t-160 -66q-155 -1 -282 237z" />
    <glyph glyph-name="Uring" unicode="&#x16e;" horiz-adv-x="1187" 
d="M37 1473h522v-19h-90q-74 0 -91 -17t-18 -91v-1084q0 -240 248 -242q164 0 251 81t87 235v973q0 81 -24 113t-93 32h-75v19h399v-19h-53q-70 0 -94 -33t-23 -112v-973q0 -172 -96 -262q-95 -90 -279 -90t-296 97t-111 255v1010q-1 74 -19 91t-92 17h-53v19zM647 1898
q68 0 125 -55t57 -127t-57 -127t-125 -55t-124 56t-56 127t56 126t124 55zM647 1843q-45 0 -86 -39t-41 -87t41 -88t86 -40t86 39t41 88t-41 88t-86 39z" />
    <glyph glyph-name="uring" unicode="&#x16f;" horiz-adv-x="1247" 
d="M952 401h-16q-30 -211 -142 -314t-267 -103t-249 81t-96 228v1040q0 61 -61 62h-96v18h116q76 0 132 26t57 83v8h16v-1219q0 -139 54 -215t147 -76q166 0 266 144t100 379v803q0 74 -18 91t-92 17h-35v19l317 8v-17q-8 -82 -8 -108v-1211q1 -74 19 -91t92 -17h35v-19
q-141 -6 -277 -36v16q8 82 8 117v32l-2 246v8zM608 1898q68 0 125 -55t57 -127t-56 -127q-58 -55 -126 -55t-124 56t-56 127t56 126t124 55zM608 1843q-45 0 -86 -39t-41 -87t41 -88t86 -40t86 39t41 88t-41 88t-86 39z" />
    <glyph glyph-name="Uhungarumlaut" unicode="&#x170;" horiz-adv-x="1187" 
d="M37 1473h522v-19h-90q-74 0 -91 -17t-18 -91v-1084q0 -240 248 -242q164 0 251 81t87 235v973q0 81 -24 113t-93 32h-75v19h399v-19h-53q-70 0 -94 -33t-23 -112v-973q0 -172 -96 -262q-95 -90 -279 -90t-296 97t-111 255v1010q-1 74 -19 91t-92 17h-53v19zM592 1862
l45 -41l-35 -41l-190 -168l-19 18zM920 1862l45 -41l-35 -41l-191 -168l-18 18z" />
    <glyph glyph-name="uhungarumlaut" unicode="&#x171;" horiz-adv-x="1247" 
d="M952 401h-16q-30 -211 -142 -314t-267 -103t-249 81t-96 228v1040q0 61 -61 62h-96v18h116q76 0 132 26t57 83v8h16v-1219q0 -139 54 -215t147 -76q166 0 266 144t100 379v803q0 74 -18 91t-92 17h-35v19l317 8v-17q-8 -82 -8 -108v-1211q1 -74 19 -91t92 -17h35v-19
q-141 -6 -277 -36v16q8 82 8 117v32l-2 246v8zM553 1862l45 -41l-35 -41l-190 -168l-19 18zM881 1862l45 -41l-35 -41l-191 -168l-18 18z" />
    <glyph glyph-name="Uogonek" unicode="&#x172;" horiz-adv-x="1187" 
d="M657 -465q-104 0 -168 51q-63 51 -63 136t52 153t136 109h-6q-184 0 -296 97t-111 255v1010q0 39 -3 58q-6 40 -50 47q-19 3 -58 3h-53v19h522v-19h-90q-74 0 -91 -17t-18 -91v-1084q0 -240 248 -242q164 0 251 81t87 235v973q0 53 -8 83q-17 62 -109 62h-75v19h399v-19
h-53q-70 0 -94 -33t-23 -112v-973q0 -142 -68 -230t-196 -112q-88 -27 -145 -97q-56 -71 -56 -166t75 -135q75 -39 202 3l10 -35q-92 -29 -148 -29z" />
    <glyph glyph-name="uogonek" unicode="&#x173;" horiz-adv-x="1247" 
d="M952 401h-16q-30 -211 -142 -314t-267 -103t-249 81t-96 228v1040q0 61 -61 62h-96v18h116q76 0 132 26t57 83v8h16v-1219q0 -139 54 -215t147 -76q166 0 266 144t100 379v803q0 74 -18 91t-92 17h-35v19l317 8v-17q-8 -82 -8 -108v-1211q1 -74 19 -91t92 -17h35v-19
l-66 -4q-98 -18 -166 -98t-67 -188q0 -68 43 -110t103 -42t130 23l10 -35q-92 -29 -147 -29q-104 0 -168 51q-63 51 -63 137t60 161q62 75 159 118l-2 8l-103 -12q8 82 8 117v32l-2 246v8z" />
    <glyph glyph-name="Wcircumflex" unicode="&#x174;" horiz-adv-x="2213" 
d="M18 1473h295v-29q0 -39 15 -88l424 -1141q12 -37 12 -74h20q0 27 15 74l293 975l-41 137q-23 75 -45 101t-76 26h-47v19h458v-19h-194v-4q41 -14 63 -94l342 -1141q12 -49 13 -74h28q0 31 19 80l403 1108q14 37 15 60q0 66 -103 65h-78v19h349v-19h-31q-45 0 -67 -28
t-46 -99l-485 -1335l-115 -10l-344 1142l-340 -1134l-115 -8l-487 1345q-25 80 -45 104t-74 23h-31v19zM1151 1839h-8q0 -16 -103 -119l-100 -100l-31 37l209 205h58l210 -205l-30 -37l-101 100q-104 104 -104 119z" />
    <glyph glyph-name="wcircumflex" unicode="&#x175;" horiz-adv-x="2213" 
d="M18 1473h295v-29q0 -39 15 -88l424 -1141q12 -37 12 -74h20q0 27 15 74l293 975l-41 137q-23 75 -45 101t-76 26h-47v19h458v-19h-194v-4q41 -14 63 -94l342 -1141q12 -49 13 -74h28q0 31 19 80l403 1108q14 37 15 60q0 66 -103 65h-78v19h349v-19h-31q-45 0 -67 -28
t-46 -99l-485 -1335l-115 -10l-344 1142l-340 -1134l-115 -8l-487 1345q-25 80 -45 104t-74 23h-31v19zM1151 1839h-8q0 -16 -103 -119l-100 -100l-31 37l209 205h58l210 -205l-30 -37l-101 100q-104 104 -104 119z" />
    <glyph glyph-name="Ycircumflex" unicode="&#x176;" horiz-adv-x="1177" 
d="M236 0v16h176q74 0 91 18t17 91v569l-321 619q-6 12 -22 42l-19 38q-32 63 -95 63h-43v17h388v-17h-127v-4q29 -10 84 -115l264 -503q23 -41 26 -66h15q2 18 26 66l246 475q31 57 31 90q0 57 -88 57h-123v17h395v-17h-35q-56 0 -90 -58q-14 -24 -47 -87l-303 -586v-600
q0 -74 17 -91t92 -18h151v-16h-706zM610 1843q0 -16 -102 -119l-100 -100l-31 37l209 205h57l211 -205l-31 -37l-100 100q-104 104 -105 119h-8z" />
    <glyph glyph-name="ycircumflex" unicode="&#x177;" horiz-adv-x="1177" 
d="M236 0v16h176q74 0 91 18t17 91v569l-321 619q-6 12 -22 42l-19 38q-32 63 -95 63h-43v17h388v-17h-127v-4q29 -10 84 -115l264 -503q23 -41 26 -66h15q2 18 26 66l246 475q31 57 31 90q0 57 -88 57h-123v17h395v-17h-35q-56 0 -90 -58q-14 -24 -47 -87l-303 -586v-600
q0 -74 17 -91t92 -18h151v-16h-706zM610 1843q0 -16 -102 -119l-100 -100l-31 37l209 205h57l211 -205l-31 -37l-100 100q-104 104 -105 119h-8z" />
    <glyph glyph-name="Ydieresis" unicode="&#x178;" horiz-adv-x="1177" 
d="M236 0v16h176q74 0 91 18t17 91v569l-321 619q-6 12 -22 42l-19 38q-32 63 -95 63h-43v17h388v-17h-127v-4q29 -10 84 -115l264 -503q23 -41 26 -66h15q2 18 26 66l246 475q31 57 31 90q0 57 -88 57h-123v17h395v-17h-35q-56 0 -90 -58q-14 -24 -47 -87l-303 -586v-600
q0 -74 17 -91t92 -18h151v-16h-706zM814 1810q42 0 67 -24t25 -65q0 -43 -24 -67t-66 -24t-68 24t-25 66t25 66t66 24zM413 1810q41 0 67 -24t26 -65q0 -43 -25 -67t-67 -24t-66 24t-24 66t23 66q24 24 66 24z" />
    <glyph glyph-name="Zacute" unicode="&#x179;" horiz-adv-x="1064" 
d="M0 0v18q27 0 69 41t78 119l537 1127q23 47 66 81t81 46v6h-401q-156 0 -222 -47t-75 -193l-2 -41l-14 2l22 434l15 -2l-7 -137q18 18 54 19h796v-19q-23 0 -63 -40t-78 -120l-537 -1122q-43 -88 -98 -129v-6h469q154 0 217 44t72 179l4 76l21 -2l-25 -436l-21 2l7 116h-2
q-16 -16 -50 -16h-913zM444 1550l-18 17l242 284q16 20 41 2l24 -20l-49 -61z" />
    <glyph glyph-name="zacute" unicode="&#x17a;" horiz-adv-x="1064" 
d="M0 0v18q27 0 69 41t78 119l537 1127q23 47 66 81t81 46v6h-401q-156 0 -222 -47t-75 -193l-2 -41l-14 2l22 434l15 -2l-7 -137q18 18 54 19h796v-19q-23 0 -63 -40t-78 -120l-537 -1122q-43 -88 -98 -129v-6h469q154 0 217 44t72 179l4 76l21 -2l-25 -436l-21 2l7 116h-2
q-16 -16 -50 -16h-913zM444 1550l-18 17l242 284q16 20 41 2l24 -20l-49 -61z" />
    <glyph glyph-name="Zdotaccent" unicode="&#x17b;" horiz-adv-x="1064" 
d="M0 0v18q27 0 69 41t78 119l537 1127q23 47 66 81t81 46v6h-401q-156 0 -222 -47t-75 -193l-2 -41l-14 2l22 434l15 -2l-7 -137q18 18 54 19h796v-19q-23 0 -63 -40t-78 -120l-537 -1122q-43 -88 -98 -129v-6h469q154 0 217 44t72 179l4 76l21 -2l-25 -436l-21 2l7 116h-2
q-16 -16 -50 -16h-913zM540 1843q42 1 66 -23t25 -66q0 -42 -24 -68q-23 -26 -65 -25q-42 0 -68 25q-26 24 -26 66t25 67q25 24 67 24z" />
    <glyph glyph-name="zdotaccent" unicode="&#x17c;" horiz-adv-x="1064" 
d="M0 0v18q27 0 69 41t78 119l537 1127q23 47 66 81t81 46v6h-401q-156 0 -222 -47t-75 -193l-2 -41l-14 2l22 434l15 -2l-7 -137q18 18 54 19h796v-19q-23 0 -63 -40t-78 -120l-537 -1122q-43 -88 -98 -129v-6h469q154 0 217 44t72 179l4 76l21 -2l-25 -436l-21 2l7 116h-2
q-16 -16 -50 -16h-913zM540 1843q42 1 66 -23t25 -66q0 -42 -24 -68q-23 -26 -65 -25q-42 0 -68 25q-26 24 -26 66t25 67q25 24 67 24z" />
    <glyph glyph-name="Zcaron" unicode="&#x17d;" horiz-adv-x="1064" 
d="M0 0v18q27 0 69 41t78 119l537 1127q23 47 66 81t81 46v6h-401q-156 0 -222 -47t-75 -193l-2 -41l-14 2l22 434l15 -2l-7 -137q18 18 54 19h796v-19q-23 0 -63 -40t-78 -120l-537 -1122q-43 -88 -98 -129v-6h469q154 0 217 44t72 179l4 76l21 -2l-25 -436l-21 2l7 116h-2
q-16 -16 -50 -16h-913zM545 1632q0 14 104 119l101 100l30 -36l-211 -205h-57l-209 205l31 36l100 -100q102 -102 103 -119h8z" />
    <glyph glyph-name="zcaron" unicode="&#x17e;" horiz-adv-x="1064" 
d="M0 0v18q27 0 69 41t78 119l537 1127q23 47 66 81t81 46v6h-401q-156 0 -222 -47t-75 -193l-2 -41l-14 2l22 434l15 -2l-7 -137q18 18 54 19h796v-19q-23 0 -63 -40t-78 -120l-537 -1122q-43 -88 -98 -129v-6h469q154 0 217 44t72 179l4 76l21 -2l-25 -436l-21 2l7 116h-2
q-16 -16 -50 -16h-913zM545 1632q0 14 104 119l101 100l30 -36l-211 -205h-57l-209 205l31 36l100 -100q102 -102 103 -119h8z" />
    <glyph glyph-name="florin" unicode="&#x192;" horiz-adv-x="708" 
d="M299 891v-4q23 -12 23 -64l-76 -1095h-146l82 1163h-127l4 53h127l4 74q14 186 100 284t236 99q106 0 162 -78l-37 -27q-43 49 -129 50q-164 0 -180 -236l-10 -166h182l-4 -53h-211z" />
    <glyph glyph-name="uni01CD" unicode="&#x1cd;" horiz-adv-x="1552" 
d="M725 1372q0 -25 -25 -82l-372 -854h780l-348 854q-16 37 -17 82h-18zM16 0v18h33q57 0 113 127l575 1328h158v-25q0 -74 18 -119l484 -1184q39 -94 58 -110t63 -17h16v-18h-391v18h157v5q-29 10 -63 96l-115 280h-811l-110 -254q-27 -69 16 -104q27 -23 72 -23h100v-18
h-373zM803 1632q0 14 104 119l101 100l30 -36l-211 -205h-57l-209 205l31 36l100 -100q102 -102 103 -119h8z" />
    <glyph glyph-name="uni01CE" unicode="&#x1ce;" horiz-adv-x="1103" 
d="M760 709h-150q-172 0 -276 -108t-105 -282q0 -127 65 -203q64 -76 176 -77t201 109t89 315v246zM842 -2q0 51 -20 169q-19 118 -19 148h-21q-82 -332 -344 -331q-168 0 -278 93t-109 242q0 193 151 310t398 116h160v439q0 268 -242 268q-147 0 -229 -77t-88 -201l-6 -127
h-37l22 483h21l-6 -109q-4 -49 -9 -65l15 -4q10 31 32 47q121 90 301 90t285 -85q104 -85 105 -247v-1012q0 -63 11 -83t56 -21l41 2l35 2l2 -18q-127 -12 -227 -45v16zM524 1632h8q0 14 105 119l100 100l31 -36l-211 -205h-57l-209 205l31 36l100 -100q102 -102 102 -119z
" />
    <glyph glyph-name="uni01CF" unicode="&#x1cf;" horiz-adv-x="593" 
d="M37 0v18h72q74 0 91 16t17 91v1223q0 74 -17 90t-91 16h-72v19h522v-23h-72q-74 0 -92 -16t-18 -91v-1218q0 -74 18 -90t92 -17h72v-18h-522zM301 1632q0 14 105 119l100 100l31 -36l-211 -205h-58l-209 205l31 36l100 -100q102 -102 103 -119h8z" />
    <glyph glyph-name="uni01D0" unicode="&#x1d0;" horiz-adv-x="593" 
d="M37 1454v19h522v-23h-72q-74 0 -92 -16t-18 -91v-1218q0 -74 18 -90t92 -17h72v-18h-522v18h72q74 0 91 16t17 91v1223q0 74 -17 90t-91 16h-72zM301 1632q0 14 105 119l100 100l31 -36l-211 -205h-58l-209 205l31 36l100 -100q102 -102 103 -119h8z" />
    <glyph glyph-name="uni01D1" unicode="&#x1d1;" horiz-adv-x="1642" 
d="M242 756q0 -348 150 -542t433 -194t429 174t146 523q0 347 -150 541q-152 194 -434 194t-428 -174t-146 -522zM1579 736q0 -340 -208 -546t-549 -206t-550 206t-209 546q0 339 209 546t550 207t549 -207t208 -546zM819 1632h8q0 14 105 119l100 100l31 -36l-211 -205h-57
l-209 205l30 36l101 -100q102 -102 102 -119z" />
    <glyph glyph-name="uni01D2" unicode="&#x1d2;" horiz-adv-x="1642" 
d="M242 756q0 -348 150 -542t433 -194t429 174t146 523q0 347 -150 541q-152 194 -434 194t-428 -174t-146 -522zM1579 736q0 -340 -208 -546t-549 -206t-550 206t-209 546q0 339 209 546t550 207t549 -207t208 -546zM819 1636h8q0 14 105 119l100 100l31 -36l-211 -205h-57
l-209 205l30 36l101 -100q102 -102 102 -119z" />
    <glyph glyph-name="uni01D3" unicode="&#x1d3;" horiz-adv-x="1187" 
d="M37 1473h522v-19h-90q-74 0 -91 -17t-18 -91v-1084q0 -240 248 -242q164 0 251 81t87 235v973q0 81 -24 113t-93 32h-75v19h399v-19h-53q-70 0 -94 -33t-23 -112v-973q0 -172 -96 -262q-95 -90 -279 -90t-296 97t-111 255v1010q-1 74 -19 91t-92 17h-53v19zM643 1632h8
q0 14 105 119l100 100l31 -36l-211 -205h-58l-208 205l30 36l101 -100q102 -102 102 -119z" />
    <glyph glyph-name="uni01D4" unicode="&#x1d4;" horiz-adv-x="1247" 
d="M952 401h-16q-30 -211 -142 -314t-267 -103t-249 81t-96 228v1040q0 61 -61 62h-96v18h116q76 0 132 26t57 83v8h16v-1219q0 -139 54 -215t147 -76q166 0 266 144t100 379v803q0 74 -18 91t-92 17h-35v19l317 8v-17q-8 -82 -8 -108v-1211q1 -74 19 -91t92 -17h35v-19
q-141 -6 -277 -36v16q8 82 8 117v32l-2 246v8zM604 1632h8q0 14 105 119l100 100l31 -36l-211 -205h-57l-209 205l30 36l101 -100q102 -102 102 -119z" />
    <glyph glyph-name="uni01E2" unicode="&#x1e2;" horiz-adv-x="1857" 
d="M764 0v18h72q74 0 91 18t17 91v436h-569l-174 -418q-27 -69 16 -104q27 -23 72 -23h100v-18h-373v18h33q59 0 113 127l510 1219q12 33 12 53q0 31 -31 31v25h928q57 0 76 -19h2l-6 94l18 2l37 -555h-37l-8 144q-8 161 -86 229t-229 68h-289v-2q45 -45 45 -107v-536h82
q106 0 164 42q57 42 57 175v71h18v-657h-18v113q0 133 -58 176t-163 43h-82v-609q0 -61 -45 -106v-2h407q150 -1 223 65t83 211l12 164h33l-35 -555l-19 2l6 94h-2q-18 -18 -75 -18h-928zM944 1448h-147q-51 0 -86 -82l-320 -766h553v848zM1305 1692h-560l5 53h559z" />
    <glyph glyph-name="uni01E3" unicode="&#x1e3;" horiz-adv-x="2238" 
d="M1507 1452q-263 0 -407 -158t-156 -458l1028 14q16 0 17 18q0 264 -132 424t-350 160zM760 799h-150q-172 0 -276 -121t-105 -318q0 -145 65 -233q64 -88 176 -88q112 -1 201 109t89 315v336zM760 836v348q0 130 -62 200t-170 70q-211 0 -287 -136q-36 -62 -40 -144
l-6 -127h-37l22 483h21l-6 -109q-4 -49 -9 -65l15 -4q10 31 32 47q121 90 289 90t272 -69t121 -199q98 129 253 199t348 69q274 0 464 -174t191 -447v-10q-1 -25 -19 -42t-45 -17h-1165v-25q0 -362 155 -558t421 -196q204 0 362 83t248 235l29 -23q-95 -159 -263 -245
t-400 -86t-421 129q-188 129 -264 350h-12q1 -209 -99 -344t-267 -135t-273 103t-107 273q0 212 152 344t397 132h160zM1212 1696h-559l4 53h560z" />
    <glyph glyph-name="Gcaron" unicode="&#x1e6;" horiz-adv-x="1486" 
d="M1307 -82h-19v143q-2 39 -25 70q-24 31 -56 31t-60 -29q-139 -150 -365 -149q-322 0 -518 208t-196 546q0 339 193 545q194 206 509 206q221 0 375 -129q14 -12 22 -39l9 2q-6 25 -7 47l-10 199l21 2l32 -631l-34 -2l-9 135q-10 175 -133 277t-286 102q-246 0 -375 -173
t-129 -523t139 -542q139 -194 406 -194q231 4 354 168v269q0 86 -52 138t-139 52h-237v37h764v-37h-174v-729zM774 1636h8q0 14 105 119l100 100l31 -36l-211 -205h-57l-209 205l30 36l101 -100q102 -102 102 -119z" />
    <glyph glyph-name="gcaron" unicode="&#x1e7;" horiz-adv-x="1486" 
d="M1307 -82h-19v143q-2 39 -25 70q-24 31 -56 31t-60 -29q-139 -150 -365 -149q-322 0 -518 208t-196 546q0 339 193 545q194 206 509 206q221 0 375 -129q14 -12 22 -39l9 2q-6 25 -7 47l-10 199l21 2l32 -631l-34 -2l-9 135q-10 175 -133 277t-286 102q-246 0 -375 -173
t-129 -523t139 -542q139 -194 406 -194q231 4 354 168v269q0 86 -52 138t-139 52h-237v37h764v-37h-174v-729zM774 1636h8q0 14 105 119l100 100l31 -36l-211 -205h-57l-209 205l30 36l101 -100q102 -102 102 -119z" />
    <glyph glyph-name="uni01E8" unicode="&#x1e8;" horiz-adv-x="1200" 
d="M37 0v18h72q74 0 91 20t17 107v1201q0 74 -17 91t-91 17h-72v19h469v-19h-19q-74 0 -92 -17t-18 -91v-461q111 0 133 28l324 408q37 45 36 78q0 55 -106 55h-19v19h453v-19h-24q-78 0 -160 -34t-142 -107l-325 -412l2 -8q188 -40 272 -168q74 -110 97 -241t30 -200
q20 -173 58 -214q82 -87 192 -2l27 20l12 -14l-27 -21q-84 -76 -172 -76t-142 59q-19 22 -33 39q-48 62 -99 364q-30 175 -76 259t-114 126t-173 42h-24v-721q0 -86 16 -103q15 -17 35 -20t59 -4h72v-18h-522zM604 1632h8q0 14 105 119l100 100l31 -36l-211 -205h-57
l-209 205l30 36l101 -100q102 -102 102 -119z" />
    <glyph glyph-name="uni01E9" unicode="&#x1e9;" horiz-adv-x="1200" 
d="M37 0v18h72q74 0 91 20t17 107v1201q0 74 -17 91t-91 17h-72v19h469v-19h-19q-74 0 -92 -17t-18 -91v-461q111 0 133 28l324 408q37 45 36 78q0 55 -106 55h-19v19h453v-19h-24q-78 0 -160 -34t-142 -107l-325 -412l2 -8q188 -40 272 -168q74 -110 97 -241t30 -200
q20 -173 58 -214q82 -87 192 -2l27 20l12 -14l-27 -21q-84 -76 -172 -76t-142 59q-19 22 -33 39q-48 62 -99 364q-30 175 -76 259t-114 126t-173 42h-24v-721q0 -86 16 -103q15 -17 35 -20t59 -4h72v-18h-522zM604 1632h8q0 14 105 119l100 100l31 -36l-211 -205h-57
l-209 205l30 36l101 -100q102 -102 102 -119z" />
    <glyph glyph-name="uni01EA" unicode="&#x1ea;" horiz-adv-x="1642" 
d="M825 20q283 0 429.5 174.5t146.5 522.5t-150.5 541.5t-433.5 193.5t-429 -174t-146 -522.5t150 -542t433 -193.5zM905 -465q-104 0 -167.5 51.5t-63.5 136t54 152.5t142 111q-25 -2 -47 -2q-342 0 -551 206.5t-209 545.5t209 546t550 207t549 -207t208 -545
q0 -193 -70.5 -348.5t-200.5 -254.5t-307 -134q-80 -20 -127 -52t-77.5 -90.5t-30.5 -128t43 -111.5t103 -42t130 23l11 -35q-92 -29 -148 -29z" />
    <glyph glyph-name="uni01EB" unicode="&#x1eb;" horiz-adv-x="1642" 
d="M242 756q0 -348 150 -542t433 -194t429 174t146 523q0 347 -150 541q-152 194 -434 194t-428 -174t-146 -522zM905 -465q-104 0 -168 51q-63 51 -63 136t54 153t142 111q-25 -2 -47 -2q-342 0 -551 206t-209 546q0 339 209 546t550 207t549 -207t208 -545
q0 -193 -71 -349q-70 -156 -200 -254q-130 -99 -307 -134q-80 -20 -126 -52q-47 -32 -78 -90t-31 -128t43 -112t103 -42t130 23l11 -35q-92 -29 -148 -29z" />
    <glyph glyph-name="uni01EC" unicode="&#x1ec;" horiz-adv-x="1642" 
d="M242 756q0 -348 150 -542t433 -194t429 174t146 523q0 347 -150 541q-152 194 -434 194t-428 -174t-146 -522zM905 -465q-104 0 -168 51q-63 51 -63 136t54 153t142 111q-25 -2 -47 -2q-342 0 -551 206t-209 546q0 339 209 546t550 207t549 -207t208 -545
q0 -193 -71 -349q-70 -156 -200 -254q-130 -99 -307 -134q-80 -20 -126 -52q-47 -32 -78 -90t-31 -128t43 -112t103 -42t130 23l11 -35q-92 -29 -148 -29zM1102 1692h-559l4 53h559z" />
    <glyph glyph-name="uni01ED" unicode="&#x1ed;" horiz-adv-x="1642" 
d="M242 756q0 -348 150 -542t433 -194t429 174t146 523q0 347 -150 541q-152 194 -434 194t-428 -174t-146 -522zM905 -465q-104 0 -168 51q-63 51 -63 136t54 153t142 111q-25 -2 -47 -2q-342 0 -551 206t-209 546q0 339 209 546t550 207t549 -207t208 -545
q0 -193 -71 -349q-70 -156 -200 -254q-130 -99 -307 -134q-80 -20 -126 -52q-47 -32 -78 -90t-31 -128t43 -112t103 -42t130 23l11 -35q-92 -29 -148 -29zM1102 1694h-561l4 53h561z" />
    <glyph glyph-name="uni01F0" unicode="&#x1f0;" horiz-adv-x="831" 
d="M68 242q0 -98 66 -159q67 -60 177 -60q164 0 164 217v1157q0 35 19 53v4h-283v19h586v-19h-54q-109 0 -108 -108v-1014q0 -154 -91 -250q-92 -96 -222 -96t-202 70t-71 186h19zM557 1595q0 14 105 119l100 101l31 -37l-211 -205h-58l-209 205l31 37l100 -101
q102 -102 103 -119h8z" />
    <glyph glyph-name="uni01F4" unicode="&#x1f4;" horiz-adv-x="1486" 
d="M1307 -82h-19v143q-2 39 -25 70q-24 31 -56 31t-60 -29q-139 -150 -365 -149q-322 0 -518 208t-196 546q0 339 193 545q194 206 509 206q221 0 375 -129q14 -12 22 -39l9 2q-6 25 -7 47l-10 199l21 2l32 -631l-34 -2l-9 135q-10 175 -133 277t-286 102q-246 0 -375 -173
t-129 -523t139 -542q139 -194 406 -194q231 4 354 168v269q0 86 -52 138t-139 52h-237v37h764v-37h-174v-729zM682 1554l-18 17l241 284q16 20 41 3l25 -21l-49 -61z" />
    <glyph glyph-name="uni01F5" unicode="&#x1f5;" horiz-adv-x="1486" 
d="M1307 -82h-19v143q-2 39 -25 70q-24 31 -56 31t-60 -29q-139 -150 -365 -149q-322 0 -518 208t-196 546q0 339 193 545q194 206 509 206q221 0 375 -129q14 -12 22 -39l9 2q-6 25 -7 47l-10 199l21 2l32 -631l-34 -2l-9 135q-10 175 -133 277t-286 102q-246 0 -375 -173
t-129 -523t139 -542q139 -194 406 -194q231 4 354 168v269q0 86 -52 138t-139 52h-237v37h764v-37h-174v-729zM682 1554l-18 17l241 284q16 20 41 3l25 -21l-49 -61z" />
    <glyph glyph-name="uni01F8" unicode="&#x1f8;" horiz-adv-x="1191" 
d="M399 0h-362v18h53q74 0 92 18t19 91v1219q-1 74 -19 91t-92 17h-53v19h313l561 -1033q37 -63 37 -75h13q-2 23 -3 86v874q0 73 -28 101t-103 28h-92v19h422v-19h-33q-74 0 -102 -28t-29 -101v-1364h-16q0 20 -57 127l-635 1153q-41 78 -41 80h-11q2 -23 3 -88v-1106
q0 -74 18 -91t92 -18h53v-18zM438 1866q10 0 19 -11l241 -284l-18 -17l-240 222l-49 61l25 21q12 8 22 8z" />
    <glyph glyph-name="uni01F9" unicode="&#x1f9;" horiz-adv-x="1304" 
d="M37 0v18h72q69 0 86 16q16 16 19 34q3 20 3 59v1167q0 29 -18 47q-17 19 -35 19h-23l-121 -10l-2 12l158 33q66 12 109 51t43 98v8h16v-268q0 -178 -4 -215h14q6 55 33 133q45 131 147 209t246 78q146 0 236 -84t90 -225v-1053q0 -74 17 -91t91 -18h74v-18h-522v18h199v5
q-18 18 -19 53v1069q0 309 -201 309q-160 0 -264 -139t-104 -361v-827q0 -74 18 -91t92 -18h72v-18h-522zM743 1550l-239 222l-49 61l24 20q27 18 41 -2l242 -284z" />
    <glyph glyph-name="AEacute" unicode="&#x1fc;" horiz-adv-x="1857" 
d="M764 0v18h72q74 0 91 18t17 91v436h-569l-174 -418q-27 -69 16 -104q27 -23 72 -23h100v-18h-373v18h33q59 0 113 127l510 1219q12 33 12 53q0 31 -31 31v25h928q57 0 76 -19h2l-6 94l18 2l37 -555h-37l-8 144q-8 161 -86 229t-229 68h-289v-2q45 -45 45 -107v-536h82
q106 0 164 42q57 42 57 175v71h18v-657h-18v113q0 133 -58 176t-163 43h-82v-609q0 -61 -45 -106v-2h407q150 -1 223 65t83 211l12 164h33l-35 -555l-19 2l6 94h-2q-18 -18 -75 -18h-928zM944 1448h-147q-51 0 -86 -82l-320 -766h553v848zM930 1550l-19 17l242 284
q16 20 41 2l25 -20l-50 -61z" />
    <glyph glyph-name="aeacute" unicode="&#x1fd;" horiz-adv-x="2238" 
d="M1507 1452q-263 0 -407 -158t-156 -458l1028 14q16 0 17 18q0 264 -132 424t-350 160zM760 799h-150q-172 0 -276 -121t-105 -318q0 -145 65 -233q64 -88 176 -88q112 -1 201 109t89 315v336zM760 836v348q0 130 -62 200t-170 70q-211 0 -287 -136q-36 -62 -40 -144
l-6 -127h-37l22 483h21l-6 -109q-4 -49 -9 -65l15 -4q10 31 32 47q121 90 289 90t272 -69t121 -199q98 129 253 199t348 69q274 0 464 -174t191 -447v-10q-1 -25 -19 -42t-45 -17h-1165v-25q0 -362 155 -558t421 -196q204 0 362 83t248 235l29 -23q-95 -159 -263 -245
t-400 -86t-421 129q-188 129 -264 350h-12q1 -209 -99 -344t-267 -135t-273 103t-107 273q0 212 152 344t397 132h160zM838 1554l-19 17l242 284q15 19 41 3l24 -21l-49 -61z" />
    <glyph glyph-name="Oslashacute" unicode="&#x1fe;" horiz-adv-x="1642" 
d="M393 213l819 1090q-146 149 -412 149t-412 -174t-146 -522t151 -543zM842 20q266 0 412 174t146 524q0 349 -151 542l-819 -1090q146 -150 412 -150zM63 737q0 338 209 545t551 207q254 0 439 -119l153 203l45 -33l-151 -203q194 -151 252 -415q18 -88 18 -185
q0 -340 -208 -547t-548 -206q-256 0 -444 120l-152 -202l-45 32l152 203q-129 98 -200 253t-71 347zM727 1550l-18 17l241 284q16 20 41 2l25 -20l-49 -61z" />
    <glyph glyph-name="oslashacute" unicode="&#x1ff;" horiz-adv-x="1642" 
d="M727 1550l-18 17l241 284q16 20 41 2l25 -20l-49 -61zM393 213l819 1090q-146 149 -412 149t-412 -174t-146 -522t151 -543zM842 20q266 0 412 174t146 524q0 349 -151 542l-819 -1090q146 -150 412 -150zM63 737q0 338 209 545t551 207q254 0 439 -119l153 203l45 -33
l-151 -203q194 -151 252 -415q18 -88 18 -185q0 -340 -208 -547t-548 -206q-256 0 -444 120l-152 -202l-45 32l152 203q-129 98 -200 253t-71 347z" />
    <glyph glyph-name="uni0200" unicode="&#x200;" horiz-adv-x="1552" 
d="M725 1372q0 -25 -25 -82l-372 -854h780l-348 854q-16 37 -17 82h-18zM16 0v18h33q57 0 113 127l575 1328h158v-25q0 -74 18 -119l484 -1184q39 -94 58 -110t63 -17h16v-18h-391v18h157v5q-29 10 -63 96l-115 280h-811l-110 -254q-27 -69 16 -104q27 -23 72 -23h100v-18
h-373zM854 1862l199 -232l-19 -18l-190 168l-35 41zM526 1862l199 -232l-18 -18l-191 168l-35 41z" />
    <glyph glyph-name="uni0201" unicode="&#x201;" horiz-adv-x="1103" 
d="M760 709h-150q-172 0 -276 -108t-105 -282q0 -127 65 -203q64 -76 176 -77t201 109t89 315v246zM842 -2q0 51 -20 169q-19 118 -19 148h-21q-82 -332 -344 -331q-168 0 -278 93t-109 242q0 193 151 310t398 116h160v439q0 268 -242 268q-147 0 -229 -77t-88 -201l-6 -127
h-37l22 483h21l-6 -109q-4 -49 -9 -65l15 -4q10 31 32 47q121 90 301 90t285 -85q104 -85 105 -247v-1012q0 -63 11 -83t56 -21l41 2l35 2l2 -18q-127 -12 -227 -45v16zM584 1862l198 -232l-18 -18l-191 168l-34 41zM256 1862l199 -232l-19 -18l-190 168l-35 41z" />
    <glyph glyph-name="uni0202" unicode="&#x202;" horiz-adv-x="1552" 
d="M725 1372q0 -25 -25 -82l-372 -854h780l-348 854q-16 37 -17 82h-18zM16 0v18h33q57 0 113 127l575 1328h158v-25q0 -74 18 -119l484 -1184q39 -94 58 -110t63 -17h16v-18h-391v18h157v5q-29 10 -63 96l-115 280h-811l-110 -254q-27 -69 16 -104q27 -23 72 -23h100v-18
h-373zM516 1618q127 238 283 237q83 -1 159 -67t123 -170l-28 -19q-253 368 -500 0z" />
    <glyph glyph-name="uni0203" unicode="&#x203;" horiz-adv-x="1103" 
d="M760 709h-150q-172 0 -276 -108t-105 -282q0 -127 65 -203q64 -76 176 -77t201 109t89 315v246zM842 -2q0 51 -20 169q-19 118 -19 148h-21q-82 -332 -344 -331q-168 0 -278 93t-109 242q0 193 151 310t398 116h160v439q0 268 -242 268q-147 0 -229 -77t-88 -201l-6 -127
h-37l22 483h21l-6 -109q-4 -49 -9 -65l15 -4q10 31 32 47q121 90 301 90t285 -85q104 -85 105 -247v-1012q0 -63 11 -83t56 -21l41 2l35 2l2 -18q-127 -12 -227 -45v16zM246 1618q127 238 282 237q84 -1 160 -67t123 -170l-29 -19q-253 369 -499 0z" />
    <glyph glyph-name="uni0204" unicode="&#x204;" horiz-adv-x="1130" 
d="M698 422h-18v113q0 133 -58 176t-163 43h-82v-609q0 -61 -45 -106v-2h407q150 -1 223 65t82 211l13 164h33l-35 -555l-19 2l6 94h-2q-18 -18 -75 -18h-928v18h72q74 0 91 18t17 91v1219q0 74 -17 91t-91 17h-72v19h817q57 0 76 -19h2l-6 94l18 2l37 -555h-37l-8 144
q-8 161 -85 229t-230 68h-289v-2q45 -45 45 -107v-536h82q106 0 164 42q57 42 57 175v71h18v-657zM651 1862l199 -232l-19 -18l-190 168l-35 41zM324 1862l198 -232l-18 -18l-191 168l-34 41z" />
    <glyph glyph-name="uni0205" unicode="&#x205;" horiz-adv-x="1542" 
d="M1292 868q0 262 -132 423t-349 161q-263 0 -407 -158t-156 -458l1028 14q16 0 16 18zM246 799v-25q0 -362 154 -558t425 -196q270 0 457 147q90 71 150 171l28 -23q-96 -159 -263 -245t-382 -86q-326 0 -539 210t-213 546t208 543q208 206 548 206q275 0 465 -174
t191 -447v-10q-1 -25 -19 -42t-45 -17h-1165zM846 1866l198 -232l-18 -18l-190 168l-35 41zM518 1866l199 -232l-19 -18l-190 168l-35 41z" />
    <glyph glyph-name="uni0206" unicode="&#x206;" horiz-adv-x="1130" 
d="M698 422h-18v113q0 133 -58 176t-163 43h-82v-609q0 -61 -45 -106v-2h407q150 -1 223 65t82 211l13 164h33l-35 -555l-19 2l6 94h-2q-18 -18 -75 -18h-928v18h72q74 0 91 18t17 91v1219q0 74 -17 91t-91 17h-72v19h817q57 0 76 -19h2l-6 94l18 2l37 -555h-37l-8 144
q-8 161 -85 229t-230 68h-289v-2q45 -45 45 -107v-536h82q106 0 164 42q57 42 57 175v71h18v-657zM313 1618q127 238 283 237q84 -1 160 -67t123 -170l-29 -19q-253 368 -500 0z" />
    <glyph glyph-name="uni0207" unicode="&#x207;" horiz-adv-x="1542" 
d="M1292 868q0 262 -132 423t-349 161q-263 0 -407 -158t-156 -458l1028 14q16 0 16 18zM246 799v-25q0 -362 154 -558t425 -196q270 0 457 147q90 71 150 171l28 -23q-96 -159 -263 -245t-382 -86q-326 0 -539 210t-213 546t208 543q208 206 548 206q275 0 465 -174
t191 -447v-10q-1 -25 -19 -42t-45 -17h-1165zM791 1860q83 0 159 -67t123 -171l-29 -18q-124 182 -250 182t-249 -182l-37 18q127 238 283 238z" />
    <glyph glyph-name="uni0208" unicode="&#x208;" horiz-adv-x="593" 
d="M37 0v18h72q74 0 91 16t17 91v1223q0 74 -17 90t-91 16h-72v19h522v-23h-72q-74 0 -92 -16t-18 -91v-1218q0 -74 18 -90t92 -17h72v-18h-522zM352 1862l199 -232l-19 -18l-190 168l-35 41zM25 1862l198 -232l-18 -18l-191 168l-34 41z" />
    <glyph glyph-name="uni0209" unicode="&#x209;" horiz-adv-x="593" 
d="M37 1454v19h522v-23h-72q-74 0 -92 -16t-18 -91v-1218q0 -74 18 -90t92 -17h72v-18h-522v18h72q74 0 91 16t17 91v1223q0 74 -17 90t-91 16h-72zM352 1862l199 -232l-19 -18l-190 168l-35 41zM25 1862l198 -232l-18 -18l-191 168l-34 41z" />
    <glyph glyph-name="uni020A" unicode="&#x20a;" horiz-adv-x="593" 
d="M37 0v18h72q74 0 91 16t17 91v1223q0 74 -17 90t-91 16h-72v19h522v-23h-72q-74 0 -92 -16t-18 -91v-1218q0 -74 18 -90t92 -17h72v-18h-522zM14 1618q127 238 283 237q84 -1 160 -67t123 -170l-29 -19q-253 368 -500 0z" />
    <glyph glyph-name="uni020B" unicode="&#x20b;" horiz-adv-x="593" 
d="M37 1454v19h522v-23h-72q-74 0 -92 -16t-18 -91v-1218q0 -74 18 -90t92 -17h72v-18h-522v18h72q74 0 91 16t17 91v1223q0 74 -17 90t-91 16h-72zM14 1618q127 238 283 237q84 -1 160 -67t123 -170l-29 -19q-253 368 -500 0z" />
    <glyph glyph-name="uni020C" unicode="&#x20c;" horiz-adv-x="1642" 
d="M242 756q0 -348 150 -542t433 -194t429 174t146 523q0 347 -150 541q-152 194 -434 194t-428 -174t-146 -522zM1579 736q0 -340 -208 -546t-549 -206t-550 206t-209 546q0 339 209 546t550 207t549 -207t208 -546zM879 1862l198 -232l-18 -18l-191 168l-34 41zM551 1862
l199 -232l-19 -18l-190 168l-35 41z" />
    <glyph glyph-name="uni020D" unicode="&#x20d;" horiz-adv-x="1642" 
d="M825 20q283 0 429.5 174.5t146.5 522.5t-150.5 541.5t-433.5 193.5t-429 -174t-146 -522.5t150 -542t433 -193.5zM822 -16q-341 0 -550 206.5t-209 545.5t209 546t550 207t549 -207t208 -546t-208 -545.5t-549 -206.5zM879 1866l198 -232l-18 -18l-191 168l-34 41z
M551 1866l199 -232l-19 -18l-190 168l-35 41z" />
    <glyph glyph-name="uni020E" unicode="&#x20e;" horiz-adv-x="1642" 
d="M242 756q0 -348 150 -542t433 -194t429 174t146 523q0 347 -150 541q-152 194 -434 194t-428 -174t-146 -522zM1579 736q0 -340 -208 -546t-549 -206t-550 206t-209 546q0 339 209 546t550 207t549 -207t208 -546zM541 1618q127 238 282 237q84 -1 160 -67t123 -170
l-29 -19q-253 369 -499 0z" />
    <glyph glyph-name="uni020F" unicode="&#x20f;" horiz-adv-x="1642" 
d="M242 756q0 -348 150 -542t433 -194t429 174t146 523q0 347 -150 541q-152 194 -434 194t-428 -174t-146 -522zM1579 736q0 -340 -208 -546t-549 -206t-550 206t-209 546q0 339 209 546t550 207t549 -207t208 -546zM823 1860q84 0 160 -67t123 -171l-29 -18
q-125 182 -251 182t-248 -182l-37 18q127 238 282 238z" />
    <glyph glyph-name="uni0210" unicode="&#x210;" horiz-adv-x="1261" 
d="M37 0v18h72q74 0 91 18t17 91v1219q0 74 -17 91t-91 17h-72v19h534q246 0 396 -125q149 -126 149 -320t-123 -315t-311 -138l-41 -2v-12q147 -16 227 -141l103 -162q4 -6 37 -63t71 -95t57 -45q18 -8 42 -8t53 25l45 39l10 -15l-45 -39q-92 -77 -170 -77t-128 55
t-112 149l-143 222q-57 88 -98 122t-105 35h-24v35h94q186 0 285 108q98 108 98 312t-98 310q-98 108 -285 108h-213v-2q35 -35 35 -107v-1200q0 -74 18 -91t92 -18h119v-18h-569zM600 1862l199 -232l-19 -18l-190 168l-35 41zM272 1862l199 -232l-18 -18l-191 168l-35 41z
" />
    <glyph glyph-name="uni0211" unicode="&#x211;" horiz-adv-x="1261" 
d="M37 0v18h72q74 0 91 18t17 91v1219q0 74 -17 91t-91 17h-72v19h534q246 0 396 -125q149 -126 149 -320t-123 -315t-311 -138l-41 -2v-12q147 -16 227 -141l103 -162q4 -6 37 -63t71 -95t57 -45q18 -8 42 -8t53 25l45 39l10 -15l-45 -39q-92 -77 -170 -77t-128 55
t-112 149l-143 222q-57 88 -98 122t-105 35h-24v35h94q186 0 285 108q98 108 98 312t-98 310q-98 108 -285 108h-213v-2q35 -35 35 -107v-1200q0 -74 18 -91t92 -18h119v-18h-569zM600 1862l199 -232l-19 -18l-190 168l-35 41zM272 1862l199 -232l-18 -18l-191 168l-35 41z
" />
    <glyph glyph-name="uni0212" unicode="&#x212;" horiz-adv-x="1261" 
d="M37 0v18h72q74 0 91 18t17 91v1219q0 74 -17 91t-91 17h-72v19h534q246 0 396 -125q149 -126 149 -320t-123 -315t-311 -138l-41 -2v-12q147 -16 227 -141l103 -162q4 -6 37 -63t71 -95t57 -45q18 -8 42 -8t53 25l45 39l10 -15l-45 -39q-92 -77 -170 -77t-128 55
t-112 149l-143 222q-57 88 -98 122t-105 35h-24v35h94q186 0 285 108q98 108 98 312t-98 310q-98 108 -285 108h-213v-2q35 -35 35 -107v-1200q0 -74 18 -91t92 -18h119v-18h-569zM262 1618q127 238 283 237q84 -1 160 -67t122 -170l-28 -19q-253 368 -500 0z" />
    <glyph glyph-name="uni0213" unicode="&#x213;" horiz-adv-x="1261" 
d="M37 0v18h72q74 0 91 18t17 91v1219q0 74 -17 91t-91 17h-72v19h534q246 0 396 -125q149 -126 149 -320t-123 -315t-311 -138l-41 -2v-12q147 -16 227 -141l103 -162q4 -6 37 -63t71 -95t57 -45q18 -8 42 -8t53 25l45 39l10 -15l-45 -39q-92 -77 -170 -77t-128 55
t-112 149l-143 222q-57 88 -98 122t-105 35h-24v35h94q186 0 285 108q98 108 98 312t-98 310q-98 108 -285 108h-213v-2q35 -35 35 -107v-1200q0 -74 18 -91t92 -18h119v-18h-569zM262 1618q127 238 283 237q84 -1 160 -67t122 -170l-28 -19q-253 368 -500 0z" />
    <glyph glyph-name="uni0214" unicode="&#x214;" horiz-adv-x="1187" 
d="M37 1473h522v-19h-90q-74 0 -91 -17t-18 -91v-1084q0 -240 248 -242q164 0 251 81t87 235v973q0 81 -24 113t-93 32h-75v19h399v-19h-53q-70 0 -94 -33t-23 -112v-973q0 -172 -96 -262q-95 -90 -279 -90t-296 97t-111 255v1010q-1 74 -19 91t-92 17h-53v19zM702 1862
l199 -232l-18 -18l-191 168l-35 41zM375 1862l198 -232l-18 -18l-190 168l-35 41z" />
    <glyph glyph-name="uni0215" unicode="&#x215;" horiz-adv-x="1247" 
d="M952 401h-16q-30 -211 -142 -314t-267 -103t-249 81t-96 228v1040q0 61 -61 62h-96v18h116q76 0 132 26t57 83v8h16v-1219q0 -139 54 -215t147 -76q166 0 266 144t100 379v803q0 74 -18 91t-92 17h-35v19l317 8v-17q-8 -82 -8 -108v-1211q1 -74 19 -91t92 -17h35v-19
q-141 -6 -277 -36v16q8 82 8 117v32l-2 246v8zM664 1862l198 -232l-18 -18l-191 168l-35 41zM336 1862l199 -232l-19 -18l-190 168l-35 41z" />
    <glyph glyph-name="uni0216" unicode="&#x216;" horiz-adv-x="1187" 
d="M37 1473h522v-19h-90q-74 0 -91 -17t-18 -91v-1084q0 -240 248 -242q164 0 251 81t87 235v973q0 81 -24 113t-93 32h-75v19h399v-19h-53q-70 0 -94 -33t-23 -112v-973q0 -172 -96 -262q-95 -90 -279 -90t-296 97t-111 255v1010q-1 74 -19 91t-92 17h-53v19zM365 1618
q127 238 282 237q84 -1 160 -67t123 -170l-29 -19q-253 368 -500 0z" />
    <glyph glyph-name="uni0217" unicode="&#x217;" horiz-adv-x="1247" 
d="M952 401h-16q-30 -211 -142 -314t-267 -103t-249 81t-96 228v1040q0 61 -61 62h-96v18h116q76 0 132 26t57 83v8h16v-1219q0 -139 54 -215t147 -76q166 0 266 144t100 379v803q0 74 -18 91t-92 17h-35v19l317 8v-17q-8 -82 -8 -108v-1211q1 -74 19 -91t92 -17h35v-19
q-141 -6 -277 -36v16q8 82 8 117v32l-2 246v8zM326 1618q127 238 282 237q84 -1 160 -67t123 -170l-29 -19q-253 368 -500 0z" />
    <glyph glyph-name="Scommaaccent" unicode="&#x218;" horiz-adv-x="978" 
d="M467 20q194 0 269 142q38 70 38 163t-50 165t-125 119q-75 49 -162 105t-162 109t-125 141t-50 193q0 150 111 241t278 91t287 -90q23 -16 33 -47l14 4q-4 16 -8 65l-6 109h20l23 -483l-37 -3l-4 86q-6 134 -85 228t-213 94t-202 -64q-67 -64 -67 -195q0 -130 136 -232
q60 -45 190 -122t206 -147q152 -138 152 -325t-121 -285t-336 -98q-164 0 -324 110q-37 27 -51 68l-8 -2q4 -16 8 -88l6 -129h-18l-27 559l37 2l4 -84q8 -178 114 -289t255 -111zM418 -446q39 0 74 34t42 78l7 45l-4 4q-12 -14 -41 -14q-94 0 -95 90q0 92 95 92q42 1 66 -25
t24 -67q0 -115 -47 -185t-121 -71v19z" />
    <glyph glyph-name="scommaaccent" unicode="&#x219;" horiz-adv-x="978" 
d="M418 -446q39 0 74 34t42 78l7 45l-4 4q-12 -14 -41 -14q-94 0 -95 90q0 92 95 92q42 1 66 -25t24 -67q0 -115 -47 -185t-121 -71v19zM467 20q194 0 269 142q38 70 38 163t-50 165t-125 119q-75 49 -162 105t-162 109t-125 141t-50 193q0 150 111 241t278 91t287 -90
q23 -16 33 -47l14 4q-4 16 -8 65l-6 109h20l23 -483l-37 -3l-4 86q-6 134 -85 228t-213 94t-202 -64q-67 -64 -67 -195q0 -130 136 -232q60 -45 190 -122t206 -147q152 -138 152 -325t-121 -285t-336 -98q-164 0 -324 110q-37 27 -51 68l-8 -2q4 -16 8 -88l6 -129h-18
l-27 559l37 2l4 -84q8 -178 114 -289t255 -111z" />
    <glyph glyph-name="uni021A" unicode="&#x21a;" horiz-adv-x="1101" 
d="M209 0v18h156q74 0 91 18t17 91v1309h-123q-154 0 -211 -46t-65 -190l-6 -84l-37 2l30 475l23 -2l-10 -118h954l-10 116l22 2l31 -473l-37 -2l-6 84q-10 144 -67 190t-209 46h-119v-1309q0 -74 17 -91t91 -18h152v-18h-684zM475 -446q39 0 74 34t42 78l7 45l-4 4
q-12 -14 -41 -14q-94 0 -94 91t94 91q41 1 65 -25t25 -67q0 -115 -47 -185t-121 -71v19z" />
    <glyph glyph-name="uni021B" unicode="&#x21b;" horiz-adv-x="1101" 
d="M475 -446q39 0 74 34t42 78l7 45l-4 4q-12 -14 -41 -14q-94 0 -94 91t94 91q41 1 65 -25t25 -67q0 -115 -47 -185t-121 -71v19zM209 0v18h156q74 0 91 18t17 91v1309h-123q-154 0 -211 -46t-65 -190l-6 -84l-37 2l30 475l23 -2l-10 -118h954l-10 116l22 2l31 -473l-37 -2
l-6 84q-10 144 -67 190t-209 46h-119v-1309q0 -74 17 -91t91 -18h152v-18h-684z" />
    <glyph glyph-name="uni021E" unicode="&#x21e;" horiz-adv-x="1314" 
d="M37 0v18h72q72 0 90 25t18 102v1182q0 78 -18 103t-90 24h-72v19h504v-19h-54q-72 0 -91 -24t-19 -103v-534h561v534q0 78 -19 103t-92 24h-53v19h506v-19h-74q-72 0 -90 -24t-18 -103v-1182q0 -79 18 -103t90 -24h74v-18h-506v18h55q72 0 91 25q18 25 18 102v611h-561
v-611q0 -79 19 -103t91 -24h54v-18h-504zM653 1636h9q0 14 104 119l100 100l31 -36l-211 -205h-57l-209 205l31 36l100 -100q102 -102 102 -119z" />
    <glyph glyph-name="uni021F" unicode="&#x21f;" horiz-adv-x="1314" 
d="M37 0v18h72q72 0 90 25t18 102v1182q0 78 -18 103t-90 24h-72v19h504v-19h-54q-72 0 -91 -24t-19 -103v-534h561v534q0 78 -19 103t-92 24h-53v19h506v-19h-74q-72 0 -90 -24t-18 -103v-1182q0 -79 18 -103t90 -24h74v-18h-506v18h55q72 0 91 25q18 25 18 102v611h-561
v-611q0 -79 19 -103t91 -24h54v-18h-504zM653 1636h9q0 14 104 119l100 100l31 -36l-211 -205h-57l-209 205l31 36l100 -100q102 -102 102 -119z" />
    <glyph glyph-name="uni0226" unicode="&#x226;" horiz-adv-x="1552" 
d="M725 1372q0 -25 -25 -82l-372 -854h780l-348 854q-16 37 -17 82h-18zM16 0v18h33q57 0 113 127l575 1328h158v-25q0 -74 18 -119l484 -1184q39 -94 58 -110t63 -17h16v-18h-391v18h157v5q-29 10 -63 96l-115 280h-811l-110 -254q-27 -69 16 -104q27 -23 72 -23h100v-18
h-373zM798 1843q42 1 66 -23t25 -66q0 -42 -24 -68q-23 -26 -65 -25q-42 0 -68 25q-26 24 -26 66t25 67q25 24 67 24z" />
    <glyph glyph-name="uni0227" unicode="&#x227;" horiz-adv-x="1103" 
d="M760 709h-150q-172 0 -276 -108t-105 -282q0 -127 65 -203q64 -76 176 -77t201 109t89 315v246zM842 -2q0 51 -20 169q-19 118 -19 148h-21q-82 -332 -344 -331q-168 0 -278 93t-109 242q0 193 151 310t398 116h160v439q0 268 -242 268q-147 0 -229 -77t-88 -201l-6 -127
h-37l22 483h21l-6 -109q-4 -49 -9 -65l15 -4q10 31 32 47q121 90 301 90t285 -85q104 -85 105 -247v-1012q0 -63 11 -83t56 -21l41 2l35 2l2 -18q-127 -12 -227 -45v16zM527 1843q42 1 67 -23q24 -24 24 -66t-24 -68t-65 -25q-41 0 -67 25q-26 24 -26 66t24 66t67 25z" />
    <glyph glyph-name="uni0228" unicode="&#x228;" horiz-adv-x="1130" 
d="M698 422h-18v113q0 133 -58 176t-163 43h-82v-609q0 -61 -45 -106v-2h407q150 -1 223 65t82 211l13 164h33l-35 -555l-19 2l6 94h-2q-18 -18 -75 -18h-336l-25 -125q31 14 70 14q80 0 128 -46q48 -45 48 -119t-94 -130t-230 -57l6 37q126 0 190 87q30 41 30 77
q0 83 -49 108q-15 8 -53 8t-64 -24l-27 4l33 166h-555v18h72q74 0 91 18t17 91v1219q0 74 -17 91t-91 17h-72v19h817q57 0 76 -19h2l-6 94l18 2l37 -555h-37l-8 144q-8 161 -86 229t-229 68h-289v-2q45 -45 45 -107v-536h82q106 0 164 42q57 42 57 175v71h18v-657z" />
    <glyph glyph-name="uni0229" unicode="&#x229;" horiz-adv-x="1542" 
d="M821 20q205 0 363 83t248 235l28 -23q-94 -159 -261 -245t-382 -86l-22 -111q33 14 69 14q82 0 129 -46q47 -45 47 -119t-94 -130t-229 -57l6 37q93 0 156 51t63 129q0 41 -21 71q-22 30 -70 30t-75 -25l-26 4l30 152q-313 12 -515 221t-202 541t208 537q208 206 548 206
q275 0 465 -174t191 -447v-10q-1 -25 -19 -42t-45 -17h-1165v-25q0 -362 154 -558t421 -196zM1292 868q0 264 -132 424t-349 160q-263 0 -407 -158t-156 -458l1028 14q16 0 16 18z" />
    <glyph glyph-name="uni022E" unicode="&#x22e;" horiz-adv-x="1642" 
d="M242 756q0 -348 150 -542t433 -194t429 174t146 523q0 347 -150 541q-152 194 -434 194t-428 -174t-146 -522zM1579 736q0 -340 -208 -546t-549 -206t-550 206t-209 546q0 339 209 546t550 207t549 -207t208 -546zM822 1843q42 1 67 -23t25 -66t-24 -68t-66 -25
q-42 0 -68 25q-26 24 -25 66t25 66t66 25z" />
    <glyph glyph-name="uni022F" unicode="&#x22f;" horiz-adv-x="1642" 
d="M242 756q0 -348 150 -542t433 -194t429 174t146 523q0 347 -150 541q-152 194 -434 194t-428 -174t-146 -522zM1579 736q0 -340 -208 -546t-549 -206t-550 206t-209 546q0 339 209 546t550 207t549 -207t208 -546zM822 1847q42 1 67 -23t25 -66t-24 -68t-66 -25
q-42 0 -68 25q-26 24 -25 66t25 66t66 25z" />
    <glyph glyph-name="uni0232" unicode="&#x232;" horiz-adv-x="1177" 
d="M236 0v16h176q74 0 91 18t17 91v569l-321 619q-6 12 -22 42l-19 38q-32 63 -95 63h-43v17h388v-17h-127v-4q29 -10 84 -115l264 -503q23 -41 26 -66h15q2 18 26 66l246 475q31 57 31 90q0 57 -88 57h-123v17h395v-17h-35q-56 0 -90 -58q-14 -24 -47 -87l-303 -586v-600
q0 -74 17 -91t92 -18h151v-16h-706zM893 1696h-559l4 53h559z" />
    <glyph glyph-name="uni0233" unicode="&#x233;" horiz-adv-x="1177" 
d="M236 0v16h176q74 0 91 18t17 91v569l-321 619q-6 12 -22 42l-19 38q-32 63 -95 63h-43v17h388v-17h-127v-4q29 -10 84 -115l264 -503q23 -41 26 -66h15q2 18 26 66l246 475q31 57 31 90q0 57 -88 57h-123v17h395v-17h-35q-56 0 -90 -58q-14 -24 -47 -87l-303 -586v-600
q0 -74 17 -91t92 -18h151v-16h-706zM893 1696h-559l4 53h559z" />
    <glyph glyph-name="uni0237" unicode="&#x237;" horiz-adv-x="831" 
d="M68 242q0 -98 66.5 -158.5t176.5 -60.5q164 0 164 217v1157q0 35 19 53v4h-283v19h586v-19h-54q-109 0 -108 -108v-1014q0 -154 -91 -250q-92 -96 -222 -96t-201.5 70.5t-71.5 185.5h19z" />
    <glyph glyph-name="circumflex" unicode="&#x2c6;" horiz-adv-x="585" 
d="M537 1403h-9q0 -16 -102 -119l-100 -100l-31 37l209 204h57l211 -204l-31 -37l-100 100q-104 104 -104 119z" />
    <glyph glyph-name="caron" unicode="&#x2c7;" horiz-adv-x="585" 
d="M555 1196q0 14 104 119l101 100l31 -37l-211 -204h-58l-209 204l31 37l100 -100q102 -102 103 -119h8z" />
    <glyph glyph-name="uni02C9" unicode="&#x2c9;" horiz-adv-x="671" 
d="M897 1255h-559l4 54h559z" />
    <glyph glyph-name="uni02CA" unicode="&#x2ca;" horiz-adv-x="389" 
d="M303 1425q10 0 23 -8l24 -20l-49 -62l-240 -221l-18 16l242 285q8 10 18 10z" />
    <glyph glyph-name="uni02CB" unicode="&#x2cb;" horiz-adv-x="389" 
d="M190 1425q10 0 19 -10l242 -285l-19 -16l-239 221l-50 62l25 20q12 8 22 8z" />
    <glyph glyph-name="breve" unicode="&#x2d8;" horiz-adv-x="653" 
d="M622 1239q126 0 250 182l29 -18q-47 -104 -123 -171t-160 -67q-155 0 -282 238l37 18q123 -182 249 -182z" />
    <glyph glyph-name="dotaccent" unicode="&#x2d9;" horiz-adv-x="253" 
d="M126 1407q42 0 67 -24q25 -23 25 -65t-24 -68t-66 -26t-68 26q-26 24 -26 66t26 66q24 24 66 25z" />
    <glyph glyph-name="ring" unicode="&#x2da;" horiz-adv-x="434" 
d="M217 1462q68 0 125 -55t57 -127t-57 -127t-125 -55t-124 56t-56 127t56 126t124 55zM217 1407q-45 0 -86 -39t-41 -87t41 -88t86 -40t86 39t41 88t-41 88t-86 39z" />
    <glyph glyph-name="ogonek" unicode="&#x2db;" horiz-adv-x="765" 
d="M416 -465q-104 0 -168 51q-63 51 -64 133q0 123 98 209t230 109v-37q-100 -18 -168 -91t-68 -181q0 -68 43 -110t103 -42t131 23l10 -35q-92 -29 -147 -29z" />
    <glyph glyph-name="tilde" unicode="&#x2dc;" horiz-adv-x="743" 
d="M516 1333q-45 0 -63 -67l-17 -64l-33 8l17 64q20 76 50 104t75 27q45 0 107 -37t120 -75t92 -38q51 0 72 80l16 62l33 -8l-16 -62q-23 -82 -55 -113q-67 -65 -188 8q-62 38 -120 74t-90 37z" />
    <glyph glyph-name="hungarumlaut" unicode="&#x2dd;" horiz-adv-x="743" 
d="M635 1425l45 -41l-35 -41l-190 -167l-19 18zM963 1425l45 -41l-35 -41l-191 -167l-18 18z" />
    <glyph glyph-name="uni02F5" unicode="&#x2f5;" horiz-adv-x="690" 
d="M692 1425l199 -231l-19 -18l-190 167l-35 41zM365 1425l198 -231l-18 -18l-191 167l-35 41z" />
    <glyph glyph-name="gravecomb" unicode="&#x300;" horiz-adv-x="0" 
d="M-145.5 1425q10.5 0 18.5 -10l242 -285l-19 -16l-239 221l-50 62l25 20q12 8 22.5 8z" />
    <glyph glyph-name="acutecomb" unicode="&#x301;" horiz-adv-x="0" 
d="M145 1425q10 0 23 -8l25 -20l-50 -62l-239 -221l-19 16l242 285q8 10 18 10z" />
    <glyph glyph-name="uni0302" unicode="&#x302;" horiz-adv-x="0" 
d="M-4 1403q0 -16 -102 -119l-101 -100l-31 37l209 204h58l211 -204l-31 -37l-100 100q-104 104 -105 119h-8z" />
    <glyph glyph-name="tildecomb" unicode="&#x303;" horiz-adv-x="0" 
d="M139 1184q-47 0 -109.5 38t-119.5 74.5t-90 36.5q-45 0 -64 -67l-16 -64l-33 8l17 64q20 76 49.5 103.5t75 27.5t107.5 -37t119.5 -75t92.5 -38q51 0 72 80l16 62l33 -8l-17 -62q-23 -82 -54.5 -112.5t-78.5 -30.5z" />
    <glyph glyph-name="uni0304" unicode="&#x304;" horiz-adv-x="0" 
d="M279 1255h-560l5 54h559z" />
    <glyph glyph-name="uni0305" unicode="&#x305;" horiz-adv-x="0" 
d="M197 1255h-398l4 54h398z" />
    <glyph glyph-name="uni0306" unicode="&#x306;" horiz-adv-x="0" 
d="M3 1239q126 0 251 182l29 -18q-47 -104 -123 -171t-160 -67q-156 0 -283 238l37 18q123 -182 249 -182z" />
    <glyph glyph-name="uni0307" unicode="&#x307;" horiz-adv-x="0" 
d="M-91 1407q42 0 66.5 -23.5t24.5 -65.5t-23.5 -67.5t-65.5 -25.5t-67.5 24.5t-25.5 66.5t24.5 66.5t66.5 24.5z" />
    <glyph glyph-name="uni0308" unicode="&#x308;" horiz-adv-x="0" 
d="M-91 1370q42 0 66.5 -23.5t24.5 -65.5t-23.5 -66.5t-65.5 -24.5t-67.5 23.5t-25.5 65.5t24.5 66.5t66.5 24.5zM-493 1370q42 0 68 -23.5t26 -65.5t-25 -66.5t-67 -24.5t-66.5 23.5t-24.5 65.5t23.5 66.5t65.5 24.5z" />
    <glyph glyph-name="uni030A" unicode="&#x30a;" horiz-adv-x="0" 
d="M-182.5 1462q67.5 0 125 -55t57.5 -127t-57.5 -127t-125 -55t-123.5 56t-56 127t56 126t123.5 55zM-182 1407q-45 0 -86 -39t-41 -87t41 -88t86 -40t86 39t41 88t-41 88t-86 39z" />
    <glyph glyph-name="uni030B" unicode="&#x30b;" horiz-adv-x="0" 
d="M-55 1425l45 -41l-35 -41l-191 -167l-18 18zM272 1425l45 -41l-34 -41l-191 -167l-18 18z" />
    <glyph glyph-name="uni030C" unicode="&#x30c;" horiz-adv-x="0" 
d="M-4 1196h8q0 14 105 119l100 100l31 -37l-211 -204h-58l-209 204l31 37l101 -100q102 -102 102 -119z" />
    <glyph glyph-name="uni030D" unicode="&#x30d;" horiz-adv-x="0" 
d="M0 1425v-260h-55v260h55z" />
    <glyph glyph-name="uni030E" unicode="&#x30e;" horiz-adv-x="0" 
d="M0 1425v-260h-55v260h55zM-164 1425v-260h-53v260h53z" />
    <glyph glyph-name="uni030F" unicode="&#x30f;" horiz-adv-x="0" 
d="M55 1425l199 -231l-18 -18l-191 167l-35 41zM-272 1425l198 -231l-18 -18l-191 167l-34 41z" />
    <glyph glyph-name="uni0311" unicode="&#x311;" horiz-adv-x="0" 
d="M-283 1182q127 238 283 237q84 0 160 -66.5t123 -170.5l-29 -19q-253 368 -500 0z" />
    <glyph glyph-name="uni0400" unicode="&#x400;" horiz-adv-x="1130" 
d="M698 422h-18v113q0 133 -58 176t-163 43h-82v-609q0 -61 -45 -106v-2h407q150 -1 223 65t82 211l13 164h33l-35 -555l-19 2l6 94h-2q-18 -18 -75 -18h-928v18h72q74 0 91 18t17 91v1219q0 74 -17 91t-91 17h-72v19h817q57 0 76 -19h2l-6 94l18 2l37 -555h-37l-8 144
q-8 161 -85 229t-230 68h-289v-2q45 -45 45 -107v-536h82q106 0 164 42q57 42 57 175v71h18v-657zM692 1550l-239 222l-50 61l25 20q27 18 41 -2l242 -284z" />
    <glyph glyph-name="afii10023" unicode="&#x401;" horiz-adv-x="1130" 
d="M698 422h-18v113q0 133 -58 176t-163 43h-82v-609q0 -61 -45 -106v-2h407q150 -1 223 65t82 211l13 164h33l-35 -555l-19 2l6 94h-2q-18 -18 -75 -18h-928v18h72q74 0 91 18t17 91v1219q0 74 -17 91t-91 17h-72v19h817q57 0 76 -19h2l-6 94l18 2l37 -555h-37l-8 144
q-8 161 -85 229t-230 68h-289v-2q45 -45 45 -107v-536h82q106 0 164 42q57 42 57 175v71h18v-657zM796 1806q42 0 66 -24t25 -65q0 -43 -24 -67q-23 -24 -65 -24t-68 24t-26 66t25 66t67 24zM394 1806q42 0 68 -24t26 -65q0 -43 -26 -67q-24 -24 -66 -24t-66 24t-25 66
t23 66t66 24z" />
    <glyph glyph-name="afii10051" unicode="&#x402;" horiz-adv-x="1503" 
d="M209 0v18h156q74 0 91 18t17 91v1309h-123q-145 0 -207 -44q-61 -45 -69 -192l-6 -84l-37 2l30 475l23 -2l-10 -118h954l-10 116l22 2l31 -473l-37 -2l-6 84q-6 74 -21 120q-29 88 -130 106q-47 9 -125 10h-119v-576q1 -43 -19 -205t-26 -176h18q2 10 10 59t42 118
t65 102q31 32 68 60q79 58 218 60q140 1 226 -79t86 -230v-479q0 -156 -94 -250t-248 -94q-49 0 -164 33l14 41q129 -37 166 -37q166 0 166 219v551q0 291 -180 291q-156 0 -252 -134t-96 -348v-235q0 -74 17 -91t91 -18h70v-18h-602z" />
    <glyph glyph-name="afii10052" unicode="&#x403;" horiz-adv-x="954" 
d="M37 0v18h72q74 0 91 18t17 91v1219q0 74 -17 91t-91 17h-72v19h770q37 0 55 -19h2l-8 139l18 2l39 -600h-36l-9 144q-8 157 -108 227t-262 70h-166v-2q45 -45 45 -107v-1200q0 -74 18 -91t92 -18h134v-18h-584zM428 1550l-18 17l241 284q16 20 41 2l25 -20l-49 -61z" />
    <glyph glyph-name="afii10053" unicode="&#x404;" horiz-adv-x="1335" 
d="M72 739q0 338 196.5 544t517.5 206q221 0 375 -131q14 -14 23 -41l14 4q-4 20 -6 59l-4 150h18l19 -592l-37 -2l-6 190q-8 135 -132 231.5t-280 96.5q-252 0 -384 -174t-132 -506v-18h287q165 0 203 101q18 46 18 116v71h18v-657h-18v113q0 140 -62.5 179.5t-158.5 39.5
h-287q10 -340 148.5 -519.5t390.5 -179.5q150 0 276.5 76t177.5 205l35 -14q-57 -147 -191.5 -225t-302.5 -78q-322 0 -519 208.5t-197 546.5z" />
    <glyph glyph-name="afii10054" unicode="&#x405;" horiz-adv-x="978" 
d="M467 20q194 0 269 142q38 70 38 163t-50 165t-125 119q-75 49 -162 105t-162 109t-125 141t-50 193q0 150 111 241t278 91t287 -90q23 -16 33 -47l14 4q-4 16 -8 65l-6 109h20l23 -483l-37 -3l-4 86q-6 134 -85 228t-213 94t-202 -64q-67 -64 -67 -195q0 -130 136 -232
q60 -45 190 -122t206 -147q152 -138 152 -325t-121 -285t-336 -98q-164 0 -324 110q-37 27 -51 68l-8 -2q4 -16 8 -88l6 -129h-18l-27 559l37 2l4 -84q8 -178 114 -289t255 -111z" />
    <glyph glyph-name="afii10055" unicode="&#x406;" horiz-adv-x="593" 
d="M37 0v18h72q74 0 91 16.5t17 90.5v1223q0 74 -17.5 90t-90.5 16h-72v19h522v-23h-72q-74 0 -92 -16.5t-18 -90.5v-1218q0 -74 18.5 -90.5t91.5 -16.5h72v-18h-522z" />
    <glyph glyph-name="afii10056" unicode="&#x407;" horiz-adv-x="593" 
d="M37 0v18h72q74 0 91 16t17 91v1223q0 74 -17 90t-91 16h-72v19h522v-23h-72q-74 0 -92 -16t-18 -91v-1218q0 -74 18 -90t92 -17h72v-18h-522zM497 1806q43 0 67 -24t24 -65q0 -43 -24 -67t-66 -24t-67 24t-25 66t24 66q25 24 67 24zM95 1806q42 0 68 -24q25 -24 25 -65
q0 -43 -24 -67t-67 -24t-67 24t-24 66t24 66t65 24z" />
    <glyph glyph-name="afii10057" unicode="&#x408;" horiz-adv-x="831" 
d="M68 242q0 -98 66 -159q67 -60 177 -60q164 0 164 217v1157q0 35 19 53v4h-283v19h586v-19h-54q-109 0 -108 -108v-1014q0 -154 -91 -250q-92 -96 -222 -96t-202 70t-71 186h19z" />
    <glyph glyph-name="afii10058" unicode="&#x409;" horiz-adv-x="1728" 
d="M1057 756v-611q0 -70 -35 -104v-4h111q186 0 284 92q99 92 99 267q0 176 -98 268t-285 92h-76zM717 0v20h71q74 0 92 18t17 91v1307h-438v-500q0 -379 -88 -646t-205 -364l-121 137q123 103 242 319t119 505v416q0 106 -26 129t-134 22h-45v19h1038v-19h-74
q-72 0 -90 -24t-18 -103v-536h114q236 0 379 -109q144 -109 144 -287q0 -179 -144 -287t-379 -108h-454z" />
    <glyph glyph-name="afii10059" unicode="&#x40a;" horiz-adv-x="1728" 
d="M1057 756v-611q0 -70 -35 -104v-4h111q186 0 284.5 92t98.5 267t-98.5 267.5t-284.5 92.5h-76zM1057 791h114q236 0 379.5 -109t143.5 -287t-143.5 -286.5t-379.5 -108.5h-454v20h71q74 0 91.5 17.5t17.5 91.5v627h-520v-611q0 -78 19.5 -102.5t90.5 -24.5h54v-18h-504
v18h72q72 0 90 25t18 102v1182q0 78 -18.5 102.5t-89.5 24.5h-72v19h504v-19h-54q-72 0 -91 -24.5t-19 -102.5v-534h520v534q0 78 -19.5 102.5t-91.5 24.5h-53v19h506v-19h-74q-72 0 -90 -24.5t-18 -102.5v-536z" />
    <glyph glyph-name="afii10060" unicode="&#x40b;" horiz-adv-x="1503" 
d="M209 0v18h156q74 0 91 18t17 91v1309h-123q-145 0 -207 -44q-61 -45 -69 -192l-6 -84l-37 2l30 475l23 -2l-10 -118h954l-10 116l22 2l31 -473l-37 -2l-6 84q-6 74 -21 120q-29 88 -130 106q-47 9 -125 10h-119v-576q1 -43 -19 -205t-26 -176h18q2 10 10 59t42 118
t65 102q31 32 68 60q79 58 219 60q141 1 228 -79t87 -230v-442q0 -74 17 -91t92 -18h34v-18h-487v18h199v5q-18 18 -19 53v477q0 291 -180 291q-156 0 -252 -134t-96 -348v-235q0 -74 17 -91t91 -18h70v-18h-602z" />
    <glyph glyph-name="afii10061" unicode="&#x40c;" horiz-adv-x="1200" 
d="M37 0v18h72q74 0 91 20t17 107v1201q0 74 -17 91t-91 17h-72v19h469v-19h-19q-74 0 -92 -17t-18 -91v-461q111 0 133 28l324 408q37 45 36 78q0 55 -106 55h-19v19h453v-19h-24q-78 0 -160 -34t-142 -107l-325 -412l2 -8q188 -40 272 -168q74 -110 97 -241t30 -200
q20 -173 58 -214q82 -87 192 -2l27 20l12 -14l-27 -21q-84 -76 -172 -76t-142 59q-19 22 -33 39q-48 62 -99 364q-30 175 -76 259t-114 126t-173 42h-24v-721q0 -86 16 -103q15 -17 35 -20t59 -4h72v-18h-522zM512 1550l-18 17l241 284q16 20 41 2l25 -20l-49 -61z" />
    <glyph glyph-name="uni040D" unicode="&#x40d;" horiz-adv-x="1314" 
d="M37 0v18h72q72 0 90 25t18 102v1182q0 78 -18 103t-90 24h-72v19h504v-19h-54q-72 0 -91 -24t-19 -103v-1188l581 1334h322v-19h-74q-72 0 -90 -24t-18 -103v-1182q0 -79 18 -103t90 -24h74v-18h-506v18h55q72 0 91 25q18 25 18 102v1188l-582 -1333h-319zM542 1866
q10 0 19 -11l242 -284l-19 -17l-239 222l-49 61l24 21q12 8 22 8z" />
    <glyph glyph-name="afii10062" unicode="&#x40e;" horiz-adv-x="1142" 
d="M324 1841l73 6q-1 -84 61 -144q62 -61 148 -61t148 60t61 145l74 -6q0 -98 -83 -167q-83 -68 -200 -68q-118 0 -200 68t-82 167zM297 131q106 0 162 42q55 42 90 124l16 39q10 24 10 54t-14 61l-381 876q-20 47 -26 61q-23 55 -53 62q-17 4 -44 4h-30v19h395v-19h-146v-4
q29 -10 68 -96l295 -672q14 -33 14 -86v-4l15 4l286 731q14 39 15 64q0 63 -101 63h-94v19h352v-17h-12q-27 0 -43 -5q-33 -10 -76 -124l-432 -1094q-47 -121 -121 -185t-155 -64q-105 -1 -105 163q68 -16 115 -16z" />
    <glyph glyph-name="afii10145" unicode="&#x40f;" horiz-adv-x="1314" 
d="M1280 1473v-19h-72q-72 0 -90 -24.5t-18 -102.5v-1182q0 -78 18.5 -102.5t89.5 -24.5h72v-18h-596v-303h-55v303h-592v18h74q72 0 90 25t18 102v1182q0 78 -18.5 102.5t-89.5 24.5h-74v19h506v-19h-56q-72 0 -90 -24.5t-18 -102.5v-1290h561v1290q0 78 -19.5 102.5
t-91.5 24.5h-53v19h504z" />
    <glyph glyph-name="afii10017" unicode="&#x410;" horiz-adv-x="1552" 
d="M725 1372q0 -25 -25 -82l-372 -854h780l-348 854q-16 37 -17 82h-18zM16 0v18h33q57 0 113 127l575 1328h158v-25q0 -74 18 -119l484 -1184q39 -94 58 -110t63 -17h16v-18h-391v18h157v5q-29 10 -63 96l-115 280h-811l-110 -254q-27 -69 16 -105q27 -22 72 -22h100v-18
h-373z" />
    <glyph glyph-name="afii10018" unicode="&#x411;" horiz-adv-x="1171" 
d="M377 764v-619q0 -70 -35 -104v-4h193q207 0 315 93t108 270t-111.5 270.5t-324.5 93.5h-145zM37 0v20h72q74 0 91 17.5t17 91.5v1217q0 74 -17.5 91t-90.5 17h-72v19h852q37 0 55 -19h2l-8 139l18 2l39 -600h-37l-8 144q-8 156 -109.5 226.5t-260.5 70.5h-248v-2
q45 -45 45 -107v-528h143q279 0 448 -109.5t169 -290t-155 -290t-409 -109.5h-536z" />
    <glyph glyph-name="afii10019" unicode="&#x412;" horiz-adv-x="1212" 
d="M37 0v20h72q74 0 91 17.5t17 91.5v1217q0 74 -17.5 91t-90.5 17h-72v19h500q219 0 352 -85t133 -225q0 -94 -81 -181t-214 -105v-9q193 -14 322 -147t129 -308t-162 -294t-404 -119h-575zM342 37h233q190 0 307 106.5t117 286.5t-122.5 299t-313.5 119h-108v35h82
q135 0 223 77.5t88 200.5t-93 199t-247 76h-166v-2q35 -35 35 -107v-1182q0 -70 -35 -104v-4z" />
    <glyph glyph-name="afii10020" unicode="&#x413;" horiz-adv-x="954" 
d="M37 0v18h72q74 0 91 17.5t17 91.5v1219q0 74 -17.5 91t-90.5 17h-72v19h770q37 0 55 -19h2l-8 139l18 2l39 -600h-36l-9 144q-8 156 -108.5 226.5t-261.5 70.5h-166v-2q45 -45 45 -107v-1200q0 -74 18.5 -91.5t91.5 -17.5h134v-18h-584z" />
    <glyph glyph-name="afii10021" unicode="&#x414;" horiz-adv-x="1359" 
d="M975 37v1399h-397v-500q0 -288 -52 -520t-135 -379h584zM23 37h141q127 110 243 335q117 225 117 515v416q0 106 -25 129q-26 23 -134 22h-46v19h998v-19h-74q-72 0 -90 -24t-18 -103v-1290h182v-381h-74v217q0 79 -19 103t-91 24h-926q-72 0 -91 -25t-20 -102v-217h-73
v381z" />
    <glyph glyph-name="afii10022" unicode="&#x415;" horiz-adv-x="1130" 
d="M698 422h-18v113q0 133 -58.5 176t-162.5 43h-82v-609q0 -61 -45 -106v-2h407q150 0 222.5 65.5t82.5 210.5l13 164h33l-35 -555l-19 2l6 94h-2q-18 -18 -75 -18h-928v18h72q74 0 91 17.5t17 91.5v1219q0 74 -17.5 91t-90.5 17h-72v19h817q57 0 76 -19h2l-6 94l18 2
l37 -555h-37l-8 144q-8 162 -85 229.5t-230 67.5h-289v-2q45 -45 45 -107v-536h82q106 0 163.5 41.5t57.5 175.5v71h18v-657z" />
    <glyph glyph-name="afii10024" unicode="&#x416;" horiz-adv-x="1783" 
d="M631 0v18h71q74 0 91.5 20.5t17.5 106.5v721h-12q-208 0 -292 -181q-38 -81 -55.5 -171.5t-25.5 -136t-13 -69t-14.5 -64.5t-16.5 -62.5t-19.5 -55.5t-25.5 -52q-42 -56 -82 -76.5t-110.5 -20.5t-154.5 76l-27 21l12 14l27 -20q53 -41 94 -41t67.5 18t42.5 45
q30 53 46 187q16 133 26 191q12 58 28 108q86 262 345 317l2 8l-325 412q-59 74 -141.5 107.5t-159.5 33.5h-25v19h453v-19h-19q-106 0 -106 -55q0 -33 37 -78l323 -408q23 -29 121 -28v461q0 74 -17.5 91t-91.5 17h-20v19h418v-19h-19q-74 0 -92 -17.5t-18 -90.5v-461
q57 0 82.5 5t40.5 23l323 408q37 45 37 78q0 55 -106 55h-19v19h453v-19h-25q-78 0 -159.5 -34t-141.5 -107l-326 -412l3 -8q186 -39 272 -168q72 -108 100 -258q14 -77 24 -167q19 -156 51.5 -214.5t105.5 -58.5q43 0 96 41l26 20l13 -14l-27 -21q-84 -76 -172.5 -76
t-136 52t-62 91.5t-21.5 61t-16.5 62.5t-13.5 64.5t-13 69.5t-15 82.5t-15.5 75.5t-26 86.5t-34.5 79.5q-43 80 -110 122t-173 42h-14v-721q0 -86 18.5 -106.5t91.5 -20.5h72v-18h-522z" />
    <glyph glyph-name="afii10025" unicode="&#x417;" horiz-adv-x="983" 
d="M328 827v37h73q123 0 207 92.5t84 224.5t-73.5 201.5t-201.5 69.5t-194.5 -83t-75.5 -200v-67h-34v366h18v-82l6 -2q16 29 45 43q96 57 236 62q174 0 287.5 -84t113.5 -207t-84 -225.5t-184 -120.5v-2q150 -20 255 -153.5t105 -307.5t-139 -289.5t-354 -115.5
q-86 0 -180.5 38.5t-165.5 110.5l26 27q66 -68 154 -104t166 -36q158 0 249 98.5t91 282.5t-93.5 305t-232.5 121h-104z" />
    <glyph glyph-name="afii10026" unicode="&#x418;" horiz-adv-x="1314" 
d="M37 0v18h72q72 0 90 25t18 102v1182q0 78 -18.5 102.5t-89.5 24.5h-72v19h504v-19h-54q-72 0 -91 -24.5t-19 -102.5v-1188l581 1334h322v-19h-74q-72 0 -90 -24.5t-18 -102.5v-1182q0 -78 18.5 -102.5t89.5 -24.5h74v-18h-506v18h55q72 0 90.5 25t18.5 102v1188
l-582 -1333h-319z" />
    <glyph glyph-name="afii10027" unicode="&#x419;" horiz-adv-x="1314" 
d="M406 1841l73 6q-1 -84 61 -144q62 -61 148 -61t148 60t61 145l74 -6q0 -98 -83 -167q-83 -68 -200 -68t-200 68q-82 69 -82 167zM37 0v18h72q72 0 90 25t18 102v1182q0 78 -18 103t-90 24h-72v19h504v-19h-54q-72 0 -91 -24t-19 -103v-1188l581 1334h322v-19h-74
q-72 0 -90 -24t-18 -103v-1182q0 -79 18 -103t90 -24h74v-18h-506v18h55q72 0 91 25q18 25 18 102v1188l-582 -1333h-319z" />
    <glyph glyph-name="afii10028" unicode="&#x41a;" horiz-adv-x="1200" 
d="M37 0v18h72q74 0 91 20.5t17 106.5v1201q0 74 -17.5 91t-90.5 17h-72v19h469v-19h-19q-74 0 -92 -17.5t-18 -90.5v-461q111 0 133 28l324 408q37 45 36 78q0 55 -106 55h-19v19h453v-19h-24q-78 0 -160 -34t-142 -107l-325 -412l2 -8q186 -39 272 -168q71 -105 101 -258
q19 -115 23.5 -156t11 -79.5t12.5 -67.5q28 -137 127 -137q49 0 102 41l27 20l12 -14l-27 -21q-84 -76 -173 -76t-136.5 53.5t-61.5 91.5t-21 59.5t-16 62.5t-13.5 64.5t-13.5 69.5t-15 82.5t-15.5 75.5t-26 86.5t-33.5 79.5q-86 164 -284 164h-24v-721q0 -86 16.5 -103
t36 -20.5t57.5 -3.5h72v-18h-522z" />
    <glyph glyph-name="afii10029" unicode="&#x41b;" horiz-adv-x="1314" 
d="M201 1473h1079v-19h-74q-72 0 -90 -24t-18 -103v-1182q0 -79 18 -103t90 -24h74v-18h-506v18h55q72 0 91 25q18 25 18 102v1291h-479v-500q0 -379 -88 -646t-205 -364l-121 137q123 103 242 319t119 505v416q0 106 -26 129t-134 22h-45v19z" />
    <glyph glyph-name="afii10030" unicode="&#x41c;" horiz-adv-x="1847" 
d="M1452 1303h-12q0 -8 -33 -84l-551 -1227l-6 -15h-4l-549 1219q-23 49 -23 86h-8q0 -33 -2 -70l-51 -1075q-2 -43 -2 -47q0 -39 24.5 -55.5t104.5 -16.5h74v-18h-396v18h33q76 0 99.5 29t27.5 117l55 1182q2 35 2.5 57.5t-19 36.5t-83.5 14h-82v19h301l531 -1174
q31 -68 30 -88h11q0 27 28 88l531 1174h307v-19h-70q-70 0 -92 -20.5t-22 -69.5q0 -8 2 -55l47 -1145q4 -90 26.5 -118t104.5 -28h45v-18h-535v18h74q78 0 102.5 18.5t24.5 59.5l-2 26v11l-41 1079q-2 37 -2 91z" />
    </font>
</defs>
</svg>
