<?xml version="1.0" encoding="utf-8"?>
<!-- Generator: Adobe Illustrator 16.0.0, SVG Export Plug-In . SVG Version: 6.00 Build 0)  -->
<!DOCTYPE svg PUBLIC "-//W3C//DTD SVG 1.1//EN" "http://www.w3.org/Graphics/SVG/1.1/DTD/svg11.dtd">
<svg version="1.1" id="Layer_1" xmlns="http://www.w3.org/2000/svg" xmlns:xlink="http://www.w3.org/1999/xlink" x="0px" y="0px"
	 width="486.284px" height="54.587px" viewBox="0 0 486.284 54.587" enable-background="new 0 0 486.284 54.587"
	 xml:space="preserve">
<g>
	<defs>
		<rect id="SVGID_1_" width="486.284" height="54.587"/>
	</defs>
	<clipPath id="SVGID_2_">
		<use xlink:href="#SVGID_1_"  overflow="visible"/>
	</clipPath>
	<path clip-path="url(#SVGID_2_)" d="M69.893,41.239c2.135,0,2.58-0.1,2.646-0.1c0.149,0,0.266,0.182,0.266,0.33v1.523
		c0,0.461-0.232,0.561-0.332,0.561c-0.115,0-0.263-0.1-0.348-0.445c-0.215-0.81-0.445-1.094-0.992-1.125
		c-0.463-0.033-1.174,0-2.695,0c-0.133,0-0.233,0.182-0.248,0.297c-0.051,0.43-0.051,2.662-0.051,3.523
		c0,0.082,0.066,0.148,0.166,0.148c0.348,0,1.473-0.032,1.984-0.066c0.53-0.031,0.629-0.314,0.729-0.645
		c0.1-0.314,0.266-0.512,0.414-0.512c0.182,0,0.264,0.23,0.264,0.479c0,0.331-0.049,0.827-0.049,1.106
		c0,0.314,0.066,0.977,0.066,1.109c0,0.314-0.117,0.529-0.299,0.529c-0.13,0-0.248-0.133-0.363-0.398
		c-0.181-0.395-0.296-0.744-0.677-0.793c-0.182-0.033-0.959-0.033-2.084-0.033c-0.067,0-0.151,0.133-0.151,0.33v2.631
		c0.018,0.713,0.332,0.877,1.01,1.041c0.429,0.117,0.562,0.283,0.562,0.416c0,0.146-0.148,0.279-0.462,0.279
		c-0.481,0-1.655-0.082-2.317-0.082c-0.348,0-0.941,0.066-1.439,0.066c-0.282,0-0.463-0.051-0.463-0.248
		c0-0.184,0.232-0.314,0.562-0.413c0.678-0.2,0.91-0.448,0.944-0.894c0.048-0.496,0.082-1.242,0.082-3.438
		c0-2.483,0.033-3.046-0.034-3.789c-0.033-0.53-0.33-0.646-0.958-0.812c-0.249-0.065-0.463-0.215-0.463-0.365
		c0-0.164,0.199-0.278,0.513-0.278c0.497,0,1.256,0.065,2.463,0.065H69.893z"/>
	<path clip-path="url(#SVGID_2_)" d="M92.275,43.636c0-1.404-0.084-1.57-1.143-1.818c-0.281-0.065-0.412-0.232-0.412-0.381
		c0-0.1,0.282-0.248,0.53-0.248c0.314,0,0.925,0.051,1.654,0.051c0.992,0,1.437-0.066,1.918-0.066c0.199,0,0.396,0.133,0.396,0.297
		c0,0.151-0.215,0.266-0.348,0.297c-0.958,0.248-1.025,0.432-1.058,1.275c-0.033,0.678-0.033,2.48-0.033,3.605
		c0,1.804,0.017,2.729,0.017,2.945c0.034,0.776,0.249,0.926,1.241,1.174c0.314,0.082,0.429,0.197,0.429,0.33
		c0,0.215-0.347,0.315-0.545,0.315c-0.166,0-1.357-0.067-1.92-0.067c-0.578,0-1.554,0.1-1.851,0.1c-0.215,0-0.448-0.114-0.448-0.248
		c0-0.15,0.2-0.297,0.415-0.381c0.859-0.297,0.992-0.446,1.043-0.776c0.049-0.349,0.115-2.78,0.115-4.136V43.636z"/>
	<path clip-path="url(#SVGID_2_)" d="M113.266,41.14c0.662,0,1.936,0.101,2.432,0.101c0.084,0,0.314,0.212,0.332,0.248
		c0.164,0.278,0.793,1.058,1.588,1.917c0.875,0.943,3.986,4.501,4.613,5.078c0.051,0.051,0.15-0.033,0.166-0.117
		c0.033-0.33,0.115-3.322,0.033-4.664c-0.082-1.388-0.1-1.604-1.225-1.852c-0.396-0.084-0.463-0.266-0.463-0.362
		c0-0.116,0.149-0.267,0.496-0.267c0.663,0,0.729,0.019,1.159,0.019c0.677,0,1.539-0.101,1.869-0.101
		c0.348,0,0.514,0.166,0.514,0.298c0,0.099-0.051,0.214-0.614,0.381c-0.562,0.181-0.793,0.462-0.826,0.825
		c-0.051,0.531-0.148,4.021-0.148,5.625c0,0.727,0.033,1.837,0.033,2.596c0,0.695-0.151,0.811-0.348,0.811
		c-0.084,0-0.432-0.182-0.629-0.479c-0.414-0.596-1.273-1.688-1.736-2.201c-0.629-0.727-3.822-4.398-4.549-5.193
		c-0.099-0.082-0.166,0.016-0.181,0.166c-0.018,0.363-0.067,1.076-0.067,1.785c0,0.744,0.049,2.564,0.067,3.012
		c0.048,1.455,0.13,1.621,1.058,1.918c0.379,0.115,0.545,0.232,0.545,0.447c0,0.199-0.314,0.281-0.529,0.281
		c-0.463,0-0.793-0.066-1.192-0.066c-0.777,0-1.785,0.1-2,0.1c-0.265,0-0.529-0.066-0.529-0.281c0-0.148,0.149-0.281,0.445-0.365
		c1.077-0.279,1.176-0.692,1.225-1.355c0.082-1.107,0.215-5.837,0.215-6.369c0-0.212-0.115-0.46-0.563-0.874
		c-0.23-0.249-0.728-0.366-1.04-0.433c-0.266-0.03-0.499-0.23-0.499-0.411C112.917,41.222,113.051,41.14,113.266,41.14"/>
	<path clip-path="url(#SVGID_2_)" d="M146.901,41.239c1.473,0,1.969-0.065,2.365-0.065c0.166,0,0.299,0.015,0.381,0.147
		c0.1,0.166,0.264,1.34,0.264,1.703c0,0.166-0.149,0.399-0.282,0.399c-0.197,0-0.345-0.218-0.711-0.929
		c-0.23-0.463-0.511-0.545-0.595-0.545c-0.941,0-2.232,0.033-2.465,0.033c-0.049,0-0.164,0.215-0.182,0.297
		c-0.048,0.463-0.066,1.97-0.066,3.109c0,0.133,0.066,0.465,0.217,0.465c0.148,0,0.81,0.016,1.074,0
		c1.092-0.051,1.291-0.232,1.473-0.713c0.133-0.345,0.23-0.479,0.396-0.479c0.215,0,0.297,0.23,0.264,0.66
		c-0.016,0.182-0.049,0.496-0.049,0.795c0,0.363,0,0.844,0.033,1.109c0.033,0.43-0.166,0.545-0.263,0.545
		c-0.118,0-0.282-0.084-0.399-0.414c-0.164-0.48-0.297-0.644-0.645-0.678c-0.677-0.051-1.14-0.051-1.884-0.051
		c-0.1,0-0.217,0.283-0.217,0.415c0,1.539,0.033,2.083,0.051,2.446c0.033,0.48,0.133,0.811,0.197,0.861
		c0.15,0.131,0.629,0.33,1.902,0.33c0.68,0,0.877-0.016,1.258-0.133c0.448-0.13,0.711-0.445,1.074-0.975
		c0.266-0.447,0.381-0.646,0.581-0.646c0.248,0,0.248,0.432,0.181,0.744c-0.1,0.48-0.447,1.275-0.511,1.424
		c-0.1,0.232-0.481,0.33-0.547,0.33c-0.678,0-1.141-0.082-4.153-0.082c-1.041,0-2.117,0.082-2.828,0.082
		c-0.412,0-0.611-0.066-0.611-0.199c0-0.197,0.199-0.363,0.545-0.445c1.058-0.248,1.242-0.396,1.291-1.025
		c0.049-0.447,0.066-0.859,0.066-1.688c0-2.547-0.033-5.192-0.084-5.492c-0.049-0.512-0.379-0.643-1.041-0.811
		c-0.281-0.066-0.447-0.23-0.447-0.345c0-0.2,0.232-0.267,0.447-0.267c0.281,0,1.125,0.084,2.217,0.084H146.901z"/>
	<path clip-path="url(#SVGID_2_)" d="M186.11,53.114c0.166-0.148,0.315-0.215,0.43-0.215c0.117,0,0.217,0.082,0.432,0.197
		c0.396,0.217,0.726,0.365,1.007,0.365c0.366,0,0.629-0.314,0.744-0.729c0.118-0.381,0.266-1.373,0.266-2.877
		c0-3.009,0-5.477-0.018-7.014c0-0.61-0.263-0.793-1.173-1.01c-0.33-0.082-0.481-0.248-0.481-0.363c0-0.182,0.332-0.314,0.58-0.314
		c0.496,0,1.34,0.084,2.002,0.084c0.744,0,1.438-0.084,1.703-0.084c0.348,0,0.43,0.2,0.43,0.314c0,0.134-0.166,0.297-0.463,0.363
		c-0.762,0.183-1.025,0.365-1.025,1.125c0,2.977-0.067,6.568-0.067,6.98c0,1.736-0.892,3.242-1.787,3.889
		c-0.693,0.496-1.389,0.76-1.851,0.76c-0.663,0-1.24-0.348-1.24-0.711C185.6,53.644,185.896,53.313,186.11,53.114"/>
	<path clip-path="url(#SVGID_2_)" d="M214.121,41.239c1.473,0,1.969-0.065,2.365-0.065c0.166,0,0.297,0.015,0.381,0.147
		c0.1,0.166,0.263,1.34,0.263,1.703c0,0.166-0.148,0.399-0.281,0.399c-0.197,0-0.345-0.218-0.711-0.929
		c-0.23-0.463-0.511-0.545-0.595-0.545c-0.941,0-2.232,0.033-2.463,0.033c-0.051,0-0.166,0.215-0.184,0.297
		c-0.048,0.463-0.066,1.97-0.066,3.109c0,0.133,0.066,0.465,0.217,0.465c0.148,0,0.81,0.016,1.074,0
		c1.092-0.051,1.291-0.232,1.473-0.713c0.13-0.345,0.23-0.479,0.396-0.479c0.215,0,0.297,0.23,0.266,0.66
		c-0.018,0.182-0.051,0.496-0.051,0.795c0,0.363,0,0.844,0.033,1.109c0.033,0.43-0.166,0.545-0.263,0.545
		c-0.118,0-0.282-0.084-0.399-0.414c-0.164-0.48-0.297-0.644-0.645-0.678c-0.677-0.051-1.14-0.051-1.884-0.051
		c-0.1,0-0.217,0.283-0.217,0.415c0,1.539,0.033,2.083,0.051,2.446c0.033,0.48,0.133,0.811,0.199,0.861
		c0.148,0.131,0.627,0.33,1.9,0.33c0.68,0,0.877-0.016,1.258-0.133c0.448-0.13,0.711-0.445,1.076-0.975
		c0.264-0.447,0.379-0.646,0.578-0.646c0.249,0,0.249,0.432,0.182,0.744c-0.1,0.48-0.447,1.275-0.511,1.424
		c-0.1,0.232-0.481,0.33-0.547,0.33c-0.678,0-1.141-0.082-4.153-0.082c-1.041,0-2.117,0.082-2.828,0.082
		c-0.412,0-0.611-0.066-0.611-0.199c0-0.197,0.199-0.363,0.545-0.445c1.058-0.248,1.242-0.396,1.291-1.025
		c0.048-0.447,0.066-0.859,0.066-1.688c0-2.547-0.033-5.192-0.084-5.492c-0.049-0.512-0.379-0.643-1.041-0.811
		c-0.281-0.066-0.447-0.23-0.447-0.345c0-0.2,0.232-0.267,0.447-0.267c0.281,0,1.125,0.084,2.217,0.084H214.121z"/>
	<path clip-path="url(#SVGID_2_)" d="M234.389,41.155c0.562,0,1.424,0.084,1.754,0.084c0.629,0,1.107-0.051,1.539-0.051
		c0.445,0,0.529,0.199,0.529,0.299c0,0.164-0.183,0.297-0.465,0.347c-0.659,0.132-0.677,0.513-0.562,0.961
		c0.133,0.511,1.605,4.53,2.168,5.886c0.082,0.15,0.182,0.232,0.215,0.102c0.066-0.184,1.273-3.375,1.884-4.996
		c0.166-0.414,0.166-0.58,0.151-0.695c0-0.115-0.066-0.447-0.215-0.744c-0.199-0.396-0.481-0.447-0.844-0.529
		c-0.199-0.065-0.447-0.133-0.447-0.365c0-0.131,0.182-0.264,0.481-0.264c0.429,0,1.455,0.051,1.9,0.051
		c0.447,0,0.81-0.051,1.176-0.051c0.296,0,0.445,0.149,0.445,0.264c0,0.103-0.131,0.266-0.412,0.332
		c-0.399,0.101-0.729,0.216-0.729,0.496c0,0.23,0.067,0.479,0.2,0.859c0.396,1.225,1.718,4.7,2.15,5.643
		c0.049,0.098,0.164,0.064,0.197-0.018c0.396-0.925,1.291-3.605,1.754-4.979c0.314-0.926,0.33-1.19,0.33-1.439
		c0-0.296-0.445-0.429-0.811-0.529c-0.314-0.082-0.412-0.281-0.412-0.348c0-0.098,0.131-0.281,0.43-0.281
		c0.164,0,1.041,0.051,1.603,0.051c0.581,0,1.06-0.084,1.374-0.084s0.447,0.133,0.447,0.281c0,0.166-0.199,0.299-0.363,0.348
		c-0.928,0.297-1.109,0.545-1.439,1.259c-0.365,0.774-1.473,3.985-2.15,5.771c-0.148,0.414-0.613,1.705-0.762,2.217
		c-0.164,0.48-0.412,0.613-0.496,0.613c-0.248,0-0.43-0.199-0.578-0.695c-0.58-1.838-1.803-4.93-2.299-6.285
		c0-0.018-0.184-0.182-0.232-0.051c-0.578,1.558-1.852,4.914-2.084,5.623c-0.215,0.58-0.33,0.846-0.448,1.059
		c-0.066,0.102-0.296,0.35-0.378,0.35c-0.151,0-0.333-0.181-0.399-0.365c-0.148-0.562-0.463-1.422-0.777-2.35
		c-0.645-1.736-1.389-3.72-1.719-4.598c-0.695-1.836-0.961-2.348-1.639-2.514c-0.462-0.117-0.544-0.281-0.544-0.414
		C233.911,41.256,234.141,41.155,234.389,41.155"/>
	<path clip-path="url(#SVGID_2_)" d="M271.082,41.239c1.474,0,1.969-0.065,2.365-0.065c0.166,0,0.299,0.015,0.381,0.147
		c0.101,0.166,0.264,1.34,0.264,1.703c0,0.166-0.148,0.399-0.281,0.399c-0.197,0-0.346-0.218-0.711-0.929
		c-0.23-0.463-0.512-0.545-0.596-0.545c-0.94,0-2.232,0.033-2.465,0.033c-0.049,0-0.164,0.215-0.182,0.297
		c-0.048,0.463-0.066,1.97-0.066,3.109c0,0.133,0.066,0.465,0.217,0.465c0.148,0,0.812,0.016,1.074,0
		c1.092-0.051,1.291-0.232,1.474-0.713c0.133-0.345,0.229-0.479,0.396-0.479c0.215,0,0.297,0.23,0.264,0.66
		c-0.016,0.182-0.049,0.496-0.049,0.795c0,0.363,0,0.844,0.033,1.109c0.033,0.43-0.166,0.545-0.263,0.545
		c-0.118,0-0.282-0.084-0.399-0.414c-0.164-0.48-0.297-0.644-0.644-0.678c-0.679-0.051-1.142-0.051-1.886-0.051
		c-0.1,0-0.217,0.283-0.217,0.415c0,1.539,0.033,2.083,0.051,2.446c0.033,0.48,0.134,0.811,0.197,0.861
		c0.15,0.131,0.629,0.33,1.902,0.33c0.68,0,0.877-0.016,1.258-0.133c0.447-0.13,0.711-0.445,1.074-0.975
		c0.266-0.447,0.381-0.646,0.58-0.646c0.248,0,0.248,0.432,0.182,0.744c-0.1,0.48-0.447,1.275-0.512,1.424
		c-0.1,0.232-0.48,0.33-0.547,0.33c-0.678,0-1.141-0.082-4.152-0.082c-1.041,0-2.117,0.082-2.828,0.082
		c-0.412,0-0.611-0.066-0.611-0.199c0-0.197,0.199-0.363,0.546-0.445c1.058-0.248,1.241-0.396,1.291-1.025
		c0.048-0.447,0.065-0.859,0.065-1.688c0-2.547-0.033-5.192-0.084-5.492c-0.049-0.512-0.379-0.643-1.041-0.811
		c-0.281-0.066-0.447-0.23-0.447-0.345c0-0.2,0.232-0.267,0.447-0.267c0.281,0,1.125,0.084,2.217,0.084H271.082z"/>
	<path clip-path="url(#SVGID_2_)" d="M292.539,41.173c0.084,0,1.125,0.066,1.787,0.066s1.422-0.066,1.752-0.066
		c0.348,0,0.48,0.099,0.48,0.297c0,0.134-0.166,0.281-0.447,0.349c-0.744,0.147-0.974,0.329-1.041,0.86
		c-0.051,0.38-0.065,0.927-0.065,3.158c0,2.529,0.015,3.605,0.099,4.201c0,0.148,0.264,0.496,0.663,0.578
		c0.692,0.166,2.084,0.051,2.247,0c0.695-0.23,1.092-0.611,1.573-1.555c0.147-0.297,0.28-0.411,0.381-0.411
		c0.147,0,0.296,0.296,0.28,0.511c0,0.381-0.414,1.555-0.528,1.885c-0.101,0.248-0.399,0.381-0.729,0.381
		c-0.578,0-2.612-0.082-4.664-0.082c-1.125,0-1.721,0.1-2.084,0.1c-0.364,0-0.528-0.15-0.528-0.297c0-0.15,0.181-0.314,0.463-0.38
		c1.092-0.267,1.173-0.581,1.255-0.963c0.034-0.196,0.066-1.371,0.066-3.339c0-2.994-0.032-3.309-0.066-3.756
		c-0.048-0.545-0.33-0.711-0.874-0.877c-0.366-0.115-0.481-0.213-0.481-0.396C292.076,41.306,292.259,41.173,292.539,41.173"/>
	<path clip-path="url(#SVGID_2_)" d="M318.375,41.173c0.084,0,1.125,0.066,1.787,0.066s1.422-0.066,1.752-0.066
		c0.348,0,0.48,0.099,0.48,0.297c0,0.134-0.166,0.281-0.447,0.349c-0.744,0.147-0.974,0.329-1.041,0.86
		c-0.051,0.38-0.066,0.927-0.066,3.158c0,2.529,0.016,3.605,0.1,4.201c0,0.148,0.264,0.496,0.663,0.578
		c0.692,0.166,2.084,0.051,2.247,0c0.695-0.23,1.092-0.611,1.572-1.555c0.148-0.297,0.281-0.411,0.382-0.411
		c0.147,0,0.296,0.296,0.28,0.511c0,0.381-0.414,1.555-0.528,1.885c-0.101,0.248-0.399,0.381-0.729,0.381
		c-0.578,0-2.613-0.082-4.664-0.082c-1.125,0-1.721,0.1-2.084,0.1c-0.365,0-0.529-0.15-0.529-0.297c0-0.15,0.182-0.314,0.464-0.38
		c1.091-0.267,1.174-0.581,1.255-0.963c0.034-0.196,0.066-1.371,0.066-3.339c0-2.994-0.032-3.309-0.066-3.756
		c-0.048-0.545-0.33-0.711-0.874-0.877c-0.366-0.115-0.481-0.213-0.481-0.396C317.912,41.306,318.095,41.173,318.375,41.173"/>
	<path clip-path="url(#SVGID_2_)" d="M348.011,41.239c1.474,0,1.969-0.065,2.365-0.065c0.166,0,0.297,0.015,0.381,0.147
		c0.1,0.166,0.264,1.34,0.264,1.703c0,0.166-0.148,0.399-0.281,0.399c-0.197,0-0.346-0.218-0.71-0.929
		c-0.231-0.463-0.513-0.545-0.597-0.545c-0.94,0-2.232,0.033-2.463,0.033c-0.051,0-0.166,0.215-0.184,0.297
		c-0.048,0.463-0.066,1.97-0.066,3.109c0,0.133,0.066,0.465,0.217,0.465c0.148,0,0.811,0.016,1.074,0
		c1.092-0.051,1.291-0.232,1.474-0.713c0.13-0.345,0.229-0.479,0.396-0.479c0.215,0,0.297,0.23,0.266,0.66
		c-0.018,0.182-0.051,0.496-0.051,0.795c0,0.363,0,0.844,0.033,1.109c0.034,0.43-0.166,0.545-0.263,0.545
		c-0.118,0-0.281-0.084-0.399-0.414c-0.164-0.48-0.297-0.644-0.644-0.678c-0.679-0.051-1.142-0.051-1.886-0.051
		c-0.1,0-0.217,0.283-0.217,0.415c0,1.539,0.033,2.083,0.051,2.446c0.033,0.48,0.134,0.811,0.199,0.861
		c0.149,0.131,0.627,0.33,1.9,0.33c0.68,0,0.877-0.016,1.258-0.133c0.448-0.13,0.711-0.445,1.076-0.975
		c0.264-0.447,0.379-0.646,0.578-0.646c0.249,0,0.249,0.432,0.182,0.744c-0.1,0.48-0.447,1.275-0.511,1.424
		c-0.101,0.232-0.481,0.33-0.547,0.33c-0.679,0-1.142-0.082-4.153-0.082c-1.041,0-2.117,0.082-2.828,0.082
		c-0.412,0-0.611-0.066-0.611-0.199c0-0.197,0.199-0.363,0.546-0.445c1.058-0.248,1.241-0.396,1.29-1.025
		c0.05-0.447,0.066-0.859,0.066-1.688c0-2.547-0.033-5.192-0.084-5.492c-0.049-0.512-0.379-0.643-1.041-0.811
		c-0.281-0.066-0.447-0.23-0.447-0.345c0-0.2,0.232-0.267,0.447-0.267c0.281,0,1.125,0.084,2.217,0.084H348.011z"/>
	<path clip-path="url(#SVGID_2_)" d="M373.338,41.784c-0.216,0-0.581,0.066-0.744,0.133c-0.101,0.034-0.183,0.182-0.183,0.33
		c-0.032,0.911,0,2.695,0.033,3.523c0,0.1,0.049,0.164,0.131,0.199c0.365,0.098,0.679,0.149,0.992,0.149
		c0.248,0,1.176-0.301,1.539-0.629c0.264-0.265,0.545-0.826,0.545-1.489C375.651,42.81,375.024,41.784,373.338,41.784
		 M376.446,45.556c-0.133,0.131-0.858,0.613-1.01,0.678c-0.066,0.016-0.082,0.166-0.049,0.248c0.232,0.462,1.439,2.316,2.217,3.191
		c0.811,0.912,1.274,1.143,1.951,1.306c0.166,0.036,0.232,0.151,0.232,0.249c0,0.314-0.762,0.398-0.961,0.398
		c-0.727,0-1.703-0.101-2.926-1.688c-0.596-0.777-1.557-2.198-1.869-2.646c-0.381-0.529-0.795-0.547-1.356-0.547
		c-0.133,0-0.231,0.15-0.231,0.248c0,1.324,0.017,2.168,0.064,2.746c0.051,0.598,0.266,0.811,1.025,1.01
		c0.314,0.084,0.447,0.182,0.447,0.362c0,0.2-0.281,0.301-0.529,0.301c-0.414,0-1.273-0.067-1.852-0.067
		c-0.513,0-0.795,0.067-1.406,0.067c-0.396,0-0.596-0.118-0.596-0.282c0-0.151,0.166-0.248,0.463-0.348
		c0.645-0.215,0.86-0.299,0.893-1.125c0.019-0.596,0.019-1.141,0.019-4.116c0-2.036-0.034-2.716-0.067-3.062
		c-0.033-0.332-0.281-0.514-0.91-0.629c-0.281-0.049-0.479-0.181-0.479-0.332c0-0.248,0.312-0.314,0.66-0.314h1.458
		c0.626,0,1.306-0.079,2.099-0.079c1.455,0,2.068,0.327,2.465,0.626c0.777,0.596,1.025,1.307,1.025,2.035
		C377.224,44.397,376.927,45.11,376.446,45.556"/>
	<path clip-path="url(#SVGID_2_)" d="M395.819,41.155c0.332,0,1.158,0.084,1.654,0.084c0.696,0,1.407-0.065,1.688-0.065
		c0.216,0,0.447,0.097,0.447,0.278c0,0.168-0.117,0.266-0.513,0.365c-0.448,0.117-0.381,0.281-0.2,0.646
		c0.547,1.106,1.772,3.274,1.937,3.472c0.084,0.102,0.116,0.084,0.198,0.018c0.148-0.098,1.654-2.662,1.902-3.176
		c0.315-0.644,0.33-0.793-0.314-0.974c-0.266-0.085-0.396-0.218-0.396-0.333c0-0.182,0.182-0.281,0.545-0.281
		c0.514,0,1.043,0.051,1.241,0.051c0.462,0,1.009-0.084,1.438-0.084c0.297,0,0.463,0.133,0.463,0.281
		c0,0.118-0.114,0.299-0.447,0.381c-0.626,0.166-1.089,0.381-1.618,1.074c-0.713,0.944-2.151,3.227-2.368,3.723
		c-0.097,0.233-0.148,0.562-0.181,0.91c-0.049,0.594-0.017,1.967-0.017,2.48c0.033,0.281,0.148,0.497,1.24,0.745
		c0.248,0.048,0.363,0.229,0.363,0.347c0,0.166-0.197,0.299-0.544,0.299c-0.267,0-1.043-0.051-1.688-0.051
		c-0.678,0-1.703,0.066-2.017,0.066c-0.299,0-0.463-0.117-0.463-0.299c0-0.213,0.28-0.297,0.578-0.381
		c0.661-0.197,0.926-0.346,0.991-1.488c0.033-0.545,0.019-1.504,0.019-1.834c0-0.283-0.084-0.496-0.315-0.977
		c-0.446-0.927-1.754-3.143-2.201-3.738c-0.229-0.313-0.577-0.613-1.437-0.91c-0.381-0.114-0.448-0.248-0.448-0.348
		C395.356,41.239,395.604,41.155,395.819,41.155"/>
	<path clip-path="url(#SVGID_2_)" d="M8.36,10.258c0,2.352-2.013,4.278-4.223,4.278C2.011,14.536,0,12.695,0,10.258
		c0-2.466,2.239-4.224,4.166-4.224C6.404,6.034,8.36,7.876,8.36,10.258"/>
	<path clip-path="url(#SVGID_2_)" d="M31.243,0.396c0.709,0,3.769,0.113,3.94,0.113c0.17,0,0.425,0.255,0.48,0.396
		c0.116,0.425,0.426,1.104,1.021,2.493c0.625,1.446,3.94,8.36,4.762,9.891c0.057,0.115,0.226,0.087,0.396-0.254
		c0.199-0.368,4.224-8.445,4.903-9.778c0.596-1.218,0.88-1.84,1.021-2.294c0.027-0.171,0.339-0.454,0.51-0.454
		c0.483,0,2.748-0.142,3.656-0.142c0.283,0,0.906,0.112,0.906,0.538c0,0.255-0.169,0.396-0.877,0.566
		c-1.701,0.37-2.098,0.879-2.098,1.36c0,4.593,0.198,9.438,0.311,11.336c0.086,2.068,0.624,2.297,1.787,2.692
		c0.622,0.198,0.877,0.454,0.877,0.623c0,0.283-0.284,0.512-0.822,0.512c-0.339,0-3.032-0.17-3.798-0.17
		c-0.848,0-1.389,0.084-2.068,0.084c-0.454,0-0.878-0.197-0.878-0.481c0-0.312,0.368-0.511,0.964-0.651
		c1.019-0.282,1.189-0.595,1.218-2.154c0.029-0.737,0.029-6.942,0.029-9.664c0-0.197-0.312-0.056-0.341,0
		c-0.596,1.076-3.657,7.68-4.082,8.559c-0.339,0.709-1.218,2.693-1.501,3.516c-0.226,0.68-0.651,0.991-0.993,0.991
		c-0.254,0-0.509-0.482-0.708-0.965c-0.339-0.735-1.161-3.061-1.444-3.796c-1.05-2.58-2.835-6.208-3.656-8.219
		c-0.029-0.028-0.255-0.257-0.284-0.028c-0.255,2.493-0.509,8.105-0.509,9.549c0,1.701,0.367,1.871,1.698,2.212
		c0.654,0.141,0.767,0.397,0.767,0.651c0,0.313-0.483,0.481-0.908,0.481c-0.397,0-1.389-0.084-2.211-0.084
		c-0.905,0-2.719,0.141-3.089,0.141c-0.538,0-0.906-0.141-0.906-0.509c0-0.257,0.197-0.454,0.88-0.624
		c1.302-0.313,1.897-0.993,2.097-2.183c0.339-1.954,1.047-10.26,1.047-10.939c0-1.614-0.283-1.927-2.155-2.269
		c-0.422-0.055-0.764-0.254-0.764-0.45C30.421,0.679,30.904,0.396,31.243,0.396"/>
	<path clip-path="url(#SVGID_2_)" d="M97.146,10.683c0.142,0,0.425,0.142,0.425,0.341c0,0.255-0.029,0.877-0.113,1.16
		c-0.057,0.142-0.283,0.342-0.483,0.342l-23.578,0.028c-0.368,0-0.368-0.341-0.368-0.483c0-0.196,0.113-0.904,0.226-1.047
		c0.084-0.17,0.367-0.255,0.509-0.255L97.146,10.683z"/>
	<path clip-path="url(#SVGID_2_)" d="M128.072,9.522c-0.339-1.417-1.869-5.188-2.068-5.642c-0.084-0.199-0.312-0.141-0.368,0
		c-0.624,1.531-1.446,3.771-2.068,5.642c-0.029,0.112,0,0.255,0.197,0.28c0.511,0.059,3.685,0.087,4.194,0
		C128.046,9.803,128.13,9.635,128.072,9.522 M128.13,2.69c1.446,4.109,3.853,10.26,4.507,11.989
		c0.593,1.473,0.792,1.614,2.352,2.152c0.622,0.2,0.85,0.51,0.85,0.822c0,0.171-0.284,0.312-0.68,0.312
		c-1.504,0-2.58-0.141-3.968-0.141c-1.276,0-1.276,0.057-2.182,0.057c-0.538,0-0.795-0.17-0.795-0.37
		c0-0.226,0.142-0.538,0.653-0.68c1.331-0.396,1.444-0.595,1.161-1.614c-0.197-0.795-0.935-2.692-1.276-3.543
		c-0.055-0.171-0.396-0.396-0.735-0.396c-0.567-0.029-3.969-0.029-4.846,0.058c-0.141,0-0.398,0.254-0.454,0.396
		c-0.396,1.161-1.162,3.314-1.162,3.911c0,0.367,0.057,0.764,1.417,1.188c0.368,0.113,0.623,0.227,0.623,0.454
		c0.028,0.284-0.311,0.623-0.964,0.623c-0.31,0-1.53-0.084-2.352-0.084c-0.963,0-1.473,0.141-2.551,0.141
		c-0.509,0-0.935-0.112-0.964-0.425c0-0.283,0.257-0.567,0.851-0.709c1.417-0.367,1.9-0.963,2.184-1.587
		c0.876-1.87,3.853-9.35,5.241-13.036c0.085-0.225,0.171-0.566,0.2-0.792c0-0.087,0.142-0.284,0.197-0.312
		c0.312-0.229,0.737-0.538,1.021-0.793c0.17-0.17,0.48-0.312,0.596-0.312C127.337-0.001,127.479,0.792,128.13,2.69"/>
	<path clip-path="url(#SVGID_2_)" d="M179.241,10.683c0.142,0,0.425,0.142,0.425,0.341c0,0.255-0.029,0.877-0.113,1.16
		c-0.057,0.142-0.283,0.342-0.482,0.342l-23.579,0.028c-0.368,0-0.368-0.341-0.368-0.483c0-0.196,0.113-0.904,0.226-1.047
		c0.084-0.17,0.368-0.255,0.509-0.255L179.241,10.683z"/>
	<path clip-path="url(#SVGID_2_)" d="M206.769,1.443c-0.37,0-0.992,0.115-1.276,0.229c-0.17,0.055-0.312,0.312-0.312,0.566
		c-0.055,1.56,0,4.619,0.057,6.035c0,0.17,0.085,0.283,0.226,0.341c0.625,0.17,1.163,0.254,1.701,0.254
		c0.425,0,2.011-0.509,2.635-1.075c0.454-0.454,0.935-1.417,0.935-2.552C210.734,3.201,209.659,1.443,206.769,1.443 M212.097,7.905
		c-0.228,0.227-1.475,1.05-1.73,1.163c-0.113,0.028-0.141,0.283-0.084,0.425c0.397,0.793,2.465,3.967,3.796,5.471
		c1.389,1.557,2.184,1.953,3.344,2.236c0.284,0.058,0.399,0.256,0.399,0.426c0,0.539-1.305,0.682-1.646,0.682
		c-1.247,0-2.919-0.171-5.016-2.893c-1.019-1.33-2.664-3.77-3.202-4.533c-0.651-0.908-1.36-0.937-2.323-0.937
		c-0.228,0-0.397,0.257-0.397,0.425c0,2.269,0.029,3.715,0.113,4.706c0.085,1.02,0.454,1.389,1.756,1.728
		c0.539,0.142,0.767,0.312,0.767,0.625c0,0.339-0.483,0.509-0.908,0.509c-0.709,0-2.182-0.113-3.174-0.113
		c-0.879,0-1.359,0.113-2.409,0.113c-0.68,0-1.019-0.197-1.019-0.481c0-0.256,0.284-0.425,0.793-0.595
		c1.105-0.368,1.473-0.51,1.53-1.927c0.029-1.021,0.029-1.955,0.029-7.058c0-3.486-0.058-4.646-0.113-5.242
		c-0.058-0.567-0.483-0.879-1.559-1.076c-0.483-0.086-0.822-0.312-0.822-0.567c0-0.425,0.539-0.538,1.134-0.538h2.494
		c1.076,0,2.239-0.142,3.599-0.142c2.493,0,3.541,0.565,4.223,1.076c1.331,1.019,1.756,2.239,1.756,3.485
		C213.428,5.922,212.918,7.142,212.097,7.905"/>
	<path clip-path="url(#SVGID_2_)" d="M260.344,10.683c0.143,0,0.425,0.142,0.425,0.341c0,0.255-0.028,0.877-0.112,1.16
		c-0.058,0.142-0.283,0.342-0.483,0.342l-23.578,0.028c-0.368,0-0.368-0.341-0.368-0.483c0-0.196,0.113-0.904,0.226-1.047
		c0.084-0.17,0.368-0.255,0.509-0.255L260.344,10.683z"/>
	<path clip-path="url(#SVGID_2_)" d="M281.918,0.367c0.399,0,2.127,0.142,2.836,0.142c1.358,0,2.748-0.056,3.06-0.056
		c0.228,0,0.767,0.142,0.767,0.452c0,0.341-0.482,0.596-0.709,0.653c-1.275,0.31-1.502,0.68-1.502,1.132
		c0,0.369-0.141,4.818-0.057,5.47c0.029,0.142,0.113,0.228,0.312,0.228c0.112,0,0.338-0.057,0.68-0.37
		c1.843-1.559,5.07-4.646,5.865-5.583c0.227-0.282,0.113-0.593-0.85-0.792c-0.538-0.112-0.822-0.341-0.822-0.65
		c0-0.143,0.197-0.483,0.709-0.483h1.53c1.644-0.028,2.974-0.198,4.079-0.198c0.852,0,1.051,0.256,1.051,0.539
		c0,0.197-0.283,0.48-0.908,0.594c-1.248,0.228-2.353,0.767-3.486,1.672c-1.16,0.908-2.238,1.813-5.157,4.564
		c-0.085,0.056-0.085,0.283,0,0.396c2.38,2.692,5.583,5.895,6.745,7c1.105,1.048,1.814,1.389,3.061,1.785
		c0.625,0.196,0.822,0.339,0.822,0.68c0,0.142-0.312,0.483-0.822,0.483c-1.33,0-3.882-0.199-4.957-0.199h-1.447
		c-0.396,0-0.68-0.255-0.68-0.51c0-0.229,0.226-0.454,0.737-0.596c0.681-0.2,0.793-0.51,0.396-0.964
		c-1.049-1.19-4.478-4.761-5.836-6.121c-0.313-0.283-0.597-0.396-0.709-0.396c-0.199,0-0.312,0.226-0.312,0.538
		c0,1.302-0.029,3.966,0.084,5.412c0.113,1.246,0.652,1.359,1.701,1.588c0.792,0.168,0.963,0.423,0.963,0.65
		c0,0.284-0.426,0.511-0.764,0.511c-0.342,0-1.984-0.113-2.863-0.113c-1.331,0-3.174,0.17-3.684,0.17
		c-0.34,0-0.824-0.17-0.824-0.483c0-0.338,0.283-0.509,0.767-0.622c1.502-0.37,1.897-0.68,1.983-1.871
		c0.057-0.964,0.113-2.068,0.113-6.858c0-4.363,0-4.761-0.057-5.328c-0.057-0.509-0.084-0.935-1.643-1.302
		c-0.623-0.143-0.936-0.397-0.936-0.654C281.154,0.65,281.494,0.367,281.918,0.367"/>
	<path clip-path="url(#SVGID_2_)" d="M343.429,10.683c0.143,0,0.425,0.142,0.425,0.341c0,0.255-0.028,0.877-0.112,1.16
		c-0.058,0.142-0.283,0.342-0.483,0.342l-23.578,0.028c-0.368,0-0.368-0.341-0.368-0.483c0-0.196,0.113-0.904,0.227-1.047
		c0.084-0.17,0.368-0.255,0.509-0.255L343.429,10.683z"/>
	<path clip-path="url(#SVGID_2_)" d="M366.903,4.619c0-2.409-0.142-2.693-1.955-3.118c-0.482-0.113-0.709-0.396-0.709-0.651
		c0-0.171,0.48-0.425,0.906-0.425c0.54,0,1.587,0.084,2.834,0.084c1.701,0,2.465-0.112,3.289-0.112c0.339,0,0.68,0.226,0.68,0.509
		c0,0.255-0.369,0.454-0.596,0.512c-1.643,0.425-1.758,0.735-1.813,2.181c-0.058,1.163-0.058,4.252-0.058,6.18
		c0,3.089,0.029,4.675,0.029,5.045c0.057,1.331,0.425,1.585,2.126,2.01c0.538,0.142,0.737,0.342,0.737,0.567
		c0,0.367-0.597,0.539-0.938,0.539c-0.283,0-2.323-0.113-3.286-0.113c-0.992,0-2.664,0.17-3.174,0.17
		c-0.37,0-0.766-0.199-0.766-0.425c0-0.255,0.341-0.513,0.709-0.653c1.472-0.51,1.701-0.764,1.785-1.331
		c0.086-0.596,0.198-4.762,0.198-7.085V4.619z"/>
	<path clip-path="url(#SVGID_2_)" d="M416.6,10.683c0.142,0,0.425,0.142,0.425,0.341c0,0.255-0.029,0.877-0.113,1.16
		c-0.057,0.142-0.283,0.342-0.482,0.342l-23.578,0.028c-0.368,0-0.368-0.341-0.368-0.483c0-0.196,0.113-0.904,0.226-1.047
		c0.084-0.17,0.368-0.255,0.509-0.255L416.6,10.683z"/>
	<path clip-path="url(#SVGID_2_)" d="M437.323,0.338c1.134,0,3.318,0.171,4.168,0.171c0.143,0,0.538,0.367,0.567,0.426
		c0.283,0.482,1.359,1.812,2.719,3.288c1.502,1.614,6.83,7.707,7.906,8.698c0.087,0.087,0.257-0.055,0.284-0.196
		c0.057-0.567,0.198-5.698,0.057-7.992c-0.141-2.381-0.17-2.748-2.097-3.174c-0.681-0.142-0.793-0.454-0.793-0.624
		c0-0.2,0.255-0.454,0.851-0.454c1.131,0,1.247,0.028,1.982,0.028c1.163,0,2.635-0.171,3.202-0.171c0.596,0,0.879,0.283,0.879,0.513
		c0,0.168-0.084,0.366-1.047,0.65c-0.964,0.312-1.362,0.792-1.419,1.417c-0.086,0.906-0.254,6.885-0.254,9.637
		c0,1.246,0.056,3.144,0.056,4.448c0,1.189-0.254,1.389-0.597,1.389c-0.141,0-0.734-0.312-1.075-0.821
		c-0.709-1.021-2.182-2.89-2.975-3.77c-1.078-1.246-6.549-7.538-7.795-8.898c-0.169-0.142-0.284,0.027-0.31,0.284
		c-0.029,0.622-0.116,1.84-0.116,3.06c0,1.276,0.087,4.393,0.116,5.158c0.084,2.494,0.226,2.777,1.812,3.287
		c0.651,0.199,0.936,0.396,0.936,0.766c0,0.339-0.538,0.48-0.908,0.48c-0.793,0-1.36-0.113-2.04-0.113
		c-1.331,0-3.061,0.171-3.428,0.171c-0.454,0-0.908-0.113-0.908-0.482c0-0.256,0.255-0.48,0.766-0.622
		c1.841-0.483,2.011-1.192,2.099-2.325c0.141-1.898,0.366-10.004,0.366-10.909c0-0.37-0.198-0.796-0.963-1.504
		c-0.396-0.425-1.247-0.622-1.785-0.735c-0.453-0.058-0.851-0.398-0.851-0.709C436.729,0.48,436.955,0.338,437.323,0.338"/>
	<path clip-path="url(#SVGID_2_)" d="M486.284,10.258c0,2.352-2.014,4.278-4.224,4.278c-2.126,0-4.137-1.841-4.137-4.278
		c0-2.466,2.239-4.224,4.166-4.224C484.329,6.034,486.284,7.876,486.284,10.258"/>
</g>
</svg>
