<?xml version="1.0" encoding="utf-8"?>
<!-- Generator: Adobe Illustrator 16.0.0, SVG Export Plug-In . SVG Version: 6.00 Build 0)  -->
<!DOCTYPE svg PUBLIC "-//W3C//DTD SVG 1.1//EN" "http://www.w3.org/Graphics/SVG/1.1/DTD/svg11.dtd">
<svg version="1.1" id="Layer_1" xmlns="http://www.w3.org/2000/svg" xmlns:xlink="http://www.w3.org/1999/xlink" x="0px" y="0px"
	 width="486.285px" height="57.98px" viewBox="0 0 486.285 57.98" enable-background="new 0 0 486.285 57.98" xml:space="preserve">
<g>
	<g>
		<g>
			<defs>
				<polyline id="SVGID_1_" points="0,69.586 0,19 486.285,19 486.285,69.586 				"/>
			</defs>
			<clipPath id="SVGID_2_">
				<use xlink:href="#SVGID_1_"  overflow="visible"/>
			</clipPath>
			<path clip-path="url(#SVGID_2_)" fill="#FFFFFF" d="M8.36,29.258c0,2.352-2.013,4.277-4.223,4.277
				C2.011,33.536,0,31.695,0,29.258c0-2.466,2.239-4.224,4.166-4.224C6.404,25.034,8.36,26.876,8.36,29.258"/>
		</g>
	</g>
	<g>
		<g>
			<defs>
				<polyline id="SVGID_3_" points="0,69.586 0,19 486.285,19 486.285,69.586 				"/>
			</defs>
			<clipPath id="SVGID_4_">
				<use xlink:href="#SVGID_3_"  overflow="visible"/>
			</clipPath>
			<path clip-path="url(#SVGID_4_)" fill="#FFFFFF" d="M31.243,19.396c0.709,0,3.77,0.113,3.94,0.113
				c0.17,0,0.425,0.255,0.479,0.396c0.116,0.425,0.426,1.104,1.021,2.492c0.625,1.446,3.939,8.36,4.762,9.893
				c0.057,0.113,0.226,0.086,0.396-0.254c0.199-0.369,4.225-8.446,4.903-9.779c0.596-1.218,0.88-1.84,1.021-2.294
				c0.026-0.171,0.339-0.454,0.51-0.454c0.482,0,2.748-0.142,3.656-0.142c0.282,0,0.905,0.111,0.905,0.538
				c0,0.255-0.169,0.396-0.877,0.565c-1.701,0.37-2.098,0.879-2.098,1.36c0,4.593,0.198,9.438,0.311,11.335
				c0.086,2.067,0.624,2.297,1.787,2.691c0.622,0.198,0.877,0.454,0.877,0.623c0,0.283-0.283,0.514-0.821,0.514
				c-0.34,0-3.032-0.17-3.799-0.17c-0.848,0-1.389,0.084-2.067,0.084c-0.454,0-0.878-0.197-0.878-0.482
				c0-0.311,0.368-0.51,0.964-0.65c1.019-0.28,1.188-0.595,1.218-2.153c0.029-0.736,0.029-6.941,0.029-9.664
				c0-0.197-0.312-0.057-0.341,0c-0.597,1.076-3.657,7.68-4.082,8.559c-0.339,0.709-1.219,2.692-1.501,3.518
				c-0.227,0.68-0.651,0.989-0.993,0.989c-0.254,0-0.509-0.481-0.708-0.965c-0.339-0.733-1.161-3.061-1.444-3.796
				c-1.05-2.58-2.835-6.208-3.656-8.219c-0.028-0.028-0.255-0.257-0.283-0.028c-0.255,2.493-0.51,8.105-0.51,9.549
				c0,1.701,0.367,1.871,1.698,2.212c0.654,0.143,0.768,0.397,0.768,0.651c0,0.312-0.483,0.48-0.908,0.48
				c-0.397,0-1.39-0.084-2.211-0.084c-0.905,0-2.72,0.141-3.089,0.141c-0.538,0-0.906-0.141-0.906-0.508
				c0-0.258,0.197-0.455,0.88-0.625c1.302-0.312,1.896-0.992,2.097-2.184c0.339-1.954,1.047-10.26,1.047-10.938
				c0-1.614-0.282-1.927-2.154-2.27c-0.422-0.055-0.765-0.254-0.765-0.449C30.421,19.679,30.904,19.396,31.243,19.396"/>
		</g>
	</g>
	<g>
		<g>
			<defs>
				<polyline id="SVGID_5_" points="0,69.586 0,19 486.285,19 486.285,69.586 				"/>
			</defs>
			<clipPath id="SVGID_6_">
				<use xlink:href="#SVGID_5_"  overflow="visible"/>
			</clipPath>
			<path clip-path="url(#SVGID_6_)" fill="#FFFFFF" d="M97.146,29.683c0.142,0,0.425,0.143,0.425,0.341
				c0,0.255-0.029,0.877-0.113,1.16c-0.057,0.144-0.283,0.342-0.482,0.342l-23.578,0.028c-0.368,0-0.368-0.341-0.368-0.483
				c0-0.194,0.113-0.903,0.226-1.047c0.084-0.17,0.367-0.255,0.51-0.255L97.146,29.683z"/>
		</g>
	</g>
	<g>
		<g>
			<defs>
				<polyline id="SVGID_7_" points="0,69.586 0,19 486.285,19 486.285,69.586 				"/>
			</defs>
			<clipPath id="SVGID_8_">
				<use xlink:href="#SVGID_7_"  overflow="visible"/>
			</clipPath>
			<path clip-path="url(#SVGID_8_)" fill="#FFFFFF" d="M128.072,28.522c-0.339-1.417-1.869-5.188-2.068-5.642
				c-0.084-0.199-0.312-0.141-0.367,0c-0.624,1.531-1.446,3.771-2.068,5.642c-0.029,0.111,0,0.255,0.197,0.279
				c0.511,0.06,3.685,0.088,4.193,0C128.046,28.803,128.13,28.635,128.072,28.522 M128.13,21.69
				c1.446,4.109,3.854,10.261,4.508,11.989c0.593,1.473,0.792,1.614,2.352,2.151c0.622,0.201,0.85,0.51,0.85,0.821
				c0,0.173-0.283,0.312-0.68,0.312c-1.504,0-2.58-0.141-3.968-0.141c-1.276,0-1.276,0.057-2.183,0.057
				c-0.537,0-0.795-0.17-0.795-0.371c0-0.225,0.143-0.537,0.653-0.68c1.331-0.396,1.444-0.596,1.161-1.613
				c-0.197-0.795-0.935-2.692-1.276-3.543c-0.055-0.172-0.396-0.396-0.734-0.396c-0.567-0.028-3.97-0.028-4.847,0.06
				c-0.141,0-0.397,0.254-0.454,0.396c-0.396,1.161-1.161,3.313-1.161,3.911c0,0.367,0.057,0.765,1.417,1.188
				c0.367,0.112,0.623,0.228,0.623,0.455c0.027,0.282-0.312,0.623-0.965,0.623c-0.31,0-1.529-0.084-2.352-0.084
				c-0.963,0-1.473,0.141-2.551,0.141c-0.509,0-0.936-0.112-0.964-0.426c0-0.283,0.257-0.566,0.851-0.709
				c1.417-0.367,1.9-0.963,2.184-1.586c0.876-1.871,3.854-9.352,5.241-13.037c0.085-0.226,0.171-0.566,0.2-0.792
				c0-0.087,0.142-0.284,0.197-0.312c0.312-0.229,0.736-0.538,1.021-0.793c0.17-0.17,0.48-0.312,0.597-0.312
				C127.337,18.999,127.479,19.792,128.13,21.69"/>
		</g>
	</g>
	<g>
		<g>
			<defs>
				<polyline id="SVGID_9_" points="0,69.586 0,19 486.285,19 486.285,69.586 				"/>
			</defs>
			<clipPath id="SVGID_10_">
				<use xlink:href="#SVGID_9_"  overflow="visible"/>
			</clipPath>
			<path clip-path="url(#SVGID_10_)" fill="#FFFFFF" d="M179.241,29.683c0.142,0,0.425,0.143,0.425,0.341
				c0,0.255-0.028,0.877-0.112,1.16c-0.058,0.144-0.283,0.342-0.482,0.342l-23.579,0.028c-0.368,0-0.368-0.341-0.368-0.483
				c0-0.194,0.113-0.903,0.227-1.047c0.084-0.17,0.367-0.255,0.509-0.255L179.241,29.683z"/>
		</g>
	</g>
	<g>
		<g>
			<defs>
				<polyline id="SVGID_11_" points="0,69.586 0,19 486.285,19 486.285,69.586 				"/>
			</defs>
			<clipPath id="SVGID_12_">
				<use xlink:href="#SVGID_11_"  overflow="visible"/>
			</clipPath>
			<path clip-path="url(#SVGID_12_)" fill="#FFFFFF" d="M206.769,20.443c-0.37,0-0.992,0.115-1.276,0.229
				c-0.17,0.055-0.312,0.312-0.312,0.565c-0.056,1.561,0,4.619,0.057,6.035c0,0.17,0.085,0.283,0.226,0.342
				c0.625,0.17,1.163,0.253,1.701,0.253c0.425,0,2.011-0.51,2.635-1.075c0.454-0.454,0.936-1.417,0.936-2.552
				C210.734,22.201,209.659,20.443,206.769,20.443 M212.097,26.906c-0.229,0.227-1.476,1.05-1.73,1.162
				c-0.113,0.028-0.141,0.283-0.084,0.426c0.397,0.793,2.465,3.967,3.796,5.471c1.39,1.558,2.185,1.953,3.344,2.236
				c0.284,0.059,0.399,0.256,0.399,0.426c0,0.539-1.305,0.683-1.646,0.683c-1.246,0-2.919-0.171-5.016-2.894
				c-1.019-1.33-2.664-3.771-3.202-4.533c-0.65-0.907-1.359-0.938-2.322-0.938c-0.229,0-0.397,0.258-0.397,0.426
				c0,2.27,0.029,3.715,0.113,4.707c0.085,1.02,0.454,1.389,1.756,1.728c0.539,0.143,0.767,0.312,0.767,0.625
				c0,0.339-0.482,0.509-0.908,0.509c-0.709,0-2.182-0.112-3.174-0.112c-0.879,0-1.358,0.112-2.409,0.112
				c-0.68,0-1.019-0.196-1.019-0.479c0-0.256,0.284-0.426,0.793-0.597c1.105-0.366,1.473-0.51,1.53-1.927
				c0.028-1.021,0.028-1.955,0.028-7.058c0-3.486-0.058-4.646-0.112-5.242c-0.059-0.567-0.483-0.879-1.56-1.076
				c-0.482-0.086-0.821-0.312-0.821-0.566c0-0.426,0.539-0.538,1.134-0.538h2.494c1.075,0,2.238-0.143,3.599-0.143
				c2.493,0,3.541,0.565,4.223,1.076c1.331,1.02,1.757,2.239,1.757,3.485C213.428,24.922,212.918,26.142,212.097,26.906"/>
		</g>
	</g>
	<g>
		<g>
			<defs>
				<polyline id="SVGID_13_" points="0,69.586 0,19 486.285,19 486.285,69.586 				"/>
			</defs>
			<clipPath id="SVGID_14_">
				<use xlink:href="#SVGID_13_"  overflow="visible"/>
			</clipPath>
			<path clip-path="url(#SVGID_14_)" fill="#FFFFFF" d="M260.343,29.683c0.145,0,0.427,0.143,0.427,0.341
				c0,0.255-0.027,0.877-0.111,1.16c-0.059,0.144-0.283,0.342-0.484,0.342l-23.576,0.028c-0.368,0-0.368-0.341-0.368-0.483
				c0-0.194,0.112-0.903,0.226-1.047c0.084-0.17,0.368-0.255,0.509-0.255L260.343,29.683z"/>
		</g>
	</g>
	<g>
		<g>
			<defs>
				<polyline id="SVGID_15_" points="0,69.586 0,19 486.285,19 486.285,69.586 				"/>
			</defs>
			<clipPath id="SVGID_16_">
				<use xlink:href="#SVGID_15_"  overflow="visible"/>
			</clipPath>
			<path clip-path="url(#SVGID_16_)" fill="#FFFFFF" d="M281.917,19.367c0.399,0,2.127,0.142,2.836,0.142
				c1.358,0,2.748-0.056,3.062-0.056c0.229,0,0.768,0.142,0.768,0.452c0,0.341-0.481,0.596-0.709,0.652
				c-1.274,0.311-1.502,0.68-1.502,1.132c0,0.369-0.142,4.818-0.058,5.471c0.027,0.142,0.111,0.228,0.312,0.228
				c0.112,0,0.338-0.057,0.682-0.37c1.843-1.559,5.068-4.646,5.863-5.583c0.229-0.282,0.113-0.593-0.85-0.792
				c-0.538-0.111-0.822-0.341-0.822-0.649c0-0.144,0.197-0.483,0.709-0.483h1.53c1.644-0.028,2.974-0.198,4.079-0.198
				c0.853,0,1.051,0.256,1.051,0.539c0,0.197-0.282,0.48-0.907,0.594c-1.249,0.229-2.354,0.768-3.485,1.673
				c-1.16,0.907-2.238,1.812-5.157,4.563c-0.085,0.056-0.085,0.283,0,0.396c2.38,2.691,5.583,5.895,6.745,7
				c1.104,1.049,1.813,1.389,3.062,1.784c0.625,0.196,0.822,0.341,0.822,0.681c0,0.143-0.312,0.482-0.822,0.482
				c-1.33,0-3.883-0.197-4.957-0.197h-1.446c-0.396,0-0.681-0.257-0.681-0.512c0-0.229,0.227-0.454,0.736-0.597
				c0.682-0.199,0.793-0.51,0.396-0.963c-1.049-1.19-4.479-4.762-5.836-6.121c-0.312-0.283-0.598-0.396-0.709-0.396
				c-0.198,0-0.312,0.227-0.312,0.537c0,1.303-0.029,3.967,0.084,5.412c0.113,1.246,0.652,1.358,1.701,1.588
				c0.792,0.168,0.963,0.424,0.963,0.649c0,0.285-0.426,0.512-0.765,0.512c-0.342,0-1.983-0.112-2.862-0.112
				c-1.331,0-3.174,0.17-3.685,0.17c-0.34,0-0.823-0.17-0.823-0.482c0-0.338,0.282-0.51,0.767-0.622
				c1.502-0.37,1.896-0.681,1.983-1.871c0.057-0.964,0.112-2.066,0.112-6.857c0-4.363,0-4.762-0.058-5.328
				c-0.059-0.509-0.084-0.936-1.645-1.302c-0.623-0.144-0.936-0.397-0.936-0.654C281.154,19.65,281.494,19.367,281.917,19.367"/>
		</g>
	</g>
	<g>
		<g>
			<defs>
				<polyline id="SVGID_17_" points="0,69.586 0,19 486.285,19 486.285,69.586 				"/>
			</defs>
			<clipPath id="SVGID_18_">
				<use xlink:href="#SVGID_17_"  overflow="visible"/>
			</clipPath>
			<path clip-path="url(#SVGID_18_)" fill="#FFFFFF" d="M343.429,29.683c0.143,0,0.424,0.143,0.424,0.341
				c0,0.255-0.027,0.877-0.111,1.16c-0.059,0.144-0.282,0.342-0.481,0.342l-23.578,0.028c-0.369,0-0.369-0.341-0.369-0.483
				c0-0.194,0.113-0.903,0.229-1.047c0.084-0.17,0.366-0.255,0.508-0.255L343.429,29.683z"/>
		</g>
	</g>
	<g>
		<g>
			<defs>
				<polyline id="SVGID_19_" points="0,69.586 0,19 486.285,19 486.285,69.586 				"/>
			</defs>
			<clipPath id="SVGID_20_">
				<use xlink:href="#SVGID_19_"  overflow="visible"/>
			</clipPath>
			<path clip-path="url(#SVGID_20_)" fill="#FFFFFF" d="M366.904,23.619c0-2.409-0.143-2.693-1.955-3.118
				c-0.481-0.113-0.709-0.396-0.709-0.651c0-0.171,0.479-0.425,0.904-0.425c0.541,0,1.588,0.084,2.836,0.084
				c1.699,0,2.465-0.112,3.287-0.112c0.34,0,0.682,0.227,0.682,0.51c0,0.255-0.369,0.453-0.598,0.512
				c-1.644,0.425-1.758,0.734-1.812,2.181c-0.057,1.163-0.057,4.252-0.057,6.18c0,3.09,0.027,4.676,0.027,5.047
				c0.059,1.33,0.426,1.584,2.127,2.01c0.537,0.142,0.735,0.342,0.735,0.565c0,0.367-0.596,0.539-0.938,0.539
				c-0.283,0-2.322-0.112-3.285-0.112c-0.992,0-2.664,0.17-3.176,0.17c-0.369,0-0.767-0.199-0.767-0.424
				c0-0.257,0.343-0.515,0.71-0.654c1.473-0.51,1.7-0.764,1.784-1.33c0.086-0.596,0.199-4.762,0.199-7.085V23.62L366.904,23.619
				L366.904,23.619z"/>
		</g>
	</g>
	<g>
		<g>
			<defs>
				<polyline id="SVGID_21_" points="0,69.586 0,19 486.285,19 486.285,69.586 				"/>
			</defs>
			<clipPath id="SVGID_22_">
				<use xlink:href="#SVGID_21_"  overflow="visible"/>
			</clipPath>
			<path clip-path="url(#SVGID_22_)" fill="#FFFFFF" d="M416.599,29.683c0.143,0,0.426,0.143,0.426,0.341
				c0,0.255-0.029,0.877-0.113,1.16c-0.057,0.144-0.282,0.342-0.481,0.342l-23.578,0.028c-0.367,0-0.367-0.341-0.367-0.483
				c0-0.194,0.113-0.903,0.228-1.047c0.084-0.17,0.366-0.255,0.508-0.255L416.599,29.683z"/>
		</g>
	</g>
	<g>
		<g>
			<defs>
				<polyline id="SVGID_23_" points="0,69.586 0,19 486.285,19 486.285,69.586 				"/>
			</defs>
			<clipPath id="SVGID_24_">
				<use xlink:href="#SVGID_23_"  overflow="visible"/>
			</clipPath>
			<path clip-path="url(#SVGID_24_)" fill="#FFFFFF" d="M437.324,19.338c1.133,0,3.316,0.171,4.168,0.171
				c0.144,0,0.537,0.367,0.566,0.426c0.283,0.482,1.359,1.812,2.719,3.288c1.502,1.614,6.83,7.707,7.906,8.697
				c0.086,0.088,0.258-0.055,0.283-0.195c0.059-0.565,0.198-5.698,0.059-7.992c-0.143-2.381-0.172-2.748-2.098-3.174
				c-0.683-0.142-0.793-0.454-0.793-0.624c0-0.2,0.254-0.454,0.852-0.454c1.131,0,1.246,0.028,1.98,0.028
				c1.164,0,2.635-0.171,3.203-0.171c0.596,0,0.879,0.283,0.879,0.513c0,0.168-0.084,0.366-1.047,0.65
				c-0.966,0.312-1.363,0.792-1.421,1.417c-0.086,0.906-0.254,6.885-0.254,9.637c0,1.246,0.058,3.146,0.058,4.447
				c0,1.188-0.254,1.39-0.599,1.39c-0.141,0-0.733-0.312-1.073-0.821c-0.709-1.021-2.183-2.89-2.976-3.77
				c-1.078-1.246-6.551-7.538-7.795-8.898c-0.17-0.142-0.285,0.027-0.311,0.284c-0.029,0.622-0.117,1.84-0.117,3.061
				c0,1.275,0.088,4.393,0.117,5.157c0.084,2.494,0.227,2.777,1.812,3.287c0.65,0.199,0.937,0.396,0.937,0.767
				c0,0.34-0.539,0.479-0.908,0.479c-0.793,0-1.359-0.112-2.041-0.112c-1.33,0-3.062,0.172-3.428,0.172
				c-0.453,0-0.908-0.113-0.908-0.482c0-0.256,0.256-0.479,0.768-0.622c1.84-0.482,2.01-1.191,2.099-2.325
				c0.141-1.897,0.366-10.004,0.366-10.908c0-0.37-0.198-0.797-0.963-1.505c-0.396-0.425-1.248-0.621-1.785-0.734
				c-0.452-0.059-0.852-0.398-0.852-0.709C436.728,19.48,436.955,19.338,437.324,19.338"/>
		</g>
	</g>
	<g>
		<g>
			<defs>
				<polyline id="SVGID_25_" points="0,69.586 0,19 486.285,19 486.285,69.586 				"/>
			</defs>
			<clipPath id="SVGID_26_">
				<use xlink:href="#SVGID_25_"  overflow="visible"/>
			</clipPath>
			<path clip-path="url(#SVGID_26_)" fill="#FFFFFF" d="M486.285,29.258c0,2.352-2.016,4.277-4.225,4.277
				c-2.127,0-4.137-1.842-4.137-4.277c0-2.466,2.237-4.224,4.166-4.224C484.33,25.034,486.285,26.876,486.285,29.258"/>
		</g>
	</g>
</g>
</svg>
