<?xml version="1.0" encoding="utf-8"?>
<!-- Generator: Adobe Illustrator 16.0.0, SVG Export Plug-In . SVG Version: 6.00 Build 0)  -->
<!DOCTYPE svg PUBLIC "-//W3C//DTD SVG 1.1//EN" "http://www.w3.org/Graphics/SVG/1.1/DTD/svg11.dtd">
<svg version="1.1" id="Layer_1" xmlns="http://www.w3.org/2000/svg" xmlns:xlink="http://www.w3.org/1999/xlink" x="0px" y="0px"
	 width="486.285px" height="57.981px" viewBox="0 0 486.285 57.981" enable-background="new 0 0 486.285 57.981"
	 xml:space="preserve">
<g>
	<g>
		<defs>
			<polyline id="SVGID_1_" points="0,69.586 0,19 486.285,19 486.285,69.586 			"/>
		</defs>
		<clipPath id="SVGID_2_">
			<use xlink:href="#SVGID_1_"  overflow="visible"/>
		</clipPath>
	</g>
	<g>
		<defs>
			<polyline id="SVGID_3_" points="0,69.586 0,19 486.285,19 486.285,69.586 			"/>
		</defs>
		<clipPath id="SVGID_4_">
			<use xlink:href="#SVGID_3_"  overflow="visible"/>
		</clipPath>
	</g>
	<g>
		<defs>
			<polyline id="SVGID_5_" points="0,69.586 0,19 486.285,19 486.285,69.586 			"/>
		</defs>
		<clipPath id="SVGID_6_">
			<use xlink:href="#SVGID_5_"  overflow="visible"/>
		</clipPath>
	</g>
	<g>
		<defs>
			<polyline id="SVGID_7_" points="0,69.586 0,19 486.285,19 486.285,69.586 			"/>
		</defs>
		<clipPath id="SVGID_8_">
			<use xlink:href="#SVGID_7_"  overflow="visible"/>
		</clipPath>
	</g>
	<g>
		<defs>
			<polyline id="SVGID_9_" points="0,69.586 0,19 486.285,19 486.285,69.586 			"/>
		</defs>
		<clipPath id="SVGID_10_">
			<use xlink:href="#SVGID_9_"  overflow="visible"/>
		</clipPath>
	</g>
	<g>
		<defs>
			<polyline id="SVGID_11_" points="0,69.586 0,19 486.285,19 486.285,69.586 			"/>
		</defs>
		<clipPath id="SVGID_12_">
			<use xlink:href="#SVGID_11_"  overflow="visible"/>
		</clipPath>
	</g>
	<g>
		<defs>
			<polyline id="SVGID_13_" points="0,69.586 0,19 486.285,19 486.285,69.586 			"/>
		</defs>
		<clipPath id="SVGID_14_">
			<use xlink:href="#SVGID_13_"  overflow="visible"/>
		</clipPath>
	</g>
	<g>
		<defs>
			<polyline id="SVGID_15_" points="0,69.586 0,19 486.285,19 486.285,69.586 			"/>
		</defs>
		<clipPath id="SVGID_16_">
			<use xlink:href="#SVGID_15_"  overflow="visible"/>
		</clipPath>
	</g>
	<g>
		<defs>
			<polyline id="SVGID_17_" points="0,69.586 0,19 486.285,19 486.285,69.586 			"/>
		</defs>
		<clipPath id="SVGID_18_">
			<use xlink:href="#SVGID_17_"  overflow="visible"/>
		</clipPath>
	</g>
	<g>
		<defs>
			<polyline id="SVGID_19_" points="0,69.586 0,19 486.285,19 486.285,69.586 			"/>
		</defs>
		<clipPath id="SVGID_20_">
			<use xlink:href="#SVGID_19_"  overflow="visible"/>
		</clipPath>
	</g>
	<g>
		<defs>
			<polyline id="SVGID_21_" points="0,69.586 0,19 486.285,19 486.285,69.586 			"/>
		</defs>
		<clipPath id="SVGID_22_">
			<use xlink:href="#SVGID_21_"  overflow="visible"/>
		</clipPath>
	</g>
	<g>
		<defs>
			<polyline id="SVGID_23_" points="0,69.586 0,19 486.285,19 486.285,69.586 			"/>
		</defs>
		<clipPath id="SVGID_24_">
			<use xlink:href="#SVGID_23_"  overflow="visible"/>
		</clipPath>
	</g>
	<g>
		<defs>
			<polyline id="SVGID_25_" points="0,69.586 0,19 486.285,19 486.285,69.586 			"/>
		</defs>
		<clipPath id="SVGID_26_">
			<use xlink:href="#SVGID_25_"  overflow="visible"/>
		</clipPath>
	</g>
	<g>
		<defs>
			<polyline id="SVGID_27_" points="0,69.586 0,19 486.285,19 486.285,69.586 			"/>
		</defs>
		<clipPath id="SVGID_28_">
			<use xlink:href="#SVGID_27_"  overflow="visible"/>
		</clipPath>
		<path clip-path="url(#SVGID_28_)" d="M8.36,29.258c0,2.352-2.013,4.277-4.223,4.277C2.011,33.536,0,31.695,0,29.258
			c0-2.466,2.239-4.224,4.166-4.224C6.404,25.034,8.36,26.876,8.36,29.258"/>
	</g>
	<g>
		<defs>
			<polyline id="SVGID_29_" points="0,69.586 0,19 486.285,19 486.285,69.586 			"/>
		</defs>
		<clipPath id="SVGID_30_">
			<use xlink:href="#SVGID_29_"  overflow="visible"/>
		</clipPath>
		<path clip-path="url(#SVGID_30_)" d="M31.243,19.396c0.709,0,3.769,0.113,3.94,0.113c0.17,0,0.425,0.255,0.48,0.396
			c0.116,0.425,0.426,1.104,1.021,2.493c0.625,1.446,3.94,8.36,4.762,9.892c0.057,0.114,0.226,0.086,0.396-0.254
			c0.199-0.369,4.224-8.446,4.903-9.779c0.596-1.218,0.88-1.84,1.021-2.294c0.027-0.171,0.339-0.454,0.51-0.454
			c0.483,0,2.748-0.142,3.656-0.142c0.283,0,0.906,0.112,0.906,0.538c0,0.255-0.169,0.396-0.877,0.566
			c-1.701,0.37-2.098,0.879-2.098,1.36c0,4.593,0.198,9.438,0.311,11.335c0.086,2.068,0.624,2.297,1.787,2.692
			c0.622,0.198,0.877,0.454,0.877,0.623c0,0.283-0.284,0.513-0.822,0.513c-0.339,0-3.032-0.17-3.798-0.17
			c-0.848,0-1.389,0.084-2.068,0.084c-0.454,0-0.878-0.197-0.878-0.482c0-0.311,0.368-0.51,0.964-0.65
			c1.019-0.281,1.189-0.595,1.218-2.154c0.029-0.736,0.029-6.941,0.029-9.664c0-0.197-0.312-0.056-0.341,0
			c-0.596,1.076-3.657,7.68-4.082,8.559c-0.339,0.709-1.218,2.692-1.501,3.517c-0.226,0.68-0.651,0.99-0.993,0.99
			c-0.254,0-0.509-0.482-0.708-0.965c-0.339-0.734-1.161-3.061-1.444-3.796c-1.05-2.58-2.835-6.208-3.656-8.219
			c-0.029-0.028-0.255-0.257-0.284-0.028c-0.255,2.493-0.509,8.105-0.509,9.549c0,1.701,0.367,1.871,1.698,2.212
			c0.654,0.142,0.767,0.397,0.767,0.651c0,0.312-0.483,0.48-0.908,0.48c-0.397,0-1.389-0.084-2.211-0.084
			c-0.905,0-2.719,0.141-3.089,0.141c-0.538,0-0.906-0.141-0.906-0.508c0-0.258,0.197-0.455,0.88-0.625
			c1.302-0.312,1.897-0.992,2.097-2.183c0.339-1.954,1.047-10.26,1.047-10.939c0-1.614-0.283-1.927-2.155-2.269
			c-0.422-0.055-0.764-0.254-0.764-0.45C30.421,19.679,30.904,19.396,31.243,19.396"/>
	</g>
	<g>
		<defs>
			<polyline id="SVGID_31_" points="0,69.586 0,19 486.285,19 486.285,69.586 			"/>
		</defs>
		<clipPath id="SVGID_32_">
			<use xlink:href="#SVGID_31_"  overflow="visible"/>
		</clipPath>
		<path clip-path="url(#SVGID_32_)" d="M97.146,29.683c0.142,0,0.425,0.142,0.425,0.341c0,0.255-0.029,0.877-0.113,1.16
			c-0.057,0.143-0.283,0.342-0.483,0.342l-23.578,0.028c-0.368,0-0.368-0.341-0.368-0.483c0-0.195,0.113-0.904,0.226-1.047
			c0.084-0.17,0.367-0.255,0.509-0.255L97.146,29.683z"/>
	</g>
	<g>
		<defs>
			<polyline id="SVGID_33_" points="0,69.586 0,19 486.285,19 486.285,69.586 			"/>
		</defs>
		<clipPath id="SVGID_34_">
			<use xlink:href="#SVGID_33_"  overflow="visible"/>
		</clipPath>
		<path clip-path="url(#SVGID_34_)" d="M128.072,28.522c-0.339-1.417-1.869-5.188-2.068-5.642c-0.084-0.199-0.312-0.141-0.368,0
			c-0.624,1.531-1.446,3.771-2.068,5.642c-0.029,0.111,0,0.255,0.197,0.279c0.511,0.06,3.685,0.088,4.194,0
			C128.046,28.803,128.13,28.635,128.072,28.522 M128.13,21.69c1.446,4.109,3.853,10.26,4.507,11.989
			c0.593,1.473,0.792,1.614,2.352,2.151c0.622,0.201,0.85,0.51,0.85,0.822c0,0.172-0.284,0.312-0.68,0.312
			c-1.504,0-2.58-0.141-3.968-0.141c-1.276,0-1.276,0.057-2.182,0.057c-0.538,0-0.795-0.17-0.795-0.371
			c0-0.225,0.142-0.537,0.653-0.68c1.331-0.396,1.444-0.595,1.161-1.613c-0.197-0.795-0.935-2.692-1.276-3.543
			c-0.055-0.172-0.396-0.396-0.735-0.396c-0.567-0.029-3.969-0.029-4.846,0.059c-0.141,0-0.398,0.254-0.454,0.396
			c-0.396,1.161-1.162,3.313-1.162,3.911c0,0.367,0.057,0.764,1.417,1.188c0.368,0.113,0.623,0.228,0.623,0.455
			c0.028,0.283-0.311,0.623-0.964,0.623c-0.31,0-1.53-0.084-2.352-0.084c-0.963,0-1.473,0.141-2.551,0.141
			c-0.509,0-0.935-0.112-0.964-0.426c0-0.283,0.257-0.566,0.851-0.709c1.417-0.367,1.9-0.963,2.184-1.586
			c0.876-1.871,3.853-9.351,5.241-13.037c0.085-0.225,0.171-0.566,0.2-0.792c0-0.087,0.142-0.284,0.197-0.312
			c0.312-0.229,0.737-0.538,1.021-0.793c0.17-0.17,0.48-0.312,0.596-0.312C127.337,18.999,127.479,19.792,128.13,21.69"/>
	</g>
	<g>
		<defs>
			<polyline id="SVGID_35_" points="0,69.586 0,19 486.285,19 486.285,69.586 			"/>
		</defs>
		<clipPath id="SVGID_36_">
			<use xlink:href="#SVGID_35_"  overflow="visible"/>
		</clipPath>
		<path clip-path="url(#SVGID_36_)" d="M179.241,29.683c0.142,0,0.425,0.142,0.425,0.341c0,0.255-0.029,0.877-0.113,1.16
			c-0.057,0.143-0.283,0.342-0.482,0.342l-23.579,0.028c-0.368,0-0.368-0.341-0.368-0.483c0-0.195,0.113-0.904,0.226-1.047
			c0.084-0.17,0.368-0.255,0.509-0.255L179.241,29.683z"/>
	</g>
	<g>
		<defs>
			<polyline id="SVGID_37_" points="0,69.586 0,19 486.285,19 486.285,69.586 			"/>
		</defs>
		<clipPath id="SVGID_38_">
			<use xlink:href="#SVGID_37_"  overflow="visible"/>
		</clipPath>
		<path clip-path="url(#SVGID_38_)" d="M206.769,20.443c-0.37,0-0.992,0.115-1.276,0.229c-0.17,0.055-0.312,0.312-0.312,0.566
			c-0.055,1.56,0,4.619,0.057,6.035c0,0.17,0.085,0.283,0.226,0.341c0.625,0.17,1.163,0.253,1.701,0.253
			c0.425,0,2.011-0.509,2.635-1.075c0.454-0.454,0.935-1.417,0.935-2.552C210.734,22.201,209.659,20.443,206.769,20.443
			 M212.097,26.905c-0.228,0.227-1.475,1.05-1.73,1.163c-0.113,0.028-0.141,0.283-0.084,0.425c0.397,0.793,2.465,3.967,3.796,5.471
			c1.389,1.558,2.184,1.953,3.344,2.236c0.284,0.059,0.399,0.256,0.399,0.426c0,0.539-1.305,0.683-1.646,0.683
			c-1.247,0-2.919-0.171-5.016-2.894c-1.019-1.33-2.664-3.77-3.202-4.533c-0.651-0.907-1.36-0.937-2.323-0.937
			c-0.228,0-0.397,0.257-0.397,0.425c0,2.27,0.029,3.715,0.113,4.707c0.085,1.02,0.454,1.389,1.756,1.728
			c0.539,0.142,0.767,0.312,0.767,0.625c0,0.339-0.483,0.509-0.908,0.509c-0.709,0-2.182-0.113-3.174-0.113
			c-0.879,0-1.359,0.113-2.409,0.113c-0.68,0-1.019-0.197-1.019-0.48c0-0.256,0.284-0.426,0.793-0.596
			c1.105-0.367,1.473-0.51,1.53-1.927c0.029-1.021,0.029-1.955,0.029-7.058c0-3.486-0.058-4.646-0.113-5.242
			c-0.058-0.567-0.483-0.879-1.559-1.076c-0.483-0.086-0.822-0.312-0.822-0.567c0-0.425,0.539-0.538,1.134-0.538h2.494
			c1.076,0,2.239-0.142,3.599-0.142c2.493,0,3.541,0.565,4.223,1.076c1.331,1.019,1.756,2.239,1.756,3.485
			C213.428,24.922,212.918,26.142,212.097,26.905"/>
	</g>
	<g>
		<defs>
			<polyline id="SVGID_39_" points="0,69.586 0,19 486.285,19 486.285,69.586 			"/>
		</defs>
		<clipPath id="SVGID_40_">
			<use xlink:href="#SVGID_39_"  overflow="visible"/>
		</clipPath>
		<path clip-path="url(#SVGID_40_)" d="M260.343,29.683c0.144,0,0.426,0.142,0.426,0.341c0,0.255-0.027,0.877-0.111,1.16
			c-0.059,0.143-0.283,0.342-0.484,0.342l-23.577,0.028c-0.368,0-0.368-0.341-0.368-0.483c0-0.195,0.113-0.904,0.226-1.047
			c0.084-0.17,0.368-0.255,0.509-0.255L260.343,29.683z"/>
	</g>
	<g>
		<defs>
			<polyline id="SVGID_41_" points="0,69.586 0,19 486.285,19 486.285,69.586 			"/>
		</defs>
		<clipPath id="SVGID_42_">
			<use xlink:href="#SVGID_41_"  overflow="visible"/>
		</clipPath>
		<path clip-path="url(#SVGID_42_)" d="M281.917,19.367c0.399,0,2.127,0.142,2.836,0.142c1.358,0,2.748-0.056,3.061-0.056
			c0.229,0,0.768,0.142,0.768,0.452c0,0.341-0.482,0.596-0.709,0.653c-1.275,0.31-1.502,0.68-1.502,1.132
			c0,0.369-0.142,4.818-0.058,5.47c0.028,0.142,0.112,0.228,0.312,0.228c0.112,0,0.338-0.057,0.681-0.37
			c1.843-1.559,5.069-4.646,5.864-5.583c0.228-0.282,0.113-0.593-0.85-0.792c-0.538-0.112-0.822-0.341-0.822-0.65
			c0-0.143,0.197-0.483,0.709-0.483h1.53c1.644-0.028,2.974-0.198,4.079-0.198c0.852,0,1.051,0.256,1.051,0.539
			c0,0.197-0.283,0.48-0.908,0.594c-1.248,0.228-2.353,0.767-3.485,1.672c-1.16,0.908-2.238,1.813-5.157,4.564
			c-0.085,0.056-0.085,0.283,0,0.396c2.38,2.692,5.583,5.895,6.745,7c1.104,1.049,1.813,1.389,3.062,1.785
			c0.625,0.196,0.822,0.34,0.822,0.68c0,0.143-0.312,0.483-0.822,0.483c-1.33,0-3.883-0.198-4.957-0.198h-1.447
			c-0.396,0-0.68-0.256-0.68-0.511c0-0.229,0.226-0.454,0.736-0.597c0.682-0.199,0.793-0.51,0.396-0.963
			c-1.049-1.19-4.479-4.762-5.836-6.121c-0.313-0.283-0.598-0.396-0.709-0.396c-0.199,0-0.312,0.227-0.312,0.538
			c0,1.302-0.029,3.966,0.084,5.412c0.113,1.246,0.652,1.358,1.701,1.588c0.792,0.168,0.963,0.423,0.963,0.649
			c0,0.285-0.426,0.512-0.764,0.512c-0.342,0-1.984-0.113-2.863-0.113c-1.331,0-3.174,0.17-3.684,0.17
			c-0.34,0-0.824-0.17-0.824-0.482c0-0.338,0.283-0.51,0.767-0.622c1.502-0.37,1.897-0.681,1.983-1.871
			c0.057-0.964,0.113-2.067,0.113-6.858c0-4.363,0-4.761-0.058-5.328c-0.058-0.509-0.084-0.935-1.644-1.302
			c-0.623-0.143-0.936-0.397-0.936-0.654C281.154,19.65,281.494,19.367,281.917,19.367"/>
	</g>
	<g>
		<defs>
			<polyline id="SVGID_43_" points="0,69.586 0,19 486.285,19 486.285,69.586 			"/>
		</defs>
		<clipPath id="SVGID_44_">
			<use xlink:href="#SVGID_43_"  overflow="visible"/>
		</clipPath>
		<path clip-path="url(#SVGID_44_)" d="M343.429,29.683c0.143,0,0.424,0.142,0.424,0.341c0,0.255-0.027,0.877-0.111,1.16
			c-0.059,0.143-0.283,0.342-0.482,0.342l-23.578,0.028c-0.369,0-0.369-0.341-0.369-0.483c0-0.195,0.113-0.904,0.229-1.047
			c0.084-0.17,0.367-0.255,0.508-0.255L343.429,29.683z"/>
	</g>
	<g>
		<defs>
			<polyline id="SVGID_45_" points="0,69.586 0,19 486.285,19 486.285,69.586 			"/>
		</defs>
		<clipPath id="SVGID_46_">
			<use xlink:href="#SVGID_45_"  overflow="visible"/>
		</clipPath>
		<path clip-path="url(#SVGID_46_)" d="M366.904,23.619c0-2.409-0.143-2.693-1.955-3.118c-0.482-0.113-0.709-0.396-0.709-0.651
			c0-0.171,0.479-0.425,0.904-0.425c0.541,0,1.588,0.084,2.836,0.084c1.699,0,2.465-0.112,3.287-0.112
			c0.34,0,0.682,0.226,0.682,0.509c0,0.255-0.369,0.454-0.598,0.512c-1.643,0.425-1.758,0.735-1.812,2.181
			c-0.057,1.163-0.057,4.252-0.057,6.18c0,3.089,0.027,4.675,0.027,5.046c0.059,1.33,0.426,1.584,2.127,2.01
			c0.537,0.142,0.736,0.342,0.736,0.566c0,0.367-0.596,0.539-0.938,0.539c-0.283,0-2.322-0.113-3.285-0.113
			c-0.992,0-2.664,0.17-3.176,0.17c-0.369,0-0.766-0.199-0.766-0.424c0-0.256,0.342-0.514,0.709-0.654
			c1.473-0.51,1.701-0.764,1.785-1.33c0.086-0.596,0.199-4.762,0.199-7.085v-3.884H366.904z"/>
	</g>
	<g>
		<defs>
			<polyline id="SVGID_47_" points="0,69.586 0,19 486.285,19 486.285,69.586 			"/>
		</defs>
		<clipPath id="SVGID_48_">
			<use xlink:href="#SVGID_47_"  overflow="visible"/>
		</clipPath>
		<path clip-path="url(#SVGID_48_)" d="M416.599,29.683c0.143,0,0.426,0.142,0.426,0.341c0,0.255-0.029,0.877-0.113,1.16
			c-0.057,0.143-0.283,0.342-0.482,0.342l-23.578,0.028c-0.367,0-0.367-0.341-0.367-0.483c0-0.195,0.113-0.904,0.227-1.047
			c0.084-0.17,0.367-0.255,0.508-0.255L416.599,29.683z"/>
	</g>
	<g>
		<defs>
			<polyline id="SVGID_49_" points="0,69.586 0,19 486.285,19 486.285,69.586 			"/>
		</defs>
		<clipPath id="SVGID_50_">
			<use xlink:href="#SVGID_49_"  overflow="visible"/>
		</clipPath>
		<path clip-path="url(#SVGID_50_)" d="M437.324,19.338c1.133,0,3.316,0.171,4.168,0.171c0.143,0,0.537,0.367,0.566,0.426
			c0.283,0.482,1.359,1.812,2.719,3.288c1.502,1.614,6.83,7.707,7.906,8.697c0.086,0.088,0.258-0.055,0.283-0.195
			c0.059-0.566,0.199-5.698,0.059-7.992c-0.143-2.381-0.172-2.748-2.098-3.174c-0.682-0.142-0.793-0.454-0.793-0.624
			c0-0.2,0.254-0.454,0.852-0.454c1.131,0,1.246,0.028,1.98,0.028c1.164,0,2.635-0.171,3.203-0.171c0.596,0,0.879,0.283,0.879,0.513
			c0,0.168-0.084,0.366-1.047,0.65c-0.965,0.312-1.363,0.792-1.42,1.417c-0.086,0.906-0.254,6.885-0.254,9.637
			c0,1.246,0.057,3.145,0.057,4.447c0,1.189-0.254,1.39-0.598,1.39c-0.141,0-0.734-0.312-1.074-0.821
			c-0.709-1.021-2.182-2.89-2.975-3.77c-1.078-1.246-6.551-7.538-7.795-8.898c-0.17-0.142-0.285,0.027-0.311,0.284
			c-0.029,0.622-0.117,1.84-0.117,3.06c0,1.276,0.088,4.393,0.117,5.158c0.084,2.494,0.227,2.777,1.812,3.287
			c0.65,0.199,0.936,0.396,0.936,0.766c0,0.34-0.539,0.48-0.908,0.48c-0.793,0-1.359-0.113-2.041-0.113
			c-1.33,0-3.061,0.172-3.428,0.172c-0.453,0-0.908-0.113-0.908-0.482c0-0.256,0.256-0.48,0.768-0.622
			c1.84-0.483,2.01-1.192,2.098-2.325c0.141-1.898,0.367-10.004,0.367-10.909c0-0.37-0.199-0.796-0.963-1.504
			c-0.396-0.425-1.248-0.622-1.785-0.735c-0.453-0.058-0.852-0.398-0.852-0.709C436.728,19.48,436.955,19.338,437.324,19.338"/>
	</g>
	<g>
		<defs>
			<polyline id="SVGID_51_" points="0,69.586 0,19 486.285,19 486.285,69.586 			"/>
		</defs>
		<clipPath id="SVGID_52_">
			<use xlink:href="#SVGID_51_"  overflow="visible"/>
		</clipPath>
		<path clip-path="url(#SVGID_52_)" d="M486.285,29.258c0,2.352-2.016,4.277-4.225,4.277c-2.127,0-4.137-1.841-4.137-4.277
			c0-2.466,2.238-4.224,4.166-4.224C484.33,25.034,486.285,26.876,486.285,29.258"/>
	</g>
</g>
</svg>
